<?xml version="1.0" encoding="utf-8"?>
<!-- Generator: Adobe Illustrator 16.0.0, SVG Export Plug-In . SVG Version: 6.00 Build 0)  -->
<!DOCTYPE svg PUBLIC "-//W3C//DTD SVG 1.1//EN" "http://www.w3.org/Graphics/SVG/1.1/DTD/svg11.dtd">
<svg version="1.1" id="Layer_1" xmlns="http://www.w3.org/2000/svg" xmlns:xlink="http://www.w3.org/1999/xlink" x="0px" y="0px"
	 width="220px" height="120px" viewBox="0 0 220 120" enable-background="new 0 0 220 120" xml:space="preserve">
<g>
	<g>
		<path fill="#FFFFFF" d="M89.478,115.08l0.009-6.748l4.322,0.006v0.939l-2.919-0.006l-0.002,1.869l2.412,0.006l-0.001,0.938
			l-2.413-0.002l-0.003,2.053l3.133,0.004l-0.002,0.945L89.478,115.08z"/>
		<path fill="#FFFFFF" d="M97.785,115.096l-2.486-6.756l1.498,0.004l1.93,5.225l1.883-5.219h1.01l-2.43,6.746H97.785z"/>
		<path fill="#FFFFFF" d="M103.476,115.104l0.01-6.75l4.322,0.008l-0.001,0.93l-2.918-0.004l-0.002,1.877l2.41,0.004l-0.001,0.932
			l-2.41-0.002l-0.004,2.057l3.133,0.006l-0.001,0.953L103.476,115.104z"/>
		<path fill="#FFFFFF" d="M110.018,115.115l0.008-6.75l1.24,0.002l3.112,4.607l0.005-4.604l1.127,0.002l-0.009,6.752l-1.261-0.002
			l-3.091-4.611l-0.007,4.604H110.018z"/>
		<path fill="#FFFFFF" d="M119.805,115.131l0.007-5.824l-2.415-0.002l-0.001-0.926l6.235,0.008v0.924l-2.418-0.002l-0.006,5.826
			L119.805,115.131z"/>
		<path fill="#FFFFFF" d="M125.123,115.072l0.003-1.154c0.527,0.225,0.918,0.355,1.18,0.402c0.258,0.035,0.5,0.055,0.72,0.055
			c0.394,0,0.684-0.078,0.881-0.258c0.193-0.178,0.291-0.385,0.294-0.631c0-0.193-0.058-0.365-0.161-0.52
			c-0.111-0.148-0.379-0.334-0.802-0.58l-0.452-0.25c-0.65-0.354-1.089-0.699-1.319-1.006c-0.229-0.301-0.35-0.662-0.348-1.063
			c-0.001-0.508,0.193-0.941,0.582-1.311c0.393-0.354,0.949-0.539,1.677-0.537c0.543,0.002,1.154,0.08,1.837,0.236l-0.002,1.086
			c-0.7-0.264-1.251-0.395-1.665-0.395c-0.337,0-0.593,0.068-0.771,0.221c-0.179,0.148-0.268,0.33-0.268,0.525
			c-0.001,0.162,0.054,0.311,0.161,0.447c0.105,0.135,0.372,0.33,0.794,0.563l0.486,0.27c0.74,0.418,1.219,0.779,1.423,1.082
			c0.203,0.313,0.304,0.664,0.303,1.051c-0.001,0.555-0.212,1.025-0.634,1.42c-0.42,0.387-1.093,0.584-2.014,0.582
			C126.48,115.309,125.848,115.227,125.123,115.072z"/>
	</g>
	<polygon fill="#FFFFFF" points="73.5,113.297 2.6,111.939 73.5,110.573 	"/>
	<polygon fill="#FFFFFF" points="145.5,110.573 217.978,111.939 145.5,113.297 	"/>
	<g>
		<g>
			<path fill="#FFFFFF" d="M35.381,80.416c-0.178,0.662-0.311,1.322-0.396,2c-0.084,0.678-0.125,1.432-0.125,2.236
				c0,3.213,0.204,6.152,0.611,8.818c0.408,2.676,1.011,4.996,1.808,6.945c-0.479,0.258-0.927,0.451-1.345,0.578
				c-0.42,0.123-0.827,0.178-1.225,0.178c-0.418,0-0.747-0.086-0.987-0.271c-0.239-0.172-0.412-0.457-0.523-0.861
				c-0.059-0.242-0.167-2.063-0.327-5.461c-0.16-3.393-0.385-6.725-0.672-9.959c-2.082,3.922-4.273,8.23-6.574,12.896
				c-0.418,0.857-0.707,1.453-0.864,1.766c-0.19,0.369-0.378,0.639-0.561,0.801c-0.187,0.16-0.398,0.236-0.636,0.236
				c-0.477,0-0.969-0.551-1.478-1.645c-0.121-0.238-0.217-0.441-0.284-0.582c-1.613-3.266-2.979-6.008-4.087-8.182
				c-1.111-2.203-2.023-3.924-2.741-5.223c-0.168,2.516-0.333,5.605-0.486,9.268c-0.154,3.662-0.329,5.773-0.528,6.342
				c-0.102,0.305-0.25,0.533-0.449,0.674s-0.466,0.201-0.806,0.201c-0.261,0-0.576-0.055-0.95-0.178
				c-0.373-0.127-0.81-0.32-1.305-0.578c0.776-1.941,1.368-4.26,1.776-6.945c0.408-2.676,0.612-5.637,0.612-8.906
				c0-0.793-0.043-1.512-0.126-2.193c-0.087-0.676-0.207-1.314-0.367-1.955c0.329-0.285,0.629-0.486,0.904-0.613
				c0.273-0.127,0.565-0.203,0.873-0.203c0.968,0,2.517,2.209,4.645,6.623c0.809,1.658,1.46,2.994,1.957,3.979
				c1.127,2.229,1.896,3.691,2.309,4.412c0.414,0.719,0.685,1.076,0.816,1.076c0.269,0,1.627-2.49,4.076-7.457
				c1.017-2.068,1.827-3.699,2.437-4.916c0.656-1.348,1.236-2.297,1.739-2.865c0.504-0.57,1.002-0.852,1.501-0.852
				c0.288,0,0.57,0.076,0.846,0.203C34.723,79.93,35.031,80.131,35.381,80.416z"/>
			<path fill="#FFFFFF" d="M52.83,94.289h-8.083c-0.797,1.729-1.352,3.088-1.666,4.072c-0.313,0.984-0.47,1.83-0.47,2.539
				l-0.016,0.25c-0.228,0.021-0.395,0.033-0.5,0.041c-0.104,0.006-0.203,0.01-0.292,0.01c-0.646,0-1.139-0.131-1.477-0.391
				c-0.34-0.262-0.509-0.65-0.509-1.166c0-0.498,0.966-2.695,2.899-6.59c1.931-3.873,3.619-7.477,5.063-10.826
				c-0.159-0.229-0.331-0.438-0.515-0.666c-0.186-0.199-0.382-0.432-0.591-0.641c0.368-0.465,0.705-0.797,1.01-1.006
				c0.302-0.211,0.608-0.316,0.916-0.316c0.429,0,0.847,0.273,1.249,0.824c0.403,0.553,0.873,1.508,1.412,2.818
				c0.467,1.146,1.11,2.758,1.925,4.803c2.771,6.953,4.695,10.961,5.784,11.994c-0.381,0.418-0.729,0.711-1.047,0.896
				s-0.651,0.266-1.001,0.266c-1.006,0-2.147-1.715-3.42-5.131C53.214,95.303,52.989,94.715,52.83,94.289z M48.976,84.652
				l-0.718,1.668c-1.145,2.693-1.986,4.668-2.524,5.92h6.292c-0.509-1.359-1.019-2.68-1.526-3.939
				C49.993,87.041,49.484,85.836,48.976,84.652z"/>
			<path fill="#FFFFFF" d="M80.122,101.354c-1.822-1.791-4.343-4.561-7.559-8.32c-3.218-3.746-5.622-6.457-7.214-8.133
				c0.009,3.758,0.078,7.703,0.209,11.873c0.037,1.104,0.059,1.77,0.059,2.01c0,0.982-0.107,1.637-0.314,1.939
				c-0.209,0.299-0.597,0.449-1.166,0.449c-0.367,0-0.75-0.055-1.15-0.186c-0.397-0.129-0.795-0.326-1.196-0.57
				c0.541-0.926,0.917-2.23,1.138-3.953c0.219-1.725,0.327-4.746,0.327-9.086c0-2.055-0.126-3.488-0.379-4.348
				c-0.254-0.859-0.7-1.467-1.338-1.793c0.439-0.529,0.825-0.889,1.164-1.115c0.34-0.232,0.679-0.336,1.018-0.336
				c0.317,0,0.633,0.094,0.94,0.309c0.31,0.193,0.689,0.568,1.136,1.076c0.078,0.082,0.265,0.318,0.553,0.652
				c3.813,4.553,8.096,9.467,12.846,14.748c0.032-1.475,0.054-2.793,0.067-3.93c0.016-1.139,0.022-2.107,0.022-2.906
				c0-2.648-0.104-4.678-0.313-6.064c-0.209-1.389-0.553-2.5-1.031-3.332c0.45-0.236,0.854-0.418,1.22-0.527
				c0.363-0.115,0.704-0.176,1.021-0.176c0.567,0,0.957,0.17,1.172,0.494c0.215,0.336,0.322,1.061,0.322,2.162
				c0,0.65-0.057,2.277-0.172,4.846c-0.116,2.578-0.171,4.832-0.171,6.756c0,1.256,0.028,2.441,0.088,3.529
				c0.063,1.094,0.146,2.127,0.255,3.074L80.122,101.354z"/>
			<path fill="#FFFFFF" d="M111.222,80.416c-0.179,0.662-0.312,1.322-0.395,2c-0.081,0.678-0.127,1.432-0.127,2.236
				c0,3.213,0.202,6.152,0.613,8.818c0.411,2.676,1.012,4.996,1.81,6.945c-0.48,0.258-0.934,0.451-1.347,0.578
				c-0.421,0.123-0.827,0.178-1.226,0.178c-0.419,0-0.745-0.086-0.984-0.271c-0.239-0.172-0.415-0.457-0.523-0.861
				c-0.061-0.242-0.17-2.063-0.327-5.461c-0.16-3.393-0.386-6.725-0.673-9.959c-2.081,3.922-4.273,8.23-6.574,12.896
				c-0.418,0.857-0.707,1.453-0.866,1.766c-0.188,0.369-0.375,0.639-0.56,0.801c-0.185,0.16-0.396,0.236-0.636,0.236
				c-0.477,0-0.97-0.551-1.479-1.645c-0.117-0.238-0.215-0.441-0.285-0.582c-1.613-3.266-2.974-6.008-4.083-8.182
				c-1.112-2.203-2.026-3.924-2.742-5.223c-0.17,2.516-0.332,5.605-0.486,9.268c-0.152,3.662-0.331,5.773-0.528,6.342
				c-0.101,0.305-0.251,0.533-0.449,0.674c-0.2,0.141-0.469,0.201-0.806,0.201c-0.26,0-0.579-0.055-0.95-0.178
				c-0.375-0.127-0.81-0.32-1.308-0.578c0.777-1.941,1.369-4.26,1.778-6.945c0.407-2.676,0.612-5.637,0.612-8.906
				c0-0.793-0.042-1.512-0.126-2.193c-0.086-0.676-0.207-1.314-0.366-1.955c0.328-0.285,0.628-0.486,0.902-0.613
				c0.272-0.127,0.567-0.203,0.875-0.203c0.965,0,2.515,2.209,4.646,6.623c0.806,1.658,1.458,2.994,1.956,3.979
				c1.125,2.229,1.896,3.691,2.309,4.412c0.414,0.719,0.687,1.076,0.815,1.076c0.267,0,1.627-2.49,4.077-7.457
				c1.016-2.068,1.828-3.699,2.436-4.916c0.656-1.348,1.237-2.297,1.74-2.865c0.502-0.57,1.003-0.852,1.501-0.852
				c0.288,0,0.571,0.076,0.841,0.203C110.565,79.93,110.874,80.131,111.222,80.416z"/>
			<path fill="#FFFFFF" d="M127.042,101.602c-1.513,0-2.93-0.246-4.252-0.742c-1.315-0.516-2.479-1.24-3.485-2.201
				c-1.072-1.01-1.886-2.188-2.43-3.535c-0.541-1.346-0.812-2.842-0.812-4.504c0-1.633,0.291-3.139,0.875-4.531
				c0.582-1.389,1.441-2.617,2.574-3.697c1.108-1.031,2.393-1.842,3.854-2.373c1.467-0.533,3.057-0.803,4.778-0.803
				c3.381,0,6.082,0.953,8.114,2.867c2.032,1.916,3.049,4.457,3.049,7.615c0,1.568-0.278,3.043-0.832,4.438
				c-0.553,1.393-1.357,2.629-2.41,3.707c-1.202,1.252-2.562,2.197-4.064,2.824C130.499,101.295,128.845,101.602,127.042,101.602z
				 M136.188,89.92c0-2.521-0.761-4.545-2.272-6.055s-3.541-2.279-6.081-2.279c-2.617,0-4.717,0.801-6.289,2.412
				c-1.574,1.6-2.36,3.73-2.36,6.402c0,2.588,0.761,4.688,2.289,6.293c1.521,1.631,3.505,2.438,5.943,2.438
				c2.589,0,4.697-0.859,6.324-2.578C135.372,94.846,136.188,92.623,136.188,89.92z"/>
			<path fill="#FFFFFF" d="M146.837,88.684h12.906V87.51c0-1.91-0.074-3.436-0.217-4.574c-0.146-1.133-0.365-1.977-0.662-2.537
				c0.514-0.273,0.982-0.469,1.396-0.596c0.413-0.127,0.784-0.203,1.114-0.203c0.508,0,0.861,0.146,1.067,0.451
				c0.201,0.305,0.304,0.828,0.304,1.607c0,0.256-0.043,1.418-0.135,3.521c-0.092,2.098-0.136,4.061-0.136,5.891
				c0,2.787,0.078,4.881,0.228,6.275c0.146,1.402,0.396,2.416,0.743,3.07c-0.467,0.258-0.909,0.451-1.326,0.578
				c-0.42,0.123-0.822,0.178-1.212,0.178c-0.528,0-0.892-0.141-1.099-0.426c-0.202-0.283-0.303-0.803-0.303-1.559
				c0-0.045,0.029-0.994,0.096-2.85c0.062-1.857,0.101-3.689,0.11-5.504h-12.906v1.494c0,2.23,0.075,3.971,0.22,5.254
				c0.149,1.285,0.393,2.219,0.721,2.834c-0.478,0.244-0.924,0.441-1.337,0.57c-0.413,0.131-0.787,0.186-1.127,0.186
				c-0.548,0-0.921-0.145-1.119-0.432c-0.202-0.287-0.302-0.852-0.302-1.697c0-0.414,0.053-1.762,0.155-4.049
				c0.107-2.277,0.158-4.359,0.158-6.229c0-2.346-0.076-4.172-0.224-5.479c-0.149-1.305-0.395-2.268-0.731-2.889
				c0.486-0.268,0.936-0.455,1.346-0.588c0.407-0.133,0.775-0.211,1.102-0.211c0.519,0,0.885,0.146,1.092,0.451
				c0.21,0.305,0.314,0.814,0.314,1.574c0,0.148-0.036,1.006-0.096,2.559C146.911,85.738,146.865,87.25,146.837,88.684z"/>
			<path fill="#FFFFFF" d="M172.872,100.416c-0.467,0.244-0.914,0.441-1.339,0.57c-0.432,0.131-0.838,0.186-1.23,0.186
				c-0.526,0-0.887-0.145-1.083-0.439c-0.191-0.287-0.292-0.854-0.292-1.689c0-0.428,0.047-1.791,0.133-4.061
				c0.095-2.27,0.14-4.348,0.14-6.217c0-2.404-0.074-4.26-0.219-5.555c-0.143-1.293-0.373-2.242-0.695-2.813
				c0.508-0.273,0.97-0.469,1.38-0.596c0.417-0.127,0.803-0.203,1.161-0.203c0.517,0,0.88,0.146,1.09,0.451s0.313,0.828,0.313,1.607
				c0,0.115-0.052,1.352-0.154,3.703c-0.103,2.346-0.158,4.662-0.158,6.912c0,2.275,0.072,4.035,0.223,5.303
				C172.289,98.84,172.536,99.779,172.872,100.416z"/>
			<path fill="#FFFFFF" d="M195.731,101.354c-1.821-1.791-4.341-4.561-7.563-8.32c-3.216-3.746-5.62-6.457-7.215-8.133
				c0.011,3.758,0.079,7.703,0.209,11.873c0.042,1.104,0.063,1.77,0.063,2.01c0,0.982-0.107,1.637-0.316,1.939
				c-0.207,0.299-0.593,0.449-1.162,0.449c-0.369,0-0.755-0.055-1.152-0.186c-0.396-0.129-0.797-0.326-1.195-0.57
				c0.538-0.926,0.917-2.23,1.136-3.953c0.219-1.725,0.327-4.746,0.327-9.086c0-2.055-0.125-3.488-0.377-4.348
				c-0.256-0.859-0.702-1.467-1.334-1.793c0.436-0.529,0.821-0.889,1.161-1.115c0.336-0.232,0.676-0.336,1.016-0.336
				c0.316,0,0.633,0.094,0.941,0.309c0.307,0.193,0.685,0.568,1.136,1.076c0.079,0.082,0.262,0.318,0.551,0.652
				c3.814,4.553,8.097,9.467,12.849,14.748c0.028-1.475,0.051-2.793,0.063-3.93c0.016-1.139,0.023-2.107,0.023-2.906
				c0-2.648-0.103-4.678-0.313-6.064c-0.206-1.389-0.551-2.5-1.027-3.332c0.448-0.236,0.854-0.418,1.216-0.527
				c0.365-0.115,0.706-0.176,1.025-0.176c0.566,0,0.955,0.17,1.17,0.494c0.212,0.336,0.321,1.061,0.321,2.162
				c0,0.65-0.058,2.277-0.172,4.846c-0.117,2.578-0.171,4.832-0.171,6.756c0,1.256,0.026,2.441,0.089,3.529
				c0.062,1.094,0.143,2.127,0.254,3.074L195.731,101.354z"/>
			<path fill="#FFFFFF" d="M207.621,100.416c-0.468,0.244-0.918,0.441-1.343,0.57c-0.431,0.131-0.836,0.186-1.228,0.186
				c-0.524,0-0.887-0.145-1.082-0.439c-0.193-0.287-0.293-0.854-0.293-1.689c0-0.428,0.044-1.791,0.134-4.061
				c0.093-2.27,0.137-4.348,0.137-6.217c0-2.404-0.073-4.26-0.219-5.555c-0.145-1.293-0.37-2.242-0.695-2.813
				c0.513-0.273,0.97-0.469,1.384-0.596c0.413-0.127,0.799-0.203,1.158-0.203c0.519,0,0.88,0.146,1.094,0.451
				c0.205,0.305,0.312,0.828,0.312,1.607c0,0.115-0.053,1.352-0.156,3.703c-0.105,2.346-0.155,4.662-0.155,6.912
				c0,2.275,0.07,4.035,0.221,5.303C207.037,98.84,207.284,99.779,207.621,100.416z"/>
		</g>
	</g>
	<rect x="10.406" y="70.584" fill="#FFFFFF" width="198.329" height="1.451"/>
	<path fill="#FFFFFF" d="M139.649,56.143c-0.871,0-1.69,0.323-2.308,0.949c-1.111,1.111-1.648,4.801-1.744,5.526l-0.126,0.957
		l0.943-0.141c0.728-0.084,4.433-0.619,5.544-1.727c0.613-0.629,0.951-1.442,0.951-2.325c0-0.856-0.338-1.692-0.951-2.291
		C141.34,56.466,140.522,56.143,139.649,56.143z M140.927,60.667c-0.378,0.386-1.888,0.853-3.732,1.189
		c0.326-1.847,0.801-3.35,1.178-3.748c0.342-0.327,0.795-0.527,1.277-0.527s0.937,0.2,1.277,0.527
		C141.632,58.814,141.632,59.96,140.927,60.667z"/>
	<path fill="#FFFFFF" d="M82.729,63.434l0.943,0.141l-0.126-0.957c-0.098-0.725-0.636-4.416-1.744-5.526
		c-0.615-0.625-1.433-0.948-2.31-0.948c-0.871,0-1.691,0.323-2.308,0.948c-1.273,1.278-1.273,3.341,0,4.616
		C78.295,62.814,81.997,63.35,82.729,63.434z M78.218,58.108c0.34-0.326,0.795-0.525,1.274-0.525c0.484,0,0.939,0.199,1.279,0.525
		c0.379,0.398,0.853,1.9,1.177,3.748c-1.846-0.336-3.351-0.803-3.73-1.189C77.51,59.96,77.51,58.814,78.218,58.108z"/>
	<path fill="#FFFFFF" d="M20.198,68.23h178.748c2.135,0,3.971-0.959,5.166-2.693c1.27-1.863,1.212-4.484-0.146-6.112
		c-0.732-0.884-1.893-1.447-3.103-1.501c-1.144-0.078-2.188,0.293-2.948,1.011c-0.773,0.714-1.178,1.737-1.094,2.719
		c0.081,0.838,0.557,1.641,1.257,2.1c0.211,0.256,0.526,0.41,0.854,0.41c0.606,0,1.098-0.482,1.098-1.098
		c0-0.611-0.491-1.09-1.098-1.09c-0.165,0-0.324,0.045-0.474,0.104c-0.104-0.184-0.163-0.355-0.182-0.555
		c-0.046-0.525,0.196-1.123,0.641-1.538c0.466-0.445,1.13-0.647,1.862-0.619c0.815,0.048,1.587,0.421,2.064,0.985
		c0.953,1.138,0.979,3.015,0.063,4.343c-0.917,1.35-2.323,2.09-3.962,2.09h-18.062c2.829-1.49,4.963-4.102,5.694-7.105
		c0.929-3.806-0.548-8.027-3.591-10.276c-3.167-2.372-7.828-2.34-10.835,0.048c-2.809,2.22-3.799,6.306-2.257,9.294
		c0.826,1.592,2.426,2.789,4.295,3.234c1.528,0.35,3.053,0.166,4.297-0.557c0.654-0.133,1.127-0.703,1.127-1.369
		c0-0.792-0.634-1.411-1.41-1.411c-0.778,0-1.412,0.619-1.412,1.411c0,0.154,0.026,0.311,0.088,0.466
		c-0.738,0.219-1.546,0.232-2.36,0.034c-1.457-0.347-2.699-1.271-3.322-2.473c-1.239-2.388-0.417-5.681,1.86-7.486
		c2.508-1.995,6.404-2.009,9.061-0.038c2.585,1.932,3.833,5.538,3.042,8.789c-0.774,3.143-3.366,5.82-6.613,6.814
		c-2.686,0.813-5.743,0.479-8.175-0.922c-3.133-1.809-5.121-5.134-7.051-8.327l-0.113-0.2c-0.206-0.328-0.409-0.681-0.615-1.003
		c-1.024-1.678-2.188-3.156-3.438-4.353c-1.257-1.335-2.815-2.382-4.637-3.151c-1.076-0.473-2.204-0.79-3.368-1
		c-0.05-0.01-0.091-0.01-0.129-0.006c-1.97-0.32-4.005-0.313-5.969,0.044c0.09-0.074,0.18-0.124,0.271-0.2
		c2.446-1.705,4.182-4.292,4.768-7.067c0.492-2.348-0.12-4.867-1.596-6.568c-1.591-1.844-4.171-2.713-6.431-2.16
		c-1.709,0.423-3.16,1.639-3.887,3.202c-2.243-13.962-14.331-24.354-28.604-24.354S83.208,20.491,80.967,34.453
		c-0.728-1.563-2.178-2.779-3.887-3.202c-2.258-0.553-4.844,0.316-6.432,2.16c-1.477,1.701-2.088,4.22-1.596,6.568
		c0.585,2.775,2.323,5.361,4.771,7.067c0.089,0.076,0.178,0.125,0.27,0.2c-1.969-0.359-4.004-0.364-5.971-0.044
		c-0.03-0.004-0.077-0.006-0.129,0.006c-1.161,0.21-2.292,0.527-3.359,0.998c-1.825,0.77-3.388,1.817-4.635,3.144
		c-1.26,1.206-2.42,2.686-3.448,4.364c-0.23,0.375-0.463,0.75-0.693,1.131l-0.038,0.077c-1.929,3.19-3.919,6.514-7.048,8.322
		c-2.432,1.4-5.49,1.734-8.175,0.922c-3.249-0.994-5.843-3.672-6.614-6.814c-0.794-3.25,0.459-6.857,3.045-8.789
		c2.657-1.971,6.55-1.957,9.057,0.038c2.282,1.805,3.101,5.1,1.865,7.486c-0.625,1.201-1.869,2.126-3.328,2.473
		c-0.812,0.198-1.619,0.185-2.355-0.036c0.056-0.154,0.085-0.311,0.085-0.464c0-0.792-0.631-1.411-1.408-1.411
		s-1.409,0.619-1.409,1.411c0,0.666,0.469,1.236,1.124,1.369c1.243,0.723,2.768,0.906,4.297,0.557
		c1.868-0.445,3.472-1.642,4.291-3.234c1.544-2.989,0.554-7.074-2.255-9.294c-3.005-2.39-7.662-2.419-10.833-0.048
		c-3.043,2.249-4.52,6.468-3.593,10.276c0.733,3.003,2.865,5.615,5.695,7.105H20.198c-1.643,0-3.048-0.74-3.962-2.09
		c-0.917-1.328-0.89-3.205,0.06-4.343c0.48-0.564,1.253-0.938,2.068-0.985c0.732-0.03,1.396,0.172,1.861,0.619
		c0.443,0.415,0.688,1.012,0.64,1.538c-0.017,0.199-0.081,0.371-0.178,0.555c-0.148-0.059-0.312-0.104-0.477-0.104
		c-0.607,0-1.102,0.479-1.102,1.09c0,0.615,0.494,1.098,1.102,1.098c0.329,0,0.644-0.154,0.852-0.41
		c0.701-0.459,1.181-1.262,1.258-2.1c0.085-0.982-0.321-2.005-1.094-2.719c-0.755-0.716-1.8-1.089-2.949-1.011
		c-1.208,0.054-2.367,0.618-3.099,1.501c-1.354,1.627-1.418,4.249-0.146,6.112C16.228,67.271,18.061,68.23,20.198,68.23z
		 M160.831,59.928c-0.279,2.527-1.83,4.787-3.955,5.791c-2.229,1.07-5.016,0.605-6.618-1.074c-1.652-1.75-1.781-4.653-0.278-6.378
		c0.732-0.831,1.91-1.316,3.162-1.316c0.607,0.004,1.188,0.124,1.701,0.349c-0.124,0.226-0.188,0.461-0.188,0.708
		c0,0.788,0.634,1.406,1.404,1.406c0.782,0,1.414-0.618,1.414-1.406c0-0.573-0.352-1.078-0.873-1.301
		c-0.919-0.78-2.143-1.217-3.449-1.224c-0.011,0-0.021,0-0.03,0c-1.647,0-3.231,0.677-4.234,1.829
		c-1.982,2.257-1.84,6.079,0.316,8.342c0.416,0.439,0.908,0.813,1.458,1.133h-32.574c4.682-1.449,8.919-4.053,12.356-7.629
		c0.031-0.024,0.074-0.06,0.116-0.085l0.58-0.617c4.043-4.265,7.537-7.925,12.596-9.415c3.67-1.061,7.657-0.753,10.94,0.835
		c1.081,0.542,2.12,1.268,3.08,2.145c0.357,0.335,0.636,0.636,0.877,0.935C160.29,55.021,161.09,57.546,160.831,59.928z
		 M130.32,58.897l0.003,0.003L130.32,58.897C130.32,58.897,130.32,58.897,130.32,58.897z M162.283,58.009
		c1.96,3.252,4.021,6.547,7.357,8.493c0.17,0.086,0.349,0.174,0.524,0.285h-12.152c2.305-1.326,3.958-3.902,4.267-6.712
		C162.354,59.396,162.355,58.702,162.283,58.009z M82.05,39.072c0-15.173,12.347-27.518,27.523-27.518
		c15.175,0,27.521,12.345,27.521,27.518c0,15.186-12.347,27.531-27.521,27.531C94.396,66.604,82.05,54.258,82.05,39.072z
		 M56.866,60.075c0.31,2.81,1.962,5.386,4.268,6.712H48.978c0.181-0.111,0.354-0.199,0.526-0.285
		c3.334-1.945,5.399-5.24,7.358-8.493C56.79,58.704,56.79,59.396,56.866,60.075z M88.007,58.46l0.578,0.612
		c0.038,0.022,0.077,0.056,0.118,0.087c3.438,3.575,7.674,6.178,12.355,7.627H68.484c0.549-0.32,1.04-0.693,1.455-1.135
		c2.153-2.26,2.299-6.083,0.321-8.34c-1.006-1.151-2.588-1.829-4.265-1.829c-1.306,0.007-2.529,0.443-3.448,1.224
		c-0.527,0.223-0.878,0.728-0.878,1.301c0,0.788,0.632,1.406,1.412,1.406c0.776,0,1.409-0.618,1.409-1.406
		c0-0.247-0.065-0.482-0.188-0.708c0.513-0.225,1.098-0.345,1.723-0.349c1.232,0,2.406,0.485,3.138,1.316
		c1.503,1.725,1.375,4.628-0.277,6.378c-1.603,1.682-4.385,2.145-6.618,1.074c-2.123-1.004-3.676-3.264-3.953-5.791
		c-0.26-2.382,0.539-4.907,2.199-6.973c0.237-0.299,0.517-0.599,0.867-0.927c0.969-0.885,2.008-1.609,3.085-2.151
		c3.28-1.589,7.271-1.896,10.942-0.836C80.471,50.532,83.962,54.191,88.007,58.46z M141.869,41.723
		c1.232,0.203,2.545-0.163,3.603-0.992c0.795-0.608,1.366-1.452,1.612-2.386c0.147-0.22,0.227-0.48,0.227-0.751
		c0-0.79-0.633-1.406-1.408-1.406c-0.778,0-1.411,0.617-1.411,1.406c0,0.54,0.31,1.021,0.777,1.263
		c-0.191,0.274-0.425,0.521-0.695,0.734c-0.744,0.569-1.644,0.839-2.476,0.702c-1.693-0.275-3.052-2.007-2.964-3.79
		c0.086-1.753,1.497-3.39,3.275-3.835c1.743-0.428,3.743,0.246,4.98,1.694c1.187,1.367,1.674,3.405,1.276,5.312
		c-0.514,2.427-2.038,4.684-4.183,6.193c-1.027,0.726-2.037,1.337-3.03,1.963c-1.761,1.083-3.576,2.208-5.51,3.903
		c-0.177,0.151-0.356,0.304-0.536,0.46c2.002-3.929,3.079-8.282,3.143-12.715C139.331,40.684,140.544,41.525,141.869,41.723z
		 M83.201,51.738c-1.939-1.704-3.753-2.825-5.509-3.907c-0.984-0.617-2.004-1.233-3.03-1.963c-2.148-1.509-3.674-3.767-4.182-6.193
		c-0.4-1.907,0.087-3.945,1.272-5.312c0.992-1.157,2.472-1.816,3.916-1.816c0.357,0,0.716,0.038,1.064,0.123
		c1.78,0.445,3.189,2.082,3.276,3.835c0.086,1.782-1.27,3.514-2.965,3.79c-0.831,0.138-1.734-0.132-2.473-0.702
		c-0.273-0.213-0.507-0.459-0.697-0.734c0.466-0.243,0.776-0.724,0.776-1.263c0-0.79-0.633-1.406-1.41-1.406
		s-1.409,0.617-1.409,1.406c0,0.271,0.078,0.532,0.227,0.754c0.248,0.931,0.82,1.774,1.613,2.383
		c1.059,0.829,2.369,1.196,3.604,0.992c1.325-0.198,2.535-1.039,3.317-2.244c0.062,4.433,1.142,8.786,3.143,12.715
		C83.559,52.039,83.38,51.887,83.201,51.738z"/>
	<path fill="#FFFFFF" d="M109.885,63.524"/>
	<path fill="#FFFFFF" d="M102.181,38.192c0.428,0.143,0.952,0.333,1.512,0.613c1.192,0.612,2.772,1.386,3.793,2.347
		c1.005,0.968,1.697,1.962,2.131,3.011c0.705-1.597,1.942-3.044,3.814-4.353c1.762-1.219,3.303-1.897,4.578-1.95
		c0.831-0.146,1.974-0.366,3.114-0.364c0,0-3.465,7.805-1.48,18.994l-0.042,0.073c-0.221,0.676-2.29,1.578-4.021,1.712l0.007-16.4
		c-1.318,0.542-1.919,1.207-2.545,2.041c-0.623,0.832-1.052,1.192-1.36,2.202C111.38,47.162,111.307,47,111.142,48h-0.08h-2.726
		c-0.122,0-0.088,0.575-0.24-0.768c-0.152-1.319-0.566-1.763-1.208-2.958c-0.64-1.186-1.838-1.875-3.155-2.569l0.004,16.445
		c-1.722-0.134-3.772-0.98-4.092-1.637l-0.081-0.053c1.981-11.188-1.414-18.983-1.414-18.983c1.227-0.001,2.339,0.306,3.174,0.461
		C101.325,37.938,101.872,38.063,102.181,38.192z"/>
	<polygon fill="#FFFFFF" points="109.391,4.69 109.808,5.544 110.75,5.689 110.062,6.35 110.216,7.288 109.377,6.84 108.532,7.278 
		108.699,6.338 108.021,5.67 108.964,5.537 	"/>
	<polygon fill="#FFFFFF" points="103.55,5.272 104.115,6.054 105.081,6.036 104.512,6.813 104.832,7.724 103.913,7.423 
		103.145,8.01 103.146,7.041 102.352,6.494 103.273,6.196 	"/>
	<polygon fill="#FFFFFF" points="97.892,6.841 98.606,7.531 99.58,7.337 99.142,8.228 99.627,9.095 98.644,8.955 97.972,9.684 
		97.803,8.707 96.899,8.29 97.776,7.828 	"/>
	<polygon fill="#FFFFFF" points="92.663,9.45 93.458,9.99 94.351,9.639 94.084,10.562 94.691,11.301 93.731,11.333 93.217,12.138 
		92.89,11.238 91.963,10.994 92.72,10.408 	"/>
	<polygon fill="#FFFFFF" points="87.945,12.871 88.816,13.261 89.631,12.77 89.529,13.716 90.254,14.339 89.318,14.532 
		88.951,15.416 88.477,14.59 87.521,14.507 88.163,13.8 	"/>
	<polygon fill="#FFFFFF" points="83.856,17.007 84.806,17.249 85.542,16.599 85.609,17.577 86.452,18.077 85.54,18.437 
		85.328,19.397 84.699,18.645 83.725,18.731 84.246,17.899 	"/>
	<polygon fill="#FFFFFF" points="80.563,21.811 81.536,21.894 82.146,21.122 82.378,22.072 83.291,22.418 82.462,22.93 
		82.416,23.903 81.669,23.283 80.73,23.537 81.099,22.63 	"/>
	<polygon fill="#FFFFFF" points="78.163,27.129 79.113,27.037 79.568,26.202 79.956,27.08 80.891,27.252 80.181,27.887 
		80.304,28.826 79.479,28.36 78.618,28.768 78.818,27.823 	"/>
	<polygon fill="#FFFFFF" points="141.158,26.369 140.495,27.049 140.684,27.976 139.827,27.557 138.995,28.029 139.132,27.091 
		138.433,26.435 139.37,26.275 139.768,25.417 140.213,26.259 	"/>
	<polygon fill="#FFFFFF" points="138.627,21.102 138.079,21.917 138.438,22.816 137.5,22.551 136.749,23.173 136.719,22.195 
		135.896,21.666 136.811,21.347 137.062,20.393 137.656,21.17 	"/>
	<polygon fill="#FFFFFF" points="135.224,16.369 134.821,17.278 135.331,18.116 134.351,18.003 133.708,18.751 133.509,17.787 
		132.603,17.417 133.454,16.917 133.536,15.935 134.265,16.601 	"/>
	<polygon fill="#FFFFFF" points="131.027,12.345 130.794,13.268 131.426,13.987 130.472,14.056 129.984,14.88 129.629,13.984 
		128.697,13.78 129.43,13.164 129.342,12.215 130.153,12.72 	"/>
	<polygon fill="#FFFFFF" points="126.23,9.042 126.158,10.001 126.904,10.595 125.975,10.831 125.637,11.723 125.134,10.906 
		124.177,10.864 124.792,10.131 124.54,9.207 125.425,9.569 	"/>
	<polygon fill="#FFFFFF" points="120.936,6.566 121.037,7.551 121.906,8.025 120.999,8.428 120.815,9.402 120.155,8.661 
		119.176,8.789 119.672,7.934 119.248,7.035 120.219,7.248 	"/>
	<polygon fill="#FFFFFF" points="115.251,5.128 115.513,6.061 116.434,6.369 115.624,6.909 115.612,7.878 114.85,7.278 
		113.931,7.569 114.261,6.659 113.701,5.869 114.672,5.907 	"/>
	<g>
		<path fill="#FFFFFF" d="M109.458,14.895c0,0-2.113,15.214-17.438,21.986c0,0,4.122,6.647,2.632,17.861l-0.414,3.174
			c0,0-10.994-8.141-8.879-21.259C85.359,36.657,88.048,15.181,109.458,14.895z"/>
		<path fill="#FFFFFF" d="M107.844,17.002c0,0-0.13,0.391-0.416,1.042c-0.289,0.659-0.703,1.61-1.296,2.689
			c-0.588,1.076-1.308,2.327-2.18,3.604c-0.429,0.659-0.912,1.284-1.396,1.938c-0.521,0.627-1.019,1.282-1.576,1.901
			c-0.566,0.607-1.104,1.224-1.708,1.771c-0.583,0.57-1.166,1.114-1.778,1.607c-0.3,0.236-0.594,0.476-0.884,0.725
			c-0.292,0.223-0.604,0.424-0.895,0.613c-0.59,0.398-1.125,0.812-1.676,1.093c-0.537,0.309-1.035,0.576-1.475,0.832
			c-0.461,0.188-0.861,0.37-1.194,0.514c-0.663,0.272-1.041,0.432-1.041,0.432s0.358-0.21,0.983-0.548
			c0.313-0.18,0.693-0.388,1.127-0.636c0.414-0.277,0.877-0.592,1.393-0.906c0.525-0.318,1.03-0.756,1.587-1.175
			c0.564-0.407,1.11-0.9,1.681-1.406c0.588-0.481,1.136-1.044,1.707-1.604c0.586-0.547,1.109-1.17,1.66-1.773
			c0.554-0.594,1.049-1.231,1.569-1.85c0.478-0.633,0.985-1.248,1.423-1.86c0.438-0.635,0.884-1.226,1.266-1.805
			c0.401-0.572,0.75-1.135,1.074-1.664c0.64-1.035,1.169-1.917,1.507-2.546C107.659,17.363,107.844,17.002,107.844,17.002z"/>
		<path fill="#FFFFFF" d="M88.397,34.055c0,0,0.309-0.212,0.853-0.594c0.544-0.358,1.297-0.927,2.204-1.589
			c0.908-0.682,1.937-1.495,3.022-2.379c0.553-0.429,1.084-0.933,1.654-1.396c0.551-0.486,1.113-0.984,1.656-1.499
			c0.535-0.517,1.099-1.017,1.603-1.556c0.502-0.531,1.037-1.021,1.487-1.561c0.459-0.531,0.939-1.004,1.332-1.517
			c0.399-0.497,0.815-0.949,1.132-1.417c0.322-0.451,0.631-0.866,0.905-1.237c0.266-0.363,0.466-0.718,0.645-0.995
			c0.36-0.55,0.567-0.868,0.567-0.868s-0.165,0.345-0.45,0.945c-0.152,0.291-0.318,0.655-0.546,1.053
			c-0.235,0.394-0.502,0.843-0.807,1.334c-0.292,0.476-0.681,0.966-1.054,1.496c-0.368,0.536-0.816,1.058-1.272,1.611
			c-0.446,0.555-0.958,1.083-1.467,1.625c-0.506,0.548-1.071,1.048-1.607,1.594c-0.561,0.512-1.132,0.997-1.695,1.496
			c-0.578,0.469-1.14,0.929-1.709,1.355c-1.125,0.873-2.229,1.607-3.176,2.218c-0.95,0.626-1.779,1.088-2.354,1.396
			C88.74,33.893,88.397,34.055,88.397,34.055z"/>
		<path fill="#FFFFFF" d="M87.6,31.67c0,0,1.063-0.83,2.654-2.071c0.798-0.626,1.711-1.361,2.69-2.153
			c0.981-0.778,2.019-1.629,3.038-2.506c1.03-0.86,2.025-1.753,2.957-2.593c0.46-0.428,0.903-0.844,1.322-1.244
			c0.404-0.406,0.79-0.787,1.146-1.141c0.343-0.372,0.655-0.704,0.933-1c0.289-0.29,0.507-0.572,0.698-0.808
			c0.38-0.444,0.599-0.707,0.599-0.707s-0.18,0.285-0.494,0.796c-0.165,0.241-0.352,0.556-0.604,0.876
			c-0.248,0.324-0.52,0.707-0.844,1.104c-0.333,0.379-0.696,0.794-1.075,1.234c-0.4,0.426-0.814,0.878-1.264,1.315
			c-0.46,0.438-0.92,0.913-1.417,1.363c-0.501,0.437-0.997,0.886-1.514,1.318c-1.037,0.872-2.09,1.721-3.113,2.476
			c-1.01,0.747-1.999,1.414-2.833,1.98C88.785,31.026,87.6,31.67,87.6,31.67z"/>
		<path fill="#FFFFFF" d="M90.671,37.351c0,0,0.141,0.234,0.337,0.665c0.206,0.42,0.474,1.021,0.76,1.782
			c0.157,0.367,0.272,0.786,0.411,1.228c0.129,0.444,0.3,0.911,0.402,1.395c0.108,0.505,0.219,1.002,0.332,1.523
			c0.122,0.52,0.195,1.049,0.256,1.576c0.062,0.533,0.168,1.085,0.229,1.607c0.083,0.513,0.102,1.033,0.102,1.554
			c0,0.489,0,0.99,0,1.438c0,0.47-0.082,0.902-0.137,1.301c-0.09,0.797-0.219,1.472-0.28,1.92c-0.068,0.471-0.127,0.727-0.127,0.727
			s-0.017-0.265-0.021-0.727c0.001-0.468-0.019-1.128-0.003-1.938c0.009-0.395,0.017-0.823-0.03-1.284
			c-0.03-0.436-0.061-0.925-0.095-1.411c-0.037-0.502-0.028-1.005-0.111-1.536c-0.063-0.509-0.132-1.024-0.201-1.548
			c-0.051-0.538-0.115-1.052-0.227-1.552c-0.093-0.527-0.183-1.021-0.27-1.52c-0.085-0.476-0.213-0.947-0.307-1.396
			c-0.109-0.436-0.18-0.859-0.293-1.246c-0.209-0.753-0.359-1.419-0.511-1.854C90.76,37.615,90.671,37.351,90.671,37.351z"/>
		<path fill="#FFFFFF" d="M89.423,37.696c0,0,0.075,0.209,0.191,0.575c0.107,0.359,0.279,0.899,0.441,1.534
			c0.17,0.633,0.341,1.383,0.5,2.187c0.157,0.823,0.295,1.679,0.41,2.56c0.097,0.883,0.187,1.764,0.205,2.592
			c0.024,0.414,0.02,0.813,0.008,1.185c0.002,0.379-0.029,0.747-0.06,1.081c-0.019,0.324-0.069,0.63-0.124,0.895
			c-0.046,0.261-0.084,0.507-0.146,0.677c-0.106,0.391-0.177,0.586-0.177,0.586s0.013-0.216,0.047-0.612
			c0.037-0.368,0.036-0.913,0.007-1.554c-0.021-0.662-0.074-1.408-0.155-2.235c-0.029-0.405-0.084-0.823-0.129-1.25
			c-0.038-0.427-0.1-0.853-0.155-1.275c-0.096-0.863-0.223-1.728-0.322-2.538c-0.108-0.824-0.207-1.572-0.292-2.229
			C89.514,38.58,89.423,37.696,89.423,37.696z"/>
		<path fill="#FFFFFF" d="M87.6,37.915c0,0,0.262,0.571,0.52,1.48c0.141,0.451,0.27,0.974,0.393,1.542
			c0.136,0.572,0.209,1.183,0.308,1.801c0.063,0.628,0.113,1.236,0.137,1.826c-0.004,0.591-0.02,1.134-0.049,1.609
			c-0.133,0.932-0.283,1.54-0.283,1.54s-0.079-0.645-0.109-1.541c-0.059-0.465-0.115-0.993-0.157-1.561
			c-0.083-0.57-0.139-1.188-0.214-1.79c-0.078-0.604-0.152-1.221-0.222-1.79c-0.076-0.574-0.129-1.103-0.183-1.568
			C87.64,38.553,87.6,37.915,87.6,37.915z"/>
	</g>
	<g>
		<path fill="#FFFFFF" d="M109.458,14.895c0,0,2.47,15.214,17.795,21.986c0,0-3.941,6.647-2.579,17.861l0.321,3.272
			c0,0,11.032-8.239,8.918-21.357C133.914,36.657,130.867,15.181,109.458,14.895z"/>
		<g>
			<path fill="#FFFFFF" d="M111.48,17.002c0,0,0.188,0.361,0.541,0.989c0.332,0.629,0.86,1.511,1.503,2.546
				c0.324,0.528,0.677,1.091,1.074,1.664c0.382,0.579,0.827,1.17,1.269,1.805c0.439,0.612,0.94,1.227,1.42,1.86
				c0.521,0.618,1.016,1.256,1.569,1.85c0.553,0.603,1.073,1.226,1.66,1.773c0.568,0.561,1.118,1.124,1.708,1.604
				c0.571,0.505,1.115,0.999,1.683,1.406c0.556,0.419,1.06,0.857,1.588,1.175c0.512,0.314,0.978,0.629,1.388,0.906
				c0.438,0.248,0.818,0.456,1.127,0.636c0.631,0.337,0.986,0.548,0.986,0.548s-0.377-0.16-1.041-0.432
				c-0.33-0.144-0.73-0.326-1.193-0.514c-0.439-0.256-0.939-0.523-1.475-0.832c-0.553-0.281-1.088-0.695-1.677-1.093
				c-0.288-0.189-0.603-0.39-0.896-0.613c-0.289-0.25-0.583-0.489-0.884-0.725c-0.61-0.493-1.193-1.037-1.775-1.607
				c-0.601-0.547-1.14-1.163-1.708-1.771c-0.558-0.619-1.057-1.274-1.576-1.901c-0.482-0.654-0.969-1.279-1.396-1.938
				c-0.873-1.277-1.595-2.528-2.185-3.604c-0.59-1.08-1.006-2.03-1.295-2.689C111.61,17.393,111.48,17.002,111.48,17.002z"/>
			<path fill="#FFFFFF" d="M130.929,34.055c0,0-0.342-0.162-0.919-0.484c-0.576-0.309-1.404-0.77-2.353-1.396
				c-0.947-0.611-2.054-1.346-3.179-2.218c-0.568-0.427-1.13-0.886-1.71-1.355c-0.56-0.5-1.136-0.984-1.694-1.496
				c-0.541-0.545-1.102-1.046-1.607-1.594c-0.511-0.542-1.021-1.07-1.469-1.625c-0.455-0.553-0.9-1.076-1.271-1.611
				c-0.373-0.529-0.761-1.02-1.05-1.496c-0.307-0.491-0.573-0.94-0.81-1.334c-0.229-0.397-0.396-0.762-0.546-1.053
				c-0.288-0.6-0.455-0.945-0.455-0.945s0.209,0.318,0.568,0.868c0.183,0.277,0.382,0.632,0.646,0.995
				c0.278,0.372,0.586,0.786,0.906,1.237c0.32,0.468,0.733,0.92,1.132,1.417c0.39,0.512,0.872,0.986,1.331,1.517
				c0.452,0.54,0.986,1.03,1.488,1.561c0.502,0.54,1.066,1.04,1.601,1.556c0.546,0.515,1.106,1.013,1.655,1.499
				c0.568,0.464,1.104,0.968,1.654,1.396c1.089,0.884,2.117,1.697,3.021,2.379c0.909,0.663,1.662,1.231,2.205,1.589
				C130.621,33.843,130.929,34.055,130.929,34.055z"/>
			<path fill="#FFFFFF" d="M131.726,31.67c0,0-1.188-0.644-2.876-1.76c-0.838-0.566-1.82-1.233-2.835-1.98
				c-1.019-0.755-2.074-1.604-3.11-2.476c-0.522-0.432-1.016-0.881-1.516-1.318c-0.496-0.45-0.958-0.925-1.418-1.363
				c-0.448-0.438-0.864-0.889-1.263-1.315c-0.38-0.44-0.74-0.854-1.073-1.234c-0.327-0.398-0.596-0.78-0.846-1.104
				c-0.255-0.32-0.441-0.635-0.605-0.876c-0.311-0.511-0.49-0.796-0.49-0.796s0.216,0.263,0.602,0.707
				c0.187,0.236,0.405,0.519,0.69,0.808c0.278,0.296,0.594,0.629,0.935,1c0.356,0.354,0.741,0.735,1.148,1.141
				c0.417,0.4,0.86,0.816,1.319,1.244c0.933,0.84,1.927,1.733,2.956,2.593c1.019,0.877,2.058,1.728,3.04,2.506
				c0.979,0.792,1.893,1.527,2.69,2.153C130.666,30.84,131.726,31.67,131.726,31.67z"/>
			<path fill="#FFFFFF" d="M128.657,37.351c0,0-0.089,0.264-0.219,0.705c-0.149,0.435-0.299,1.101-0.51,1.854
				c-0.114,0.387-0.183,0.81-0.29,1.246c-0.095,0.45-0.226,0.92-0.31,1.396c-0.085,0.499-0.176,0.992-0.27,1.52
				c-0.111,0.5-0.178,1.015-0.228,1.552c-0.067,0.524-0.135,1.039-0.2,1.548c-0.086,0.53-0.073,1.034-0.113,1.536
				c-0.031,0.486-0.063,0.975-0.094,1.411c-0.045,0.461-0.034,0.889-0.025,1.284c0.013,0.81-0.002,1.47,0,1.938
				c-0.005,0.462-0.017,0.727-0.017,0.727s-0.05-0.256-0.115-0.727c-0.059-0.448-0.167-1.123-0.263-1.92
				c-0.047-0.399-0.108-0.832-0.088-1.301c0.001-0.448,0.001-0.949,0.002-1.438c0.023-0.521-0.029-1.041,0.056-1.554
				c0.058-0.521,0.125-1.074,0.18-1.607c0.065-0.527,0.136-1.056,0.258-1.576c0.114-0.521,0.228-1.018,0.331-1.523
				c0.104-0.484,0.276-0.951,0.404-1.395c0.139-0.442,0.255-0.861,0.411-1.228c0.283-0.76,0.552-1.362,0.763-1.782
				C128.518,37.585,128.657,37.351,128.657,37.351z"/>
			<path fill="#FFFFFF" d="M129.907,37.696c0,0-0.095,0.884-0.252,2.18c-0.084,0.657-0.187,1.405-0.291,2.229
				c-0.1,0.81-0.229,1.675-0.324,2.538c-0.057,0.423-0.114,0.849-0.152,1.275c-0.046,0.427-0.104,0.845-0.131,1.25
				c-0.081,0.827-0.133,1.573-0.157,2.235c-0.027,0.641-0.027,1.186,0.01,1.554c0.035,0.396,0.048,0.612,0.048,0.612
				s-0.071-0.196-0.176-0.586c-0.068-0.17-0.103-0.416-0.145-0.677c-0.059-0.265-0.108-0.571-0.128-0.895
				c-0.033-0.333-0.063-0.701-0.061-1.081c-0.011-0.371-0.017-0.771,0.008-1.185c0.017-0.828,0.108-1.709,0.209-2.592
				c0.114-0.881,0.25-1.737,0.407-2.56c0.158-0.804,0.329-1.554,0.499-2.187c0.162-0.635,0.333-1.175,0.442-1.534
				C129.828,37.906,129.907,37.696,129.907,37.696z"/>
			<path fill="#FFFFFF" d="M131.726,37.915c0,0-0.039,0.639-0.138,1.548c-0.053,0.465-0.109,0.994-0.183,1.568
				c-0.071,0.569-0.148,1.187-0.224,1.79c-0.077,0.602-0.133,1.22-0.21,1.79c-0.047,0.568-0.101,1.096-0.159,1.561
				c-0.033,0.896-0.11,1.541-0.11,1.541s-0.149-0.608-0.282-1.54c-0.03-0.475-0.046-1.018-0.053-1.609
				c0.025-0.59,0.076-1.198,0.14-1.826c0.1-0.618,0.172-1.229,0.309-1.801c0.122-0.568,0.248-1.091,0.389-1.542
				C131.465,38.485,131.726,37.915,131.726,37.915z"/>
		</g>
	</g>
	<path fill="#FFFFFF" d="M109.396,64.139c13.929,0,25.271-11.329,25.271-25.25c0-13.943-11.342-25.277-25.271-25.277
		c-13.934,0-25.271,11.334-25.271,25.277C84.125,52.81,95.463,64.139,109.396,64.139z M85.59,38.888
		c0-13.14,10.679-23.817,23.807-23.817c13.122,0,23.804,10.678,23.804,23.817c0,13.117-10.682,23.801-23.804,23.801
		C96.269,62.689,85.59,52.005,85.59,38.888z"/>
</g>
</svg>
