<?xml version="1.0" encoding="UTF-8" standalone="no"?>
<!DOCTYPE svg  PUBLIC '-//W3C//DTD SVG 1.1//EN'  'http://www.w3.org/Graphics/SVG/1.1/DTD/svg11.dtd'>
<svg version="1.1" xmlns="http://www.w3.org/2000/svg">
<defs>
<font id="VivaldiD" horiz-adv-x="1024">
<font-face descent="-567" underline-thickness="77" cap-height="1365" units-per-em="2048" font-style="italic" x-height="810" font-weight="400" font-family="VivaldiD" ascent="1481" unicode-range="U+0020-02DC" panose-1="3 1 1 1 1 1 1 1 1 1" slope="200" bbox="-802 -586 3214 1851" underline-position="-331"/>
<missing-glyph/>
<glyph horiz-adv-x="512" unicode=" " glyph-name="space"/>
<glyph horiz-adv-x="407" unicode="!" glyph-name="exclam" d="M650 1336q-50 -159 -196 -535t-234 -568q-20 50 -20 109q0 85 23.5 161t153.5 416q102 265 102 311q0 66 -116 67l10 32h23h117q81 0 137 7zM181 114q19 0 32 -13.5t13 -33.5q0 -25 -20.5 -46t-45.5 -21q-20 0 -34 13.5t-14 33.5q0 26 21 46.5t48 20.5z"/>
<glyph horiz-adv-x="352" unicode='&quot;' glyph-name="quotedbl" d="M525 1343q-35 -69 -129 -272l-12 -24h-26t-41 -2q24 50 59 147q27 73 55 147h20q30 0 74 4zM689 1343q-35 -69 -130 -272l-11 -24h-27q-11 0 -40 -2q23 50 59 147q27 73 55 147h20q30 0 74 4z"/>
<glyph horiz-adv-x="819" unicode="#" glyph-name="numbersign" d="M735 851q121 297 121 369q0 55 -96 57v33q15 0 115 1q104 7 121 8q-13 -37 -83 -239q-20 -62 -95 -229h141v-33h-156q-73 -158 -124 -259h172v-33h-190q-136 -259 -333 -526h-53q196 293 314 526h-229q-137 -262 -333 -526h-53q200 300 314 526h-167v33h183 q62 126 116 259h-191v33h205l8 19q113 283 113 350q0 55 -96 57v33q15 0 114 1q104 7 121 8q-13 -36 -83 -239q-20 -63 -94 -229h218zM721 818h-219q-58 -129 -124 -259h227q63 130 116 259z"/>
<glyph horiz-adv-x="874" unicode="$" glyph-name="dollar" d="M1124 1337q-49 -128 -120 -290h-35q38 96 38 138q0 60 -100 60q-170 0 -298 -83q-77 -50 -120 -123.5t-43 -155.5q0 -73 33 -131t121 -139l5 15q89 240 89 298q0 53 -93 55v30q13 1 102 1q92 7 108 8q-66 -214 -167 -442l9 -10q100 -102 122.5 -138.5t22.5 -94.5 q0 -88 -71 -178q-151 -190 -396 -191l-106 -152h-38l101 154q-94 14 -155 53q-101 66 -101 192q0 79 32 146.5t122 179.5q39 -7 68 -7q6 0 32 1q-22 -57 -49 -114q-7 -1 -8 -1l-55 3q-8 1 -26.5 -10t-27.5 -22q-37 -43 -37 -119q0 -91 64 -156.5t174 -87.5q91 132 223 452 q-61 56 -95 92q-95 101 -95 225q0 143 114 282q217 263 585 263q40 0 71 -3zM588 444q-125 -270 -223 -423q21 -1 30 -1q135 0 234 85q84 72 84 154q0 38 -27 78t-98 107z"/>
<glyph horiz-adv-x="1447" unicode="%" glyph-name="percent" d="M1308 1341l-837 -1341l-43 20l839 1339zM1174 526q85 0 140.5 -56.5t55.5 -143.5q0 -104 -106 -221q-119 -132 -233 -132q-93 0 -156.5 60t-63.5 148q0 133 129 244q117 100 234 101zM1127 460q-98 0 -173 -68.5t-75 -158.5q0 -81 50.5 -132t130.5 -51q97 0 165.5 65.5 t68.5 157.5q0 86 -44.5 136t-122.5 51zM724 1392q85 0 140.5 -56.5t55.5 -143.5q0 -104 -106 -221q-119 -132 -233 -132q-93 0 -156.5 60t-63.5 147q0 134 129 245q118 100 234 101zM678 1326q-99 0 -174 -68.5t-75 -158.5q0 -81 50.5 -132t130.5 -51q97 0 165.5 65.5 t68.5 158.5q0 85 -44.5 135t-121.5 51z"/>
<glyph horiz-adv-x="1873" unicode="&amp;" glyph-name="ampersand" d="M1500 689q-32 -83 -58 -128.5t-92 -136.5q8 -8 88 -77q3 0 115 -105q74 -69 106 -91.5t56 -22.5q22 0 46 18t71 70l24 -21q-20 -25 -99 -108q-40 -41 -106 -115q-180 183 -387 366q-74 -71 -158 -130q-311 -219 -609 -219q-186 0 -311 80q-126 80 -126 233q0 137 97 244 q111 122 369 168q90 16 295 25q45 3 67 13t37 35q-242 1 -345.5 46.5t-103.5 150.5q0 153 213 273q182 103 375 103q41 0 90 -6q-49 -106 -97 -265l-31 10q19 57 19 95q0 40 -23 56t-80 16q-99 0 -190 -26q-178 -52 -178 -196q0 -173 250 -215q51 -8 229 -15.5t335 -7.5 q354 0 453 57q50 29 80.5 79t30.5 104q0 28 -11 63q65 -22 65 -85q0 -56 -94 -149q-100 -99 -189.5 -139.5t-222.5 -46.5zM1400 689l-50 1q-480 12 -521 12q-329 0 -474 -71q-87 -42 -134 -111q-47 -70 -47 -151q0 -61 29 -118t78 -92q122 -87 317 -87q181 0 344 77t283 219 q-56 55 -173 129q-144 91 -257 91q-105 0 -166.5 -63t-61.5 -171q0 -29 8 -76q-62 36 -62 101q0 105 144 210q110 80 216 80q94 0 185.5 -43.5t239.5 -159.5q60 77 102 223z"/>
<glyph horiz-adv-x="188" unicode="&apos;" glyph-name="quotesingle" d="M518 1343q-35 -69 -129 -272l-12 -24h-26t-41 -2q24 50 59 147q27 73 55 147h20q30 0 74 4z"/>
<glyph horiz-adv-x="508" unicode="(" glyph-name="parenleft" d="M887 1502l4 -22q-126 -53 -217 -128q-225 -183 -335 -546q-80 -264 -80 -527q0 -204 57 -415q-174 121 -174 483q0 287 127 556q103 217 265 374.5t353 224.5z"/>
<glyph horiz-adv-x="506" unicode=")" glyph-name="parenright" d="M-55 -137l-6 22q281 159 437 514q72 164 115.5 370.5t43.5 384.5q0 142 -28 246q-5 19 -36 102q37 -19 78 -70q99 -121 99 -358q0 -217 -73 -439t-205 -406q-184 -256 -425 -366z"/>
<glyph horiz-adv-x="920" unicode="*" glyph-name="asterisk" d="M686 1059l-11 6l-72 41l-81 45q-68 39 -81 46l56 86l9 -7q121 -97 218 -163l10 51l8 40l19 91l15 76l3 16l99 -28l-4 -10q-46 -123 -85 -247q24 4 82 10q41 5 92 11q65 8 93 10l4 -102q-133 6 -205 6h-74l6 -14l34 -75l39 -84l32 -71l7 -14l-97 -37q-36 135 -79 264 q-18 -17 -37 -34l-30 -28q-54 -49 -68 -63q-44 -40 -69 -63l-64 81q123 80 231 160z"/>
<glyph horiz-adv-x="874" unicode="+" glyph-name="plus" d="M883 615l-23 -56h-313l-121 -314h-55l119 314h-314l23 56h313l120 314h56l-120 -314h315z"/>
<glyph horiz-adv-x="341" unicode="," glyph-name="comma" d="M98 136q1 -20 1 -29q0 -93 -55.5 -196.5t-146.5 -180.5q87 182 90 273z"/>
<glyph horiz-adv-x="311" unicode="-" glyph-name="hyphen" d="M61 466h136q86 1 111 5t66 24q-3 -5 -10 -22q-33 -71 -99 -87q-23 -6 -118 -6h-50q-38 0 -50 -7t-31 -39h-18z"/>
<glyph horiz-adv-x="341" unicode="." glyph-name="period" d="M70 114q19 0 32 -13.5t13 -33.5q0 -25 -20.5 -46t-45.5 -21q-20 0 -34 13.5t-14 33.5q0 26 21 46.5t48 20.5z"/>
<glyph horiz-adv-x="679" unicode="/" glyph-name="slash" d="M-43 -142h-42l1082 1650h45z"/>
<glyph horiz-adv-x="874" unicode="0" glyph-name="zero" d="M806 1343q98 0 149.5 -72t51.5 -208q0 -203 -93 -449q-103 -272 -225 -430q-150 -194 -320 -194q-98 0 -165 78q-62 73 -62 237t56 342q68 220 180 391q111 170 254 257q80 49 174 48zM724 1246q-190 0 -349 -308q-62 -119 -98.5 -268t-36.5 -281q0 -277 187 -277 q124 0 230 120q97 108 171 334.5t74 413.5q0 140 -42 202.5t-136 63.5z"/>
<glyph horiz-adv-x="874" unicode="1" glyph-name="one" d="M507 1180l-6 31q24 5 142 33q164 37 234 74q-29 -68 -98 -259q-263 -721 -412 -1005q-111 -56 -170 -63q71 108 168 321t175 431q110 306 128 360t18 71q0 32 -29 32q-19 0 -76 -12q-53 -10 -74 -14z"/>
<glyph horiz-adv-x="874" unicode="2" glyph-name="two" d="M667 0h-778l48 84q131 68 300 197t301 262q202 201 295 391q49 101 49 158q0 82 -61 139q-60 56 -154 56q-103 0 -178 -79.5t-93 -208.5q-61 30 -61 98q0 117 197 194q115 45 247 45q104 0 165 -59q66 -64 66 -168q0 -75 -47.5 -161.5t-154.5 -204.5q-277 -307 -717 -650 h373q127 2 140 3t37 14q23 14 34.5 27.5t59.5 84.5h51q-90 -137 -119 -222z"/>
<glyph horiz-adv-x="874" unicode="3" glyph-name="three" d="M477 683q87 -10 144 -29q181 -62 181 -244q0 -167 -134 -292q-68 -64 -162 -100t-193 -36q-150 0 -241 75q-51 42 -51 109q0 36 16 85q16 -53 58 -86q96 -77 257 -77q183 0 293 104q104 100 104 238q0 149 -142 193q-110 35 -238 35q-20 0 -72 -5q56 74 96 154 q38 -3 55 -3q91 0 182 28.5t148 75.5q53 44 84.5 100t31.5 108q0 62 -48 103t-123 41q-104 0 -180 -69.5t-101 -186.5q-44 24 -44 77q0 103 158 171q149 63 285 63q98 0 147 -56q37 -44 37 -106q0 -69 -45 -141t-123 -128q-92 -65 -238 -91q-58 -10 -83.5 -30t-58.5 -80z "/>
<glyph horiz-adv-x="874" unicode="4" glyph-name="four" d="M511 1286l-3 33q23 -2 47 -2q95 0 180 7q1 -121 -113 -316q-82 -141 -162 -232.5t-235 -220.5q36 -3 208 -6q114 -1 131 -2l60 166q54 148 94 208.5t121 115.5q52 35 108.5 60.5t84.5 25.5q31 0 31 -42q0 -7 -1 -19q-28 9 -64 9q-80 0 -136 -74.5t-130 -279.5l-63 -174 q24 -2 35 -2q51 0 104 18t77 44q28 30 40 87q37 -16 37 -40q0 -48 -118 -119q-88 -54 -210 -84l-156 -428q-45 -3 -116 -19l165 447q-222 3 -324 3q-30 0 -143 -3q45 60 66 112q89 32 161 103q159 155 261 409q44 111 44 167q0 42 -81 48z"/>
<glyph horiz-adv-x="874" unicode="5" glyph-name="five" d="M1038 1190h-414l-71 -156q-48 -107 -59 -138.5t-11 -65.5q0 -59 49 -123q19 -24 98 -112q85 -95 85 -190q0 -65 -40 -141.5t-110 -146.5q-136 -135 -290 -135q-92 0 -151 41t-59 104q0 50 22 98q12 -55 39 -85q69 -77 204 -77q121 0 206 75q83 73 83 169q0 64 -48 132 q-12 18 -121 147q-54 64 -54 126q0 32 25 98q3 7 34 83q15 37 31 77l138 338q204 10 384 10q45 0 100 -1q-6 -10 -36 -62q-10 -20 -34 -65z"/>
<glyph horiz-adv-x="874" unicode="6" glyph-name="six" d="M1241 1284q-361 -76 -596 -275q-95 -81 -191.5 -204t-163.5 -251q-89 -167 -89 -294q0 -92 52 -148.5t136 -56.5q108 0 195 91q54 57 86 138.5t32 161.5q0 78 -40.5 127t-105.5 49q-157 0 -263 -286q-10 31 -10 57q0 109 110 196q114 89 226 89q90 0 144.5 -52t54.5 -138 q0 -89 -44 -178t-123 -162q-81 -76 -177 -122t-171 -46q-97 0 -157 71.5t-60 187.5q0 108 56 240t154 256q117 148 299.5 286.5t364.5 218.5q148 64 212 64q26 0 69 -20z"/>
<glyph horiz-adv-x="874" unicode="7" glyph-name="seven" d="M1120 1320q-59 -193 -151 -339q-79 -125 -164.5 -213t-297.5 -264q-185 -153 -264 -245.5t-79 -156.5t105 -73q-22 -48 -67 -48q-34 0 -55 26t-21 67q0 58 35.5 144t90.5 161q69 94 191 194q19 16 250 192q274 208 343 437h-392q-97 0 -126 -4.5t-50 -21.5 q-31 -26 -64 -129h-33q67 190 83 273h666z"/>
<glyph horiz-adv-x="874" unicode="8" glyph-name="eight" d="M490 689q-99 121 -99 268q0 139 134 260q130 117 276 117q100 0 159.5 -55t59.5 -147q0 -86 -41.5 -163.5t-111.5 -123.5q-93 -60 -188 -60q-84 0 -84 67v13q53 -43 103 -43q66 0 118 53q90 91 90 224q0 95 -69 139q-47 30 -111 30q-112 0 -185 -87q-54 -66 -54 -160 q0 -77 39 -157t123 -175q27 -30 76 -103q56 -86 56 -184q0 -166 -159 -301q-142 -120 -281 -120q-111 0 -185 73t-74 183q0 114 64 218.5t171 166.5q75 43 173 67zM510 660q-106 -30 -182 -99q-59 -53 -94 -131.5t-35 -158.5q0 -99 58.5 -158t155.5 -59q119 0 188 79 q74 85 74 202q0 119 -92 236q-10 13 -73 89z"/>
<glyph horiz-adv-x="874" unicode="9" glyph-name="nine" d="M780 1023q39 -28 39 -83q0 -93 -112 -210q-100 -105 -211 -105q-88 0 -141.5 57.5t-53.5 152.5q0 198 163 348q67 62 148 98t154 36q103 0 160.5 -76t57.5 -211q0 -187 -102.5 -378t-299.5 -370q-181 -166 -346 -245q-116 -56 -195 -56q-38 0 -52 24q298 62 516 255 q183 163 280 385q88 200 88 360q0 115 -68 180q-56 55 -138 55q-99 0 -167 -72q-101 -107 -101 -267q0 -88 46 -143.5t119 -55.5q91 0 150.5 87.5t65.5 233.5z"/>
<glyph horiz-adv-x="342" unicode=":" glyph-name="colon" d="M167 361q19 0 32 -13.5t13 -33.5q0 -25 -20.5 -46t-45.5 -21q-20 0 -34 13.5t-14 33.5q0 26 21 46.5t48 20.5zM72 115q19 0 32 -13.5t13 -33.5q0 -25 -20.5 -46t-45.5 -21q-20 0 -34 13.5t-14 33.5q0 26 21 46.5t48 20.5z"/>
<glyph horiz-adv-x="341" unicode=";" glyph-name="semicolon" d="M97 136q1 -20 1 -29q0 -93 -55.5 -196.5t-146.5 -180.5q87 182 90 273zM151 361q19 0 32 -13.5t13 -33.5q0 -25 -20.5 -46t-45.5 -21q-20 0 -34 13.5t-14 33.5q0 26 21 46.5t48 20.5z"/>
<glyph unicode="&lt;" glyph-name="less" d="M934 1248v-68l-659 -431l659 -440v-182l-845 563v12z"/>
<glyph horiz-adv-x="874" unicode="=" glyph-name="equal" d="M950 752l-23 -56h-683l23 56h683zM855 478l-23 -56h-684l23 56h684z"/>
<glyph unicode="&gt;" glyph-name="greater" d="M89 127v69l659 431l-659 439v182l845 -563v-12z"/>
<glyph horiz-adv-x="722" unicode="?" glyph-name="question" d="M322 1056h-35q55 125 91 250q137 45 248 45q153 0 237 -68t84 -191q0 -178 -129 -344q-55 -72 -132.5 -122.5t-214.5 -102.5q-94 -36 -136.5 -57.5t-76.5 -50.5q-42 -35 -42 -71q0 -27 25 -45t63 -18q5 0 18 1q-24 -57 -74 -57q-31 0 -51.5 23.5t-20.5 59.5 q0 48 30.5 111.5t77.5 112.5q59 61 145 95q14 6 183 61q162 53 223 143q53 79 53 174q0 113 -83 167q-78 52 -216 52q-165 0 -220 -76q-11 -15 -47 -92zM219 114q19 0 32 -13.5t13 -33.5q0 -25 -20.5 -46t-45.5 -21q-20 0 -34 13.5t-14 33.5q0 26 21 46.5t48 20.5z"/>
<glyph horiz-adv-x="1395" unicode="@" glyph-name="at" d="M1049 210l13 -11q-71 -82 -119 -123q-82 -69 -161 -99t-180 -30q-103 0 -192.5 36t-144.5 100q-88 102 -88 273q0 131 37 276q78 313 296 540q191 199 434 281q132 44 258 44q166 0 268 -85t102 -223q0 -130 -42.5 -265t-114.5 -235q-81 -112 -205 -191.5t-218 -79.5 q-60 0 -93.5 37.5t-33.5 104.5q0 19 5 55q-198 -188 -301 -188q-60 0 -60 76q0 116 99 250q146 197 389 285q125 45 218 45q45 0 45 -27q0 -23 -29 -75q-60 8 -109 8q-243 0 -408 -203q-94 -115 -94 -219q0 -51 34 -51q30 0 85.5 49t109.5 122q94 127 124 279q62 -33 62 -81 q0 -50 -56 -141q38 7 86 30q-30 -65 -41 -85q-34 -65 -34 -93q0 -33 28.5 -58t66.5 -25q153 0 285 189q111 160 111 388q0 176 -114 273q-94 80 -242 80q-91 0 -198.5 -36t-194.5 -96q-172 -119 -298 -346t-148 -461l-4 -69q1 -142 47 -222q96 -165 328 -165q118 0 209.5 38 t182.5 124z"/>
<glyph horiz-adv-x="1683" unicode="A" glyph-name="A" d="M1326 1485l28 -26q-42 -47 -55 -86.5t-13 -118.5q0 -345 152 -821q45 -141 76.5 -202.5t56.5 -61.5q23 0 74 53l25 -24q-98 -105 -189 -216q-91 188 -165 422q-72 229 -102.5 378t-30.5 278q0 83 15 215q-66 -67 -245 -290q-114 -143 -209 -249q55 4 123 4q166 0 332 -7 q-33 -86 -70 -248h-38q14 54 14 85q0 50 -54 57q-35 4 -231 4q-65 0 -176 -4q-252 -246 -321.5 -304.5t-245.5 -175.5q71 6 154 6q131 0 203 -5t273 -28q75 -9 139 -9q111 0 185.5 38.5t117.5 117.5q44 79 55 158q37 -22 37 -59q0 -95 -140 -218q-171 -149 -364 -149 q-70 0 -192 13q-292 31 -492 31l-185 -5h-18l63 101q226 80 419 243q161 135 304.5 292.5t400.5 477.5q206 256 289 333z"/>
<glyph horiz-adv-x="2537" unicode="B" glyph-name="B" d="M1977 926q-20 -27 -62 -79q-21 -25 -61 -77q-71 -90 -112 -136q52 6 273 60q81 20 161 20q77 0 144 -28.5t109 -78.5q63 -76 63 -176q0 -121 -79 -232q-84 -120 -234 -175q-95 -35 -186 -35q-107 0 -197.5 40t-182.5 129q-84 80 -166 173q-131 -115 -233 -184 q-241 -160 -471 -160q-140 0 -266.5 58.5t-201.5 156.5q-113 150 -113 348q0 268 205 422q161 122 351 122q101 0 185 -35.5t174 -116.5q73 -66 281 -318q85 -103 154 -181q63 56 85 84q-49 32 -71 58q-32 36 -53 95.5t-21 112.5q0 49 27.5 76t78.5 27q-65 -73 -65 -138 q0 -56 47 -93t119 -37q8 0 31 2q241 280 343 437q20 28 31 44l35 -11q-19 -33 -19 -79q0 -68 59.5 -131.5t121.5 -63.5q71 0 119 65q43 57 43 140q0 124 -87.5 187.5t-257.5 63.5q-163 0 -693 -67q-240 -31 -361 -31q-99 0 -146 33q40 132 64 236l37 -8q-10 -44 -10 -72 q0 -35 32 -50.5t104 -15.5q86 0 333 33q485 64 662 64q192 0 302 -86q95 -75 95 -214q0 -113 -56 -198.5t-162 -134.5q-81 -38 -110 -38q-63 0 -192 193zM1538 413q87 -97 198 -200q94 -86 170.5 -123t159.5 -37q136 0 241 85q122 98 122 247q0 113 -82 171q-64 45 -148 45 q-53 0 -102 -9t-198 -46q-135 -33 -208 -33q-26 0 -52 5q-9 -9 -49 -51q-43 -45 -52 -54zM1422 358q-68 77 -161 191q-132 162 -207 242.5t-138 127.5q-151 110 -289 110q-145 0 -262 -105q-137 -124 -137 -335q0 -164 113 -306q94 -117 240 -177q117 -47 241 -47 q143 0 288.5 72.5t311.5 226.5z"/>
<glyph horiz-adv-x="1566" unicode="C" glyph-name="C" d="M1044 657q50 -31 50 -111q0 -151 -135 -323q-190 -242 -420 -242q-154 0 -271 101q-134 116 -134 322q0 263 167 509q198 291 553 419q230 83 478 83q127 0 228 -31.5t160 -89.5q82 -81 82 -195q0 -161 -152 -276q-165 -126 -369 -126q-132 0 -460 81q-182 45 -269 45 q-63 0 -129 -24q80 91 110 134q47 4 66 4q76 0 158 -16.5t298 -74.5q235 -64 354 -64q154 0 250 96q72 73 72 169q0 141 -149 225q-151 85 -358 85q-228 0 -449 -98q-260 -114 -413 -367q-123 -202 -123 -417q0 -243 172 -337q97 -53 211 -53q167 0 277 125q78 90 112 193.5 t33 253.5z"/>
<glyph horiz-adv-x="2270" unicode="D" glyph-name="D" d="M839 1475l37 -5q-11 -55 -11 -83q0 -29 36.5 -39.5t140.5 -10.5q73 0 192 10q381 33 500 33q289 0 453 -108q91 -60 140 -158t49 -220q0 -209 -115 -423q-138 -255 -366 -382q-148 -83 -314 -83q-215 0 -367 148q-63 61 -239 342l-9 15q-301 -99 -440 -99q-140 0 -229 75 q-95 81 -95 215q0 171 139 274q120 89 254 89q86 0 160 -53t158 -176q33 -48 150 -252q468 178 984 417l30 14q5 -14 5 -26q0 -65 -73 -269q-67 -186 -67 -222q0 -29 38 -29q19 0 54 11l10 -36q-105 -38 -244 -83q13 96 89 313q54 153 54 178q0 37 -30 37q-18 0 -136 -52 q-421 -185 -694 -285q61 -108 126 -198q195 -274 443 -274q149 0 286 84.5t223 229.5q128 218 128 434q0 146 -84 256q-133 173 -471 173q-100 0 -577 -45q-88 -8 -194 -8q-102 0 -181 28q21 79 54 227zM944 544q-100 166 -148 234q-73 105 -146.5 154.5t-154.5 49.5 q-94 0 -166 -65q-78 -70 -78 -175q0 -120 90.5 -197.5t229.5 -77.5q156 0 373 77z"/>
<glyph horiz-adv-x="2361" unicode="E" glyph-name="E" d="M2118 1365q-28 -87 -73 -251h-38q18 68 18 97q0 32 -23.5 42.5t-96.5 10.5l-30 -1h-224q-55 -233 -92 -312q-53 -127 -124 -196t-213 -133q-83 -37 -129 -51q115 -36 320 -166q135 -86 171 -106q57 72 80.5 132t23.5 136q0 210 -173 285h353l-28 -108h-166 q89 -87 89 -211q0 -127 -114 -272q151 -87 218.5 -113.5t136.5 -26.5q133 0 222.5 93.5t101.5 243.5q39 -27 39 -83t-59 -129.5t-147 -128.5q-138 -86 -163.5 -100t-39.5 -14q-49 0 -177 54t-232 118q-84 -60 -205 -100q-211 -70 -428 -70q-294 0 -502 119q-131 74 -189 209 q-40 91 -40 205q0 260 209 458q176 167 419 270q123 52 235.5 72t277.5 20l178 -1q402 0 614 8zM1545 1262h-215q-252 0 -367 -18q-201 -32 -359 -128q-163 -99 -243 -273q-63 -136 -63 -268q0 -175 105 -312q167 -217 538 -217q319 0 553 165q-23 13 -243 151 q-115 73 -258 118.5t-255 45.5q-55 0 -118 -15q48 53 77 112q26 7 61 7q46 0 169 -17q42 -6 75 -6q113 0 217 59q118 66 192 201t134 395z"/>
<glyph horiz-adv-x="2287" unicode="F" glyph-name="F" d="M2387 734l-72 -241h-37q4 14 7 24q11 36 11 60q0 34 -29.5 43t-138.5 9h-154q-69 -218 -117 -328q-168 -382 -464 -603q-157 -118 -344 -178q-152 -49 -291 -49q-125 0 -249 33.5t-213 90.5q-152 99 -229 263q-63 135 -63 295q0 189 90 323q90 135 274 194q107 35 218 35 q339 0 734 -361q72 -67 239 -237q50 84 50 178q0 147 -126.5 243t-334.5 107q25 42 39 96l709 3l12 39q53 183 90.5 258.5t112.5 148.5q105 105 217.5 168.5t191.5 63.5q27 0 55 -6q-11 -73 -65 -257h-37q18 64 18 89q0 29 -19.5 47t-49.5 18q-66 0 -143 -39.5t-116 -93.5 q-36 -49 -56 -104t-95 -309l-7 -23h382zM1868 629l-457 3q67 -31 117 -78q56 -54 88.5 -120.5t32.5 -130.5q0 -76 -31 -169.5t-86 -184.5q-203 241 -429 426q-156 129 -315 199t-295 70q-167 0 -286 -98q-153 -127 -153 -337q0 -265 192 -442q230 -212 586 -212 q388 0 652.5 274.5t383.5 799.5z"/>
<glyph horiz-adv-x="2176" unicode="G" glyph-name="G" d="M1635 963h613q-77 -359 -234 -660q-190 -367 -489 -588q-327 -242 -695 -242q-236 0 -434 115q-209 121 -300 337q-58 137 -58 298q0 290 182 449q144 126 361 126q179 0 319 -96q114 -79 230 -242q61 -84 255 -392q38 -59 56 -76.5t42 -17.5q32 0 92 31l16 -33l-18 -7 q-109 -48 -202 -92q-80 116 -237 366q-164 261 -277 360q-162 142 -339 142q-170 0 -279 -100q-60 -55 -95 -145.5t-35 -188.5q0 -179 97 -357q114 -211 337 -315q173 -81 372 -81q242 0 463 116q358 188 579 715q143 339 149 542h-185q51 -46 51 -118q0 -148 -172 -294 q-189 -160 -366 -160q-157 0 -251 108q-74 86 -74 213q0 169 87 327q86 153 266 265q234 146 487 146q48 0 102 -6l-67 -237h-37q12 55 12 80q0 38 -36 56t-116 18q-144 0 -261 -53q-169 -76 -252 -249q-68 -143 -68 -289q0 -151 92 -232q77 -68 191 -68q83 0 165 41.5 t129 106.5q63 89 63 191q0 54 -31.5 93.5t-82.5 50.5q-39 9 -117 10v36z"/>
<glyph horiz-adv-x="2927" unicode="H" glyph-name="H" d="M2162 859q-63 -198 -63 -378q0 -229 127 -317q91 -63 218 -63q107 0 197.5 41t149.5 116q86 108 88 278q38 -42 38 -87q0 -51 -41 -129t-106 -152q-150 -171 -369 -171q-221 0 -333 138q-89 112 -89 292q0 187 90 439l-179 15q-79 -214 -217 -388q-216 -272 -457 -390 q-218 -106 -416 -106q-171 0 -324 81q-170 89 -248 256q-51 109 -51 236q0 249 187 390q141 106 330 106q258 0 540 -237q128 -108 232 -246q21 71 21 128q0 103 -54 166t-157 80q16 35 43 109q73 -13 252 -36t254 -28q20 61 38.5 146t18.5 114q0 35 -33 35q-31 0 -91 -26 l-12 32q34 14 142 59q62 25 135 57q-10 -94 -36 -211t-58 -217l184 -16q87 187 207 300t283 184q176 76 344 76q134 0 207 -58q60 -48 60 -121q0 -100 -90 -215q-140 -179 -394 -249q-144 -40 -366 -40q-105 0 -202 7zM2202 967q94 -9 222 -9q196 0 312.5 18.5t212.5 65.5 q84 40 135 107t51 137q0 85 -76 137q-75 50 -191 50q-126 0 -248.5 -49t-210.5 -136q-104 -102 -207 -321zM1791 891l-340 38q74 -77 74 -205q0 -121 -53 -323q-153 196 -301 332q-151 138 -270 197q-150 75 -289 75q-167 0 -277 -120q-92 -100 -92 -248q0 -156 92 -291 q85 -123 228.5 -189t325.5 -66q399 0 661 328q132 164 241 472z"/>
<glyph horiz-adv-x="1898" unicode="I" glyph-name="I" d="M1148 1365h1038q-78 -245 -133 -375q-225 -529 -543 -765q-301 -223 -644 -223q-277 0 -458 138q-100 77 -162 196q-66 128 -66 268q0 99 38 188t106 150q134 119 336 119q200 0 386 -126q98 52 203 52q139 0 227 -99q81 -90 81 -238q0 -79 -21 -145.5t-77 -169.5 q-212 299 -490 507q-138 -129 -138 -334q0 -85 26 -183q-91 67 -91 187q0 186 172 352q-184 138 -348 138q-124 0 -221 -72q-136 -101 -136 -289q0 -144 92 -275q101 -145 310 -215q153 -52 329 -52q316 0 563 191q180 140 310 365.5t237 586.5h-703q-164 0 -202.5 -14.5 t-70.5 -90.5l-37 8q40 101 87 220zM1489 490q26 75 26 137q0 145 -106 242q-80 74 -188 74q-64 0 -139 -31q201 -142 407 -422z"/>
<glyph horiz-adv-x="1914" unicode="J" glyph-name="J" d="M2095 1368q-55 -295 -111.5 -490t-139.5 -373q-147 -318 -365 -577q-223 -265 -454 -372q-175 -80 -351 -80q-191 0 -367 86q-344 167 -344 510q0 246 185 392q184 146 437 146q201 0 439 -89.5t474 -253.5l-111 -74q-201 146 -454.5 241t-442.5 95q-198 0 -337 -113 q-135 -109 -135 -275q0 -122 60.5 -237t165.5 -194q67 -50 171 -84q161 -53 315 -53q571 0 942 722q119 233 180 445q20 70 78 359q28 139 34 175q-51 -7 -85 -7l-103 2q-108 0 -172 -62q-58 -57 -58 -140q0 -62 32.5 -117t116.5 -135q46 -44 64 -75.5t18 -67.5 q0 -44 -23 -98.5t-60 -96.5q-51 -59 -107 -59q-50 0 -82 37t-32 95q0 7 2 23q65 -92 131 -92q41 0 66.5 26.5t25.5 68.5q0 38 -19.5 68t-78.5 84q-66 61 -93.5 119t-27.5 136q0 191 168 316q97 72 220 72q36 0 93 -2q61 -2 85 -2q33 0 50 1z"/>
<glyph horiz-adv-x="2546" unicode="K" glyph-name="K" d="M2594 1371q-315 -311 -446 -438q-240 -232 -309 -303l395 -384q58 -56 89.5 -78t54.5 -22q24 0 47.5 16t83.5 76l27 -24q-50 -59 -224 -220q-162 152 -371 361q-125 125 -192 189l-125 -123q-185 -184 -311 -268q-217 -144 -446 -144q-153 0 -293 66q-185 88 -278 279 q-72 145 -72 312q0 290 206 446q87 65 200.5 101.5t230.5 36.5q181 0 347.5 -84.5t363.5 -277.5q83 254 83 336q0 35 -33 35q-27 0 -108 -33l-15 33q94 41 158 75q148 80 166 88q-114 -444 -185 -594l175 -171l26 25l157 157q280 274 403 411q-56 3 -107 3 q-122 0 -159.5 -6.5t-53.5 -30.5q-17 -24 -49 -119h-43q53 147 87 274q183 -3 320 -3q117 0 200 3zM1723 570l-149 146q-48 -90 -112 -166q-78 -93 -172 -146t-181 -53q-70 0 -118 33.5t-48 82.5q0 31 24 78q22 -136 175 -136q237 0 385 355q-184 178 -329 282 q-199 143 -405 143q-123 0 -231 -46.5t-183 -132.5q-107 -123 -107 -308q0 -249 188 -415q209 -183 482 -183q183 0 331 82t377 311z"/>
<glyph horiz-adv-x="1862" unicode="L" glyph-name="L" d="M627 710q-127 -164 -219 -260q86 50 197 50q107 0 244 -42q36 -11 343 -136q346 -141 409.5 -164.5t94.5 -23.5q43 0 114 65l26 -27q-88 -78 -175 -181q-133 44 -470 189q-330 141 -482 195t-220 54q-60 0 -100 -26.5t-146 -135.5l-21 32q141 147 361 416q-29 3 -51 3 q-105 0 -185 -41q-81 -42 -125 -131q-40 -79 -40 -174q0 -153 130 -249q110 -80 250 -80q112 0 256 85l21 -30q-173 -117 -342 -117q-82 0 -156 30.5t-120 83.5q-81 93 -81 249q0 206 136 351q124 132 316 132q37 0 81 -3q175 220 289 328q147 140 300 212t300 72 q159 0 243 -77q79 -72 79 -184q0 -131 -103 -271q-91 -124 -221 -196q-148 -81 -309 -81q-149 0 -489 62q-93 17 -135 21zM719 820q79 -9 217 -33q292 -51 413 -51q198 0 339 122q122 104 122 242q0 122 -87 198.5t-225 76.5q-115 0 -243 -61.5t-253 -176.5 q-71 -65 -117 -116.5t-166 -200.5z"/>
<glyph horiz-adv-x="2775" unicode="M" glyph-name="M" d="M3172 1388l-79 -263l-37 6q12 44 12 62q0 51 -83 51q-133 0 -251 -166q-60 -84 -99.5 -210.5t-85.5 -381.5q-47 -262 -47 -321q0 -50 44 -50q34 0 95 28l18 -31q-39 -16 -154 -60q-90 -34 -148 -61q4 112 44.5 346t96.5 462q-80 -101 -390 -486l-222 -274l-22 -28l-25 18 q35 68 35 135q0 111 -52 341q-32 137 -36 157q-171 -230 -344 -375q-337 -284 -646 -284q-240 0 -422 148q-193 157 -193 420q0 181 94 310q95 132 282 189q102 30 207 30q150 0 272 -57t316 -217q73 -61 112 -61q40 0 137 54l20 -30l-253 -139q-107 100 -176 152.5 t-176 114.5q-193 111 -355 111q-206 0 -320 -130q-95 -108 -95 -270q0 -179 107 -312q170 -211 505 -211q164 0 311 63t303 201q165 146 305 344q-19 108 -19 181q0 102 29 213t78 197q69 121 134 121q36 0 58 -37.5t22 -100.5q0 -89 -48 -204.5t-159 -293.5q9 -45 44 -182 q58 -228 73 -382q27 34 98 122l467 578q164 204 238.5 279t158.5 122q109 60 221 62zM1865 851q60 105 96.5 213t36.5 182q0 32 -15 53.5t-37 21.5q-41 0 -69 -83.5t-28 -202.5q0 -73 16 -184z"/>
<glyph horiz-adv-x="2487" unicode="N" glyph-name="N" d="M2921 1380l-78 -263l-37 7q13 63 13 90q0 31 -15.5 46t-57.5 24q-46 11 -111 11q-134 0 -242.5 -57t-179.5 -164q-131 -200 -184 -474q33 -22 36 -25q97 -65 119.5 -82.5t42.5 -41.5q50 -63 50 -137q0 -98 -62 -204q-61 -103 -129 -103q-36 0 -69.5 23.5t-53.5 63.5 q-32 65 -32 175q0 114 22 227l-29 20q-168 116 -209.5 146.5t-194.5 151.5q-44 -139 -78.5 -216.5t-89.5 -157.5q-138 -202 -311 -315q-197 -128 -391 -128q-142 0 -270 68q-116 62 -177.5 168.5t-61.5 246.5q0 237 166 361q149 112 351 112q123 0 232.5 -44t230.5 -142 q64 -51 98 -51q18 0 32.5 7t78.5 46l19 -29q-53 -38 -186 -124l-23 -16q-116 118 -231 183q-177 100 -347 100q-153 0 -261 -98q-104 -94 -104 -241q0 -101 41.5 -190.5t115.5 -150.5q149 -123 378 -123q167 0 319 100q141 93 231 246t174 440q-198 171 -295 282 q-113 130 -113 177q0 30 57 141l47 93l36 -14q-38 -81 -38 -116q0 -38 31.5 -84.5t119.5 -139.5q117 -123 196 -193q17 74 52.5 124t89.5 75q-24 -64 -78 -256q136 -118 421 -324q109 369 259 546q109 130 267 187q113 41 227 41q79 0 186 -25zM2002 466q-8 -58 -8 -118 q0 -264 112 -264q41 0 69 36t28 90q0 67 -39.5 117.5t-161.5 138.5z"/>
<glyph horiz-adv-x="1848" unicode="O" glyph-name="O" d="M1685 1367l-90 -249q99 -28 166 -69q155 -94 155 -290q0 -192 -130 -373q-163 -226 -461 -334q-193 -70 -407 -70q-359 0 -567 181q-160 138 -160 379q0 243 164 442q91 111 248.5 201t351.5 143q219 59 476 59q138 0 254 -20zM1577 1073q-96 -235 -252 -381 q-235 -219 -528 -219l-95 1q-44 0 -94 -24q9 17 37 74q27 53 57 62t187 9q250 0 391.5 110t240.5 382q-98 22 -183 22q-211 0 -356.5 -102t-191.5 -283q-23 35 -23 77q0 105 91 193q88 85 263 126q118 28 234 28q63 0 183 -15l45 149q-182 26 -319 26q-235 0 -430 -59 q-273 -84 -408 -324q-97 -172 -97 -367q0 -271 203 -405q189 -125 460 -125q235 0 425 107q214 121 309 339q56 129 56 266q0 127 -56.5 218.5t-148.5 114.5z"/>
<glyph horiz-adv-x="1919" unicode="P" glyph-name="P" d="M1161 815l-407 -603q156 109 301 109q84 0 163.5 -25.5t360.5 -141.5q83 -34 113 -34q55 0 131 111l31 -19q-10 -16 -77 -111q-65 -102 -78 -120q-81 18 -236 88q-196 89 -305.5 122t-209.5 33q-108 0 -182.5 -48t-150.5 -165l-30 21l206 311q-123 154 -123 345 q0 167 107 287q102 114 227 114q114 0 208 -113q5 9 36 62q37 62 37 103q0 18 -13 36q17 1 74 3q17 0 73 8q-18 -23 -87 -129q-35 -55 -86 -126q9 -13 68 -95q146 -201 329 -201q138 0 233 140q79 117 79 241q0 119 -80.5 176t-248.5 57q-143 0 -818 -53q-97 -8 -190 -8 q-202 0 -271 47l77 281l35 -9q-16 -75 -16 -103q0 -48 43 -67.5t151 -19.5q164 0 486 26q363 29 511 29q115 0 188.5 -17.5t128.5 -57.5q47 -34 74.5 -92t27.5 -122q0 -124 -71 -249q-73 -127 -182 -194.5t-243 -67.5q-120 0 -200.5 49t-193.5 192zM1130 855 q-56 77 -102 109.5t-99 32.5q-84 0 -141 -66q-58 -66 -58 -169q0 -77 30.5 -145t106.5 -158z"/>
<glyph horiz-adv-x="2044" unicode="Q" glyph-name="Q" d="M1686 1373q-36 -132 -92 -250q84 -24 145 -58q175 -96 175 -305q0 -251 -233 -490q172 -144 205 -144q23 0 65 40q36 34 45 41l28 -21q-33 -35 -102 -100q-63 -61 -103 -100q-174 149 -242 201q-130 -96 -305.5 -150t-355.5 -54q-336 0 -540 155q-94 72 -142 189 q-42 100 -42 217q0 262 184 467q196 216 571 318q228 62 480 62q124 0 259 -18zM1575 1078q-85 -163 -186 -273q-140 -145 -338 -209q317 -88 572 -284q73 85 116 199.5t43 224.5q0 131 -54 220.5t-153 121.5zM1563 1287q-129 22 -291 22q-434 0 -660 -170 q-160 -121 -234 -308q-50 -129 -50 -265q0 -238 157 -377q83 -73 217 -115.5t282 -42.5q160 0 301.5 48.5t247.5 138.5q-185 141 -381.5 221t-353.5 80q-69 0 -129 -14q67 77 98 127q75 -5 108 -5q307 0 486 213q93 111 149 253q-93 19 -172 19q-213 0 -362.5 -106.5 t-186.5 -283.5q-23 34 -23 80q0 95 73 175q87 96 273 144q120 31 246 31q73 0 168 -14q24 67 37 149z"/>
<glyph horiz-adv-x="2286" unicode="R" glyph-name="R" d="M1601 709l-40 -99q159 -135 372 -350q103 -102 131.5 -125.5t51.5 -23.5q36 0 108 55l25 -29q-138 -114 -209 -164q-400 408 -537 526q-117 -205 -296 -331q-273 -194 -532 -194q-152 0 -276 67q-131 69 -193 204q-47 102 -47 224q0 259 195 476q234 259 639 372 q308 86 650 86q328 0 495 -96q55 -31 85.5 -80.5t30.5 -107.5q0 -182 -241 -275q-118 -44 -147 -135q-69 4 -143 4q-67 0 -122 -4zM1448 1091q189 38 295 76q-49 -206 -98 -343q57 -3 81 -3q169 0 267 62q54 34 87.5 94t33.5 123q0 132 -155 191q-154 59 -405 59 q-323 0 -589 -78q-248 -74 -435 -250q-244 -229 -244 -516q0 -193 115 -309q143 -146 364 -146q177 0 351 103q101 60 174.5 152.5t147.5 252.5q-169 152 -324 152q-145 0 -231 -106q-68 -84 -68 -198q0 -35 10 -83q-77 42 -77 115q0 131 193 265q148 104 265 104 q106 0 205 -74q69 -52 78 -58q35 79 66 185.5t31 146.5q0 56 -67 56q-21 0 -62 -8z"/>
<glyph horiz-adv-x="2468" unicode="S" glyph-name="S" d="M2387 1179l13 -33q-109 -52 -276 -115q6 33 12 85q8 57 9 71q6 42 6 71q0 60 -58 60q-46 0 -118 -29t-129 -71q-69 -51 -108 -115t-39 -126q0 -54 46.5 -69.5t206.5 -15.5q3 25 3 44q0 85 -24 149q100 -24 100 -173v-20q115 3 157 3q109 0 154 -16q149 -53 149 -217 q0 -136 -72 -280q-97 -195 -269 -301q-146 -89 -305 -89q-211 0 -321 169q-114 -71 -256.5 -113.5t-268.5 -42.5q-248 0 -437 126q-148 99 -221 259q-71 158 -71 344q0 286 147 474q149 191 400 191q144 0 270.5 -64t210.5 -180q65 -89 103.5 -193.5t140.5 -470.5 q45 -158 74 -221q99 60 198.5 214.5t122.5 285.5q-34 -1 -46 -1q-165 0 -240 29q-64 25 -64 91q0 74 63.5 174.5t156.5 173.5q96 76 202.5 116t302.5 74q-42 -197 -42 -248q0 -29 27 -29q14 0 32 7q39 15 58 22zM2013 771q-33 -136 -142.5 -292t-238.5 -247q32 -67 58 -99 q74 -91 199 -91q87 0 173 36t153 99q87 84 135 211q34 91 34 178q0 99 -50 147t-160 55q-44 3 -114 3h-47zM1507 196q-36 80 -55.5 142t-95.5 343q-98 362 -244 528q-123 140 -323 140q-114 0 -206.5 -47t-146.5 -133q-40 -62 -63.5 -155t-23.5 -186q0 -146 54 -286.5 t149 -241.5q102 -108 238.5 -167.5t285.5 -59.5q210 0 431 123z"/>
<glyph horiz-adv-x="1853" unicode="T" glyph-name="T" d="M1214 1233q-165 -86 -285 -262q-77 -113 -123.5 -254t-46.5 -263q0 -158 96 -242q121 -105 340 -105q174 0 314.5 68.5t224.5 195.5q94 140 116 316q26 -55 26 -102q0 -147 -200 -340q-122 -118 -244 -182q-131 -67 -280 -67q-226 0 -382 120q-135 104 -135 303 q0 203 108 406q71 136 167.5 233.5t248.5 188.5q-250 71 -393 71q-208 0 -335 -132q-117 -121 -117 -312q0 -75 24 -168q-94 60 -94 172q0 167 169 341q199 206 430 206q163 0 483 -98q19 6 158 54q176 60 356 60q139 0 230 -40q44 -19 71 -53.5t27 -71.5q0 -51 -42 -85.5 t-134 -59.5q-110 -29 -156 -62l-30 8q-255 62 -305 76q-248 70 -287 80zM1393 1310q142 -46 325 -86.5t252 -40.5q64 0 107 21t43 53q0 55 -95.5 95t-224.5 40q-94 0 -206.5 -22.5t-200.5 -59.5z"/>
<glyph horiz-adv-x="2529" unicode="U" glyph-name="U" d="M1912 434q-54 -165 -132 -302q25 2 33 2q18 0 176 -6l134 -6q146 0 250 113q105 114 105 289q0 26 -3 64q47 -38 47 -109q0 -102 -78 -215q-77 -113 -188 -177.5t-228 -64.5q-52 0 -129 9q-173 20 -236 20q76 183 95 262q-53 -37 -112 -79q-138 -98 -323 -175 q-131 -55 -211 -55q-71 0 -114.5 36.5t-43.5 95.5q0 57 22.5 125t153.5 400q180 456 180 556q0 48 -45.5 70.5t-145.5 22.5q-198 0 -394 -75q-119 -45 -216 -129.5t-152 -190.5q-80 -153 -80 -324q0 -71 23 -188q-102 86 -102 260q0 207 161 381q87 93 224.5 166.5 t300.5 114.5q163 40 406 40q119 0 207 -8q-23 -106 -95.5 -320.5t-156.5 -420.5q-112 -275 -136 -343t-24 -111t28.5 -69t74.5 -26q106 0 353 151q161 98 241 161q32 95 87 304q74 280 152 411q108 182 247 264q89 53 156 53q45 0 72 -34.5t27 -92.5q0 -199 -242 -488 q-83 -99 -151 -165.5t-218 -196.5zM1936 507q181 144 311 326q80 111 129 228t49 197q0 43 -17 68.5t-45 25.5q-50 0 -110.5 -67.5t-118.5 -188.5q-43 -89 -78.5 -194t-119.5 -395z"/>
<glyph horiz-adv-x="2357" unicode="V" glyph-name="V" d="M2707 1373q-46 -102 -127.5 -207t-189.5 -199q-9 -116 -103 -238.5t-372 -379.5q-139 -128 -193 -183t-168 -184q12 109 12 227q0 177 -19 326q-142 -56 -239 -143q-106 -95 -106 -220q0 -65 39 -140q-107 9 -107 118q0 117 112 238t295 204q-42 358 -187 562 q-107 150 -254 222q-124 62 -256 62q-218 0 -360 -161q-137 -154 -137 -377q0 -189 103 -331q98 -136 269 -195q103 -35 200 -35q66 0 139 21l6 -18q-117 -60 -237 -60q-197 0 -346 132q-188 168 -188 440q0 201 103 370q95 158 265 236q131 60 269 60q236 0 422 -163 q238 -209 311 -715q21 8 225 78q132 47 211.5 88t185.5 119q-9 66 -50.5 125t-109.5 102q-74 48 -153 70t-240 40q49 41 91 102q90 -7 261 -7q421 0 623 14zM2585 1289q-31 -1 -225 -4l-183 -3h-41q117 -49 180 -116t72 -153q128 113 197 276zM2275 870q-152 -130 -326 -201 q-192 -64 -280 -92q7 -78 7 -186q0 -129 -9 -226q66 69 244 237q185 175 261 272.5t103 195.5z"/>
<glyph horiz-adv-x="2817" unicode="W" glyph-name="W" d="M2504 691q-100 -150 -290.5 -364t-365.5 -375q1 68 1 95q0 286 -42 576q-49 -59 -122 -145q-115 -136 -297 -367q-100 -127 -119 -148q-2 318 -32 672q-13 159 -25.5 201t-48.5 42q-24 0 -74 -27l-18 33q15 9 121 69q31 18 121 74q55 -270 59 -869q40 45 174 213 q95 119 252 300l-4 20q-134 1 -205 -55.5t-78 -168.5q-26 22 -26 55q0 42 41 98t101 96q69 45 147 55q-67 205 -201 336q-119 116 -278 173q-132 47 -276 47q-126 0 -245.5 -35t-204.5 -96q-116 -84 -183 -207q-75 -139 -75 -308q0 -203 105 -364q108 -164 295 -230 q100 -35 203 -35q48 0 103 9l6 -19q-90 -31 -212 -31q-199 0 -346 99q-119 80 -181 204q-71 142 -71 307q0 243 141 432q143 191 399 277q159 54 337 54q264 0 459 -118q133 -81 214.5 -199t128.5 -296q143 157 260 267q385 361 711 361q120 0 192 -73q55 -56 55 -135 q0 -101 -66.5 -197.5t-187.5 -171.5q-149 -92 -352 -131zM2458 753q41 76 41 127q0 35 -20 45.5t-91 14.5v36h255q-19 -99 -94 -214q195 35 287 94q77 50 123 126t46 153q0 82 -60 133.5t-156 51.5q-356 0 -846 -550q237 -20 414 -20q47 0 101 3zM2422 681q-98 -8 -194 -8 q-100 0 -320 18q50 -206 50 -542v-34q127 118 261.5 282.5t202.5 283.5z"/>
<glyph horiz-adv-x="2459" unicode="X" glyph-name="X" d="M1692 717q71 -233 155 -437q35 -86 60 -118.5t56 -32.5q25 0 97 49l22 -29l-13 -9q-153 -110 -222 -155q-57 96 -120 257t-125 369l-21 -27q-150 -190 -205 -250.5t-145 -134.5q-261 -216 -546 -216q-246 0 -398 149q-150 146 -150 371q0 211 127 332t326 121 q255 0 507 -242q66 -63 191 -209q46 53 46 105q0 51 -32.5 86t-90.5 46q-32 7 -96 10q37 34 76 110q170 -16 343 -30q-42 143 -102 309q-48 133 -97 133q-30 0 -83 -46l-23 31q102 65 204 160q63 -103 98 -194t119 -373l9 -28l42 -4q17 22 115 150q179 231 331 330 q176 114 362 114q129 0 198 -61q59 -52 59 -138q0 -102 -79.5 -199.5t-218.5 -166.5q-272 -133 -691 -133q-31 0 -85 1zM1744 818q158 -7 254 -7q341 0 529 117q66 42 105.5 106t39.5 130q0 78 -61.5 125t-164.5 47q-116 0 -220.5 -48.5t-212.5 -153.5q-95 -91 -269 -316z M1568 722l-18 1q-138 7 -220 15q44 -66 44 -118q0 -55 -34 -108t-116 -123q-168 200 -273 297q-224 207 -430 207q-143 0 -235 -88q-96 -92 -96 -245q0 -211 166 -350q151 -126 384 -126q280 0 492 173q89 72 164 156t193 242z"/>
<glyph horiz-adv-x="2661" unicode="Y" glyph-name="Y" d="M1724 591q-148 -240 -230 -388q-2 -13 -7 -73q-6 -56 -7 -75q-59 -23 -78.5 -36.5t-40.5 -43.5q-33 -49 -55 -126t-22 -145q0 -63 23.5 -96t83.5 -54l-51 -140q-128 47 -128 218q0 74 24.5 153.5t87.5 205.5q23 46 29.5 66.5t11.5 59.5q15 121 15 227l-1 223v22 q-116 -26 -198 -95q-140 -118 -140 -301q0 -83 26 -142.5t90 -121.5q-22 -4 -31 -4q-59 0 -102 55q-45 57 -45 151q0 154 91 295q98 152 303 240q-21 211 -76 331q-74 161 -214 244q-122 73 -260 73q-149 0 -278 -82q-118 -74 -174 -204q-42 -99 -42 -217q0 -261 191 -456 q120 -123 268 -159v-19q-176 2 -300 87q-120 82 -181 222q-52 121 -52 254q0 250 161 434q182 206 468 206q242 0 400 -146q182 -167 216 -537q59 5 100 5q49 0 143 -10q207 308 359 456q276 267 576 267q143 0 215 -73q59 -60 59 -148q0 -130 -101 -267 q-138 -188 -410 -289q-183 -69 -423 -69q-90 0 -222 14q-50 5 -72 8zM1785 688q200 -22 342 -22q296 0 476 96q122 65 193.5 159t71.5 191q0 95 -64 152q-73 67 -198 67q-404 0 -821 -643zM1680 595q-100 11 -130 11q-18 0 -44 -3v-53q0 -133 -10 -261q14 22 93 154 q80 133 91 152z"/>
<glyph horiz-adv-x="2035" unicode="Z" glyph-name="Z" d="M1477 876q-18 -67 -33 -122q-23 -82 -33 -122h-37q9 49 9 79q0 39 -22.5 52.5t-90.5 15.5q-78 1 -224 12q-12 -13 -92 -95l-101 -104q-155 -159 -180 -186q249 168 421 168q198 0 498 -189q136 82 216 82q42 0 68.5 -18.5t50.5 -63.5q-61 23 -116 23q-96 0 -177 -51 q65 -43 186 -132t192 -146q-21 -17 -53 -42q-40 -31 -62 -48q-58 53 -191.5 153t-200.5 140q-50 -34 -160 -125q-226 -187 -341 -253q-173 -101 -352 -101q-175 0 -328 87q-245 139 -245 427q0 184 103 333q109 157 311 220q131 41 281 41q123 0 316 -19l98 103 q-185 186 -238 186q-42 0 -58 -129l-40 3l72 365q285 -277 382 -308q143 141 194 177q104 73 181 73q30 0 50.5 -19t20.5 -46q0 -34 -27.5 -75t-73.5 -74q-108 -80 -269 -91q-65 -5 -103.5 -31.5t-139.5 -136.5q185 -14 245 -14l81 1h12zM1351 1103q26 -4 46 -4q96 0 187 66 q58 42 58 77q0 31 -41 31q-88 0 -250 -170zM1469 304q-117 76 -253 129t-216 53q-156 0 -382 -160q-159 -113 -289 -248l-28 31q165 146 324 303.5t370 383.5q-225 28 -347 28q-119 0 -201 -26.5t-157 -89.5q-160 -134 -160 -327q0 -143 91 -272q144 -204 451 -204 q166 0 298 55t311 199q121 98 188 145z"/>
<glyph horiz-adv-x="688" unicode="[" glyph-name="bracketleft" d="M678 1502q26 -1 85 -1h77l157 2q4 0 32 -1q-6 -11 -19 -34l-7 -12h-235l-43 -114l-31 -85q-79 -222 -159 -441q-43 -116 -97 -266q-78 -217 -162 -440q-28 -77 -67 -200h242q-7 -11 -13 -24q-5 -10 -12 -22q-22 -1 -25 -1l-156 1l-78 1q-40 1 -51 1q-8 0 -34 -2 q35 116 152 420q145 376 290 798q106 306 154 420z"/>
<glyph horiz-adv-x="679" unicode="\" glyph-name="backslash" d="M445 1508l82 -1650h-35l-86 1650h39z"/>
<glyph horiz-adv-x="819" unicode="]" glyph-name="bracketright" d="M813 1456h-225l12 24q5 10 10 19q103 2 240 2q60 0 85 -1q-40 -124 -151 -418q-184 -485 -291 -798q-107 -311 -154 -420q-25 2 -33 2l-51 -1l-78 -1l-157 -1q-2 0 -25 1q6 12 14 23t15 23h222q56 136 139 372q28 85 58 161q20 54 39 107q48 131 97 266q78 215 162 441 q42 115 72 199z"/>
<glyph unicode="^" glyph-name="asciicircum" d="M1073 588h-68l-431 659l-440 -659h-182l563 845h12z"/>
<glyph unicode="_" glyph-name="underscore" d="M51 -179h922v-77h-922v77z"/>
<glyph unicode="`" glyph-name="grave" d="M597 1204q100 -28 178 -125.5t97 -217.5q-56 93 -134.5 159.5t-169.5 96.5z"/>
<glyph horiz-adv-x="768" unicode="a" glyph-name="a" d="M680 153l18 -26q-49 -37 -125.5 -70t-161.5 -54q-4 79 118 348q-122 -146 -248 -239q-151 -113 -233 -113q-70 0 -70 89q0 96 58 208t159 212q247 245 563 307q84 17 150 17q33 0 33 -24q0 -22 -29 -76q-69 12 -142 12q-168 0 -307 -75q-207 -111 -315 -309 q-55 -100 -55 -194q0 -84 59 -84q40 0 114 61t146 153q144 186 191 401q43 -26 43 -94q0 -99 -98 -224q46 3 118 27q-103 -230 -103 -266q0 -27 27 -27q20 0 90 40z"/>
<glyph horiz-adv-x="756" unicode="b" glyph-name="b" d="M601 1375q-6 -73 -81 -282.5t-211 -530.5q109 118 237.5 192.5t222.5 74.5q90 0 90 -97q0 -56 -35.5 -139t-91.5 -158q-98 -131 -258.5 -245t-308.5 -158q-105 -31 -206 -32q199 461 337.5 813t138.5 395q0 30 -36 30q-22 0 -71 -18l-11 31q115 38 284 124zM109 100 q26 -4 47 -4q101 0 204 59.5t185 163.5q70 91 116.5 192.5t46.5 165.5q0 69 -66 69q-114 0 -274.5 -194.5t-258.5 -451.5z"/>
<glyph horiz-adv-x="606" unicode="c" glyph-name="c" d="M736 841l-141 -263h-35q43 91 43 122q0 36 -71 36t-122 -27t-100 -90q-79 -104 -130 -222.5t-51 -200.5q0 -53 26 -83t72 -30q151 0 284 190q24 33 84 146q11 -19 11 -39q0 -97 -154 -234q-177 -158 -319 -158q-133 0 -133 149t108 314q116 176 277.5 284t309.5 108 q12 0 41 -2z"/>
<glyph horiz-adv-x="799" unicode="d" glyph-name="d" d="M1051 1371q-3 -47 -27 -116.5t-141 -362.5l-29 -72q61 -23 65 -98q-32 12 -96 17l-7 -18q-164 -418 -191.5 -492t-27.5 -98q0 -27 27 -27q26 0 102 45l19 -24q-102 -73 -302 -130q28 108 44.5 156.5t68.5 176.5q27 63 109 278q46 118 55 139q-143 -5 -283 -82 q-152 -83 -248.5 -219t-96.5 -267q0 -84 62 -84q66 0 164.5 95t168.5 228q53 101 89 220q17 -37 17 -74q0 -87 -70.5 -197t-192.5 -214q-81 -69 -157 -110.5t-121 -41.5q-77 0 -77 91q0 96 63.5 215.5t171.5 225.5q242 238 540 289q90 231 111 290t21 83q0 40 -43 40 q-26 0 -58 -13l-12 30q185 68 282 121z"/>
<glyph horiz-adv-x="594" unicode="e" glyph-name="e" d="M567 442q15 -27 15 -48q0 -106 -153 -240q-188 -165 -311 -165q-54 0 -85 35.5t-31 97.5q0 79 37.5 188.5t93.5 194.5q126 191 339 290q94 44 169 44q76 0 76 -58q0 -42 -45 -100.5t-108 -101.5q-53 -34 -127 -62.5t-113 -28.5q-47 0 -66 52q43 -6 68 -6q106 0 185 58 q38 27 61 61.5t23 63.5q0 21 -17.5 34t-44.5 13q-124 0 -246 -161q-77 -100 -123 -216.5t-46 -211.5q0 -102 86 -102q94 0 195.5 103.5t167.5 265.5z"/>
<glyph horiz-adv-x="390" unicode="f" glyph-name="f" d="M563 809l-10 -31h-162l-271 -768q-38 0 -51.5 -9.5t-30.5 -47.5q-63 -149 -117 -246q-64 -116 -158 -190t-176 -74q-41 0 -68.5 21t-27.5 53q0 10 5 29q52 -13 104 -13q102 0 178.5 57t141.5 182q57 109 110.5 257t242.5 715l11 34h-111l11 27q10 1 40 3q41 2 66.5 24.5 t49.5 77.5q58 131 125 207t191 151q163 99 268 99q67 0 67 -29q0 -11 -19 -66l-47 -139h-33q20 60 20 89q0 55 -90 55q-96 0 -176 -55q-74 -50 -123.5 -134.5t-120.5 -278.5h161z"/>
<glyph horiz-adv-x="771" unicode="g" glyph-name="g" d="M641 360q-54 -181 -121 -342t-126 -250q-99 -153 -253 -246q-148 -90 -262 -90q-53 0 -86 26t-33 68q0 21 11 47q86 -72 189 -72q224 0 378 322q40 84 90.5 229t80.5 265q-130 -145 -252 -234.5t-191 -89.5q-86 0 -86 107q0 78 45 173.5t127 190.5q148 173 339.5 269 t386.5 96q39 0 53 -7.5t14 -28.5q0 -17 -21 -69q-54 9 -122 9q-214 0 -353 -67q-187 -90 -298 -298q-60 -112 -60 -195q0 -42 17 -68t45 -26q55 0 146.5 84t167.5 205q96 151 120 287q41 -38 41 -90q0 -85 -99 -222l12 2l42 6q45 7 58 9z"/>
<glyph horiz-adv-x="770" unicode="h" glyph-name="h" d="M685 142l18 -26q-100 -55 -279 -118q6 86 55 220t161 374q32 67 32 94q0 29 -23 29q-30 0 -104.5 -62t-145.5 -147q-88 -103 -171.5 -231.5t-124.5 -222.5q-72 -8 -130 -40q87 205 254 631q140 348 172.5 438t32.5 127t-32 37q-15 0 -72 -20l-10 29q122 41 258 116 q1 -19 1 -28q0 -84 -56 -238t-302 -746l-12 -28q141 174 201 239.5t140 130.5q151 125 225 125q46 0 46 -46q0 -28 -12 -59.5t-86 -193.5q-157 -346 -157 -401q0 -22 23 -22q27 0 98 39z"/>
<glyph horiz-adv-x="365" unicode="i" glyph-name="i" d="M418 855v-11q0 -61 -34.5 -155.5t-163.5 -384.5q-61 -138 -61 -166t32 -28q19 0 68 21l13 -29q-188 -88 -251 -107q5 94 30 172t111 265q110 242 110 277q0 30 -26 30q-23 0 -95 -29l-10 32q133 48 277 113zM477 1111q19 0 32 -13.5t13 -33.5q0 -25 -20.5 -46t-45.5 -21 q-20 0 -34 13.5t-14 33.5q0 26 21 46.5t48 20.5z"/>
<glyph horiz-adv-x="333" unicode="j" glyph-name="j" d="M447 860q-190 -618 -477 -992q-179 -234 -418 -360q-136 -71 -228 -71q-54 0 -90 28t-36 70q0 15 6 35q80 -56 170 -56q131 0 271 90q251 162 493 731q126 295 126 362q0 43 -44 43q-21 0 -53 -8l-5 31q188 52 285 97zM507 1111q20 0 32.5 -12.5t12.5 -32.5 q0 -26 -20.5 -47.5t-45.5 -21.5q-20 0 -34 13.5t-14 33.5q0 26 21 46.5t48 20.5z"/>
<glyph horiz-adv-x="775" unicode="k" glyph-name="k" d="M407 414q51 -8 84.5 -44t33.5 -82q0 -25 -27 -122q-6 -23 -6 -41q0 -23 15 -38.5t36 -15.5q30 0 64.5 33.5t60.5 87.5q16 33 32 91q20 -30 20 -58q0 -67 -89 -148.5t-163 -81.5q-44 0 -69.5 27.5t-25.5 73.5q0 35 25 102q29 77 29 113q0 51 -41.5 81t-112.5 30 q-9 0 -29 -2q-97 -237 -143 -377q-46 -10 -135 -42q49 104 224 546q171 433 204.5 526.5t33.5 134.5q0 38 -37 38q-13 0 -77 -21l-9 30q129 45 274 127q-12 -121 -55 -257t-147 -380q-46 -109 -82 -202q108 131 242.5 210t252.5 79q95 0 95 -68q0 -82 -127 -162 q-92 -57 -234 -89q-55 -12 -79.5 -33t-37.5 -66zM330 522h16q57 0 135.5 17.5t138.5 43.5q128 55 128 134q0 24 -16 39t-43 15q-69 0 -179.5 -76.5t-179.5 -172.5z"/>
<glyph horiz-adv-x="335" unicode="l" glyph-name="l" d="M598 1375q3 -119 -161 -489q-286 -650 -286 -745q0 -40 35 -40q27 0 116 68l19 -26q-70 -61 -137.5 -101t-100.5 -40q-26 0 -42 22.5t-16 61.5q0 72 46.5 198t288.5 705q86 205 86 238q0 28 -30 28q-12 0 -69 -18l-10 29q192 74 261 109z"/>
<glyph horiz-adv-x="1111" unicode="m" glyph-name="m" d="M1001 150l16 -26q-107 -77 -252 -124q4 197 234 668q8 15 8 25q0 24 -21 24q-20 0 -80 -47t-114 -106q-83 -91 -159 -227.5t-123 -280.5q-58 -14 -141 -56l11 28q114 279 174 449t60 213q0 29 -27 29q-38 0 -125 -92.5t-157 -208.5q-108 -178 -183 -367q-13 -5 -68 -24 q-34 -12 -66 -25q24 51 172 408q91 221 91 270q0 33 -28 33q-21 0 -61 -18l-12 32q86 33 246 133q3 -23 3 -40q0 -49 -22 -119.5t-82 -217.5q278 355 431 355q45 0 45 -48q0 -72 -101 -320q115 152 250 260.5t208 108.5q40 0 40 -41q0 -30 -76 -192q-183 -393 -183 -457 q0 -26 26 -26q19 0 66 27z"/>
<glyph horiz-adv-x="797" unicode="n" glyph-name="n" d="M685 145l16 -27q-119 -88 -284 -120q19 171 259 625q33 64 33 82q0 27 -22 27q-35 0 -133.5 -83t-182.5 -183q-150 -179 -255 -422q-44 -10 -133 -48q94 192 186.5 425t92.5 277q0 34 -29 34q-14 0 -76 -18l-6 32q144 41 266 96q2 -12 2 -18q0 -90 -145 -409 q145 166 263 268q179 153 274 153q48 0 48 -52q0 -32 -24.5 -88.5t-106.5 -216.5q-157 -304 -157 -342q0 -29 27 -29q35 0 87 37z"/>
<glyph horiz-adv-x="679" unicode="o" glyph-name="o" d="M743 738q-54 5 -93 5q-243 0 -377 -173q-63 -82 -107.5 -195t-44.5 -191q0 -50 28.5 -81t72.5 -31q51 0 115.5 49.5t126.5 134.5q114 159 114 286q0 34 -16 55.5t-40 21.5q-80 0 -153 -160q-5 21 -5 35q0 53 49 102q94 96 172 96q48 0 80 -37t32 -92q0 -82 -52.5 -175 t-150.5 -184q-215 -201 -357 -201q-57 0 -94.5 41t-37.5 103q0 85 43.5 188t115.5 187q160 187 376 266q103 38 169 38q47 0 47 -39q0 -15 -13 -49z"/>
<glyph horiz-adv-x="645" unicode="p" glyph-name="p" d="M477 1005l-60 -177q256 0 256 -202q0 -105 -50 -223t-134 -211q-145 -161 -258 -161q-61 0 -61 54q0 19 13 43q51 -33 87 -33q102 0 191 127q52 74 85.5 167.5t33.5 165.5q0 162 -202 170q-160 -418 -461 -1186l-17 -45q-49 -21 -117 -38q89 194 375 992q39 9 54.5 18 t31.5 30q25 36 100 229q-19 1 -26 1q-77 0 -147 -10l-54 -138l-28 12l86 227l17 2l82 5q93 4 108 5l62 176h33z"/>
<glyph horiz-adv-x="747" unicode="q" glyph-name="q" d="M638 383l-11 -27q-205 -534 -337 -857q-43 -13 -132 -63q159 372 347 876q-135 -141 -253 -224t-184 -83q-38 0 -63.5 29.5t-25.5 74.5q0 112 99 259.5t249 258.5q137 101 290 157t292 56q45 0 45 -26q0 -17 -26 -67q-85 6 -128 6q-319 0 -528 -229q-71 -78 -116 -172.5 t-45 -166.5q0 -34 18 -55t48 -21q61 0 144 80q205 196 284 484q41 -37 41 -88q0 -91 -95 -216q28 2 87 14z"/>
<glyph horiz-adv-x="513" unicode="r" glyph-name="r" d="M701 827l-36 -101q-38 8 -66 8q-132 0 -274 -215q-55 -83 -94 -176t-109 -311q-66 -14 -124 -34l11 30q212 566 212 631q0 32 -26 32q-16 0 -67 -27l-13 31q140 68 251 151q4 -18 4 -33q0 -77 -69 -257q256 284 355 284q20 0 45 -13z"/>
<glyph horiz-adv-x="461" unicode="s" glyph-name="s" d="M610 829l-11 -19q-72 -121 -115 -186l-25 18l7 15q21 43 21 61q0 38 -65 38q-56 0 -97 -35q-58 -49 -58 -113q0 -26 8.5 -49t59.5 -133q24 -52 24 -118q0 -117 -133 -225q-115 -93 -203 -93q-52 0 -85 25.5t-33 65.5q0 48 24 91q62 -106 157 -106q77 0 133 56 q49 50 49 108q0 28 -10 54.5t-69 156.5q-17 38 -17 86q0 93 111 204q58 57 115 80t144 23q35 0 68 -5z"/>
<glyph horiz-adv-x="406" unicode="t" glyph-name="t" d="M568 832l-13 -30h-141q-21 -44 -111 -251q-38 -89 -96 -218q-73 -163 -73 -202q0 -46 43 -46q53 0 146 62l16 -26q-61 -46 -137.5 -78t-127.5 -32q-74 0 -74 57q0 34 23.5 93t164.5 382q92 212 111 259h-131l14 30q98 0 127 25t82 154q15 -1 20 -1q48 0 95 12 q-10 -27 -69 -167l-10 -23h141z"/>
<glyph horiz-adv-x="747" unicode="u" glyph-name="u" d="M835 825q-72 -138 -172 -381t-100 -280q0 -30 33 -30q29 0 80 20l13 -27q-59 -33 -268 -112q23 158 100 348q-76 -96 -150 -170q-80 -81 -157.5 -129.5t-127.5 -48.5q-30 0 -48 19.5t-18 52.5q0 56 30.5 132t173.5 374q39 82 39 112q0 33 -34 33q-17 0 -57 -12l-8 30 q161 47 249 86q-2 -62 -27 -125t-149 -316q-100 -205 -100 -253q0 -41 38 -41q95 0 265 216q92 116 145 211.5t115 253.5q58 6 135 37z"/>
<glyph horiz-adv-x="657" unicode="v" glyph-name="v" d="M492 806h328q-36 -113 -100.5 -230t-137.5 -201q-79 -92 -170 -158.5t-283 -172.5q-73 -41 -91 -50q76 167 135 365.5t59 289.5q0 96 -42 96q-24 0 -86 -42l-17 31q92 58 130 76t69 18q67 0 67 -125q0 -92 -30.5 -202.5t-121.5 -343.5l-10 -27q219 105 349.5 250.5 t164.5 322.5h-85q-91 0 -121 -17t-66 -88h-36q66 117 95 208z"/>
<glyph horiz-adv-x="987" unicode="w" glyph-name="w" d="M816 806h341q-63 -188 -171.5 -321.5t-371.5 -349.5q-38 -31 -120 -105q-29 -25 -47 -40q37 167 72 365q45 253 57 316q-28 -33 -70 -113q-110 -216 -216 -352t-221 -211q80 194 115 342q47 198 47 289q0 92 -45 92q-20 0 -62 -33l-16 28q105 69 160 113q84 -39 84 -149 q0 -88 -23.5 -186.5t-91.5 -296.5q39 53 51.5 74.5t107.5 194.5q163 289 320 373l-146 -683q24 20 151 120q271 210 324 426h-140q-56 -1 -69.5 -3.5t-27.5 -15.5q-14 -18 -50 -89h-36z"/>
<glyph horiz-adv-x="903" unicode="x" glyph-name="x" d="M1004 804q-60 -122 -113 -247l-32 6q25 66 25 92q0 40 -60 40q-175 0 -305 -279h199l-17 -31h-197q-49 -82 -49 -176q0 -61 39 -94q37 -32 87 -32q99 0 177 89.5t100 226.5q22 -28 22 -66q0 -107 -155 -241q-115 -100 -221 -100q-69 0 -109.5 41.5t-40.5 111.5q0 28 9 64 q-13 -11 -78 -70q-89 -81 -148.5 -113.5t-117.5 -32.5q-48 0 -81.5 27t-33.5 65q0 26 26 69q34 -91 136 -91q85 0 180.5 90.5t158.5 231.5h-195l17 31h194q6 15 34 83q38 96 38 163q0 38 -20.5 61.5t-54.5 23.5q-50 0 -104.5 -34.5t-92.5 -91.5q-65 -94 -71 -205 q-25 31 -25 79q0 108 146 231q123 104 233 104q106 0 106 -120q0 -40 -17 -100l16 14q105 96 147 127q86 65 176 65q32 0 72 -12z"/>
<glyph horiz-adv-x="782" unicode="y" glyph-name="y" d="M333 810q16 -41 16 -101q0 -123 -58 -350q196 255 335 357q116 86 175 86q28 0 44.5 -26.5t16.5 -70.5q0 -150 -115 -331q-90 -142 -210.5 -260.5t-238.5 -182.5q-96 -53 -235 -74q-120 -19 -171 -51q-72 -45 -72 -120q0 -54 55 -87.5t142 -33.5q105 0 195 53 q-8 -42 -26 -62q-55 -63 -169 -63q-102 0 -167.5 49t-65.5 126q0 109 114 224q38 39 92.5 56t191.5 31q94 10 145.5 30t116.5 70q170 131 249 324q47 114 47 193q0 78 -55 78q-96 0 -261 -202t-290 -472h-35q124 440 124 620q0 60 -40 60q-17 0 -61 -16l-9 30q13 7 109 54 q106 59 111 62z"/>
<glyph horiz-adv-x="721" unicode="z" glyph-name="z" d="M281 806l546 4q-10 -15 -59 -86q-127 -189 -213 -272q-155 -151 -373 -188q48 -32 117 -100q51 -51 81.5 -68t71.5 -17q82 0 133 74.5t51 195.5q0 56 -16 119q67 -40 67 -132q0 -94 -85 -220t-218 -126q-63 0 -114 28t-113 97q-41 45 -61.5 60.5t-41.5 15.5 q-37 0 -88 -82h-38q63 100 127 225q49 -11 90 -11q182 0 340 122q109 84 226 256q-47 4 -105 4q-227 0 -287 -18q-39 -12 -59 -37.5t-57 -108.5h-34q58 125 112 265z"/>
<glyph horiz-adv-x="672" unicode="{" glyph-name="braceleft" d="M218 703l27 39q14 -1 23 -1q80 0 142 81q39 50 69 114t94 234q40 104 90.5 162t148.5 111q109 59 159 59q32 0 32 -42q0 -7 -2 -19q-25 9 -57 9q-97 0 -168 -100q-35 -48 -53 -88.5t-75 -193.5q-44 -120 -133.5 -215t-197.5 -136q92 -56 92 -200q0 -59 -13.5 -112 t-65.5 -196q-48 -132 -48 -199q0 -95 101 -95q34 0 66 9q-37 -61 -75 -61q-40 0 -97 42q-96 69 -96 158q0 48 31 133q119 327 119 425q0 51 -35 76q-9 7 -57 7q-8 0 -21 -1z"/>
<glyph unicode="|" glyph-name="bar" d="M465 1365h95v-1706h-95v1706z"/>
<glyph horiz-adv-x="672" unicode="}" glyph-name="braceright" d="M747 742l-19 -39q-18 2 -29 2q-82 0 -147 -89q-41 -56 -73.5 -127.5t-103.5 -257.5q-43 -116 -96 -180t-153 -123q-111 -65 -161 -65q-32 0 -32 43q0 6 1 18q26 -9 57 -9q52 0 92 26t81 85q36 54 56 98.5t82 214.5q50 133 143.5 239t202.5 151q-100 53 -100 193 q0 49 12 95.5t57 168.5q41 112 41 170q0 94 -105 94q-35 0 -66 -9q36 61 75 61q40 0 99 -37q101 -65 101 -148q0 -44 -26 -116q-105 -286 -105 -377q0 -52 37 -76q10 -6 57 -6h22z"/>
<glyph horiz-adv-x="1365" unicode="~" glyph-name="asciitilde" d="M1091 1502l26 -17q-49 -84 -127 -137.5t-151 -53.5q-44 0 -132 29q-174 58 -242 58q-55 0 -90.5 -23t-99.5 -99l-27 17q122 193 285 193q57 0 188 -45q109 -37 163 -37q116 0 207 115z"/>
<glyph horiz-adv-x="512" unicode="" glyph-name="nbspace"/>
<glyph horiz-adv-x="374" unicode="" glyph-name="exclamdown" d="M-55 -567q43 146 239 643q113 289 190 461q20 -50 20 -110q0 -84 -23 -159t-154 -417q-102 -265 -102 -311q0 -66 117 -67l-11 -32h-22h-117q-72 0 -137 -8zM438 770q19 0 32 -13.5t13 -33.5q0 -26 -21 -46.5t-49 -20.5q-44 0 -44 45q0 27 21 48t48 21z"/>
<glyph horiz-adv-x="874" unicode="" glyph-name="cent" d="M854 839l-15 -27q-109 -199 -129 -233h-34q43 89 43 116q0 33 -60 38q-131 -351 -300 -652q128 27 213 123q91 103 138 217q6 -29 6 -47q0 -89 -152 -228q-114 -103 -258 -153q-8 -11 -78 -121q-37 -57 -69 -96h-38q92 127 132 212q-14 -1 -26 -1q-51 0 -82 44t-31 116 q0 100 62.5 222.5t167.5 230.5q133 136 265 193q19 58 19 98q0 48 -92 50v27q157 4 209 9q-7 -31 -42 -132l-9 -23q72 18 130 18q11 0 30 -1zM588 730q-86 -17 -174 -125q-76 -95 -124 -209t-48 -202q0 -95 70 -108q68 121 155 324t121 320z"/>
<glyph horiz-adv-x="874" unicode="" glyph-name="sterling" d="M-82 -2l53 106q155 8 285 104q142 104 142 256q0 72 -26 133h-151l3 33h138q-84 224 -84 322q0 146 116 249q74 66 164.5 103.5t175.5 37.5q109 0 175.5 -62t66.5 -164q0 -119 -83 -201q-55 -54 -121 -91t-107 -37q-58 0 -58 57q24 -17 69 -17q58 0 106 43q78 71 78 194 q0 99 -53 162q-53 62 -142 62q-96 0 -187 -64q-106 -74 -106 -183q0 -36 12 -75t53 -141q38 -94 63 -195h203l-3 -33h-195q5 -22 5 -44q0 -177 -149 -313q-46 -41 -75.5 -58.5t-161.5 -82.5q109 -1 194 -5q107 -6 144 -6q151 0 259 113q56 58 89.5 127t35.5 131 q30 -25 30 -60q0 -36 -31 -93.5t-80 -112.5q-87 -98 -193.5 -151.5t-213.5 -53.5q-48 0 -128 9q-99 11 -150 11q-86 0 -162 -10z"/>
<glyph horiz-adv-x="819" unicode="" glyph-name="currency" d="M696 515l90 -106l-56 -47l-88 104q-92 -74 -171 -74q-75 0 -150 54l-106 -89l-48 58l107 89q-22 46 -22 96q0 111 98 215l-89 105l56 47l87 -103q110 82 213 82q69 0 128 -47l86 73l48 -57l-89 -75q21 -47 21 -89q0 -118 -115 -236zM568 880q-98 0 -173 -68.5t-75 -159.5 q0 -81 50.5 -132t130.5 -51q97 0 165.5 65.5t68.5 158.5q0 86 -44.5 136t-122.5 51z"/>
<glyph horiz-adv-x="874" unicode="" glyph-name="yen" d="M658 461l-132 -420l-134 -41l146 462h-161v30h166l-18 107h-148v31h137q-13 43 -46 147q-104 333 -138.5 412.5t-77.5 79.5q-31 0 -85 -44l-20 30q13 9 93 72q91 72 108 85q59 -75 134.5 -289t131.5 -465q16 43 87 273q75 244 323 405q128 83 232 83q51 0 51 -25 q0 -8 -24 -92q-29 -99 -34 -116h-35q13 52 13 84q0 61 -75 61q-85 0 -159 -56q-64 -48 -111.5 -133t-91.5 -229q-22 -73 -68 -241l-12 -42h144v-31h-152l-33 -106h185v-32h-196z"/>
<glyph unicode="" glyph-name="brokenbar" d="M465 1365h95v-678h-95v678zM465 314h95v-655h-95v655z"/>
<glyph horiz-adv-x="819" unicode="" glyph-name="section" d="M994 1223l-30 19l5 18q14 52 14 72q0 76 -124 76q-73 0 -136.5 -21.5t-87.5 -55.5q-44 -60 -44 -128q0 -47 33 -110q12 -23 150 -225q57 -84 57 -171q0 -105 -96 -229q-61 -81 -150 -119q21 -71 21 -118q0 -95 -69 -185q-77 -99 -179.5 -141t-267.5 -42q-55 0 -97 7l8 20 q59 155 102 252l30 -19q-19 -68 -19 -90q0 -74 121 -74q277 0 277 206q0 45 -33 107q-12 23 -150 226q-57 84 -57 170q0 102 94 230q27 37 55 57.5t99 55.5q-24 83 -24 124q0 71 43 147t114 128q68 50 148.5 71t205.5 21q56 0 97 -7q-68 -181 -110 -272zM549 944 q-61 -2 -103 -31q-78 -54 -78 -152q0 -64 58 -149q105 -151 129 -191q60 2 102 31q78 54 78 153q0 64 -58 148q-105 151 -128 191z"/>
<glyph unicode="" glyph-name="dieresis" d="M934 1083q19 0 32 -13.5t13 -33.5q0 -25 -20.5 -46t-45.5 -21q-20 0 -34 13.5t-14 33.5q0 26 21 46.5t48 20.5zM726 1083q19 0 32 -13.5t13 -33.5q0 -25 -20.5 -46t-45.5 -21q-20 0 -34 13.5t-14 33.5q0 26 21 46.5t48 20.5z"/>
<glyph horiz-adv-x="1649" unicode="" glyph-name="copyright" d="M1192 1398q224 0 369 -146q139 -140 139 -357q0 -147 -92 -316.5t-256 -323.5q-109 -102 -216 -166q-159 -95 -320 -95q-101 0 -209 38.5t-191 104.5q-85 68 -132 171q-43 95 -43 208q0 220 155 429q169 228 445 364q179 88 351 89zM1179 1362q-188 0 -380 -112 q-127 -73 -227 -177q-235 -243 -235 -538q0 -241 118 -365q55 -57 140 -95q109 -48 220 -48q256 0 500 242q285 282 285 618q0 279 -162 397q-102 75 -259 78zM1018 675q37 -19 37 -68q0 -89 -83 -193q-115 -145 -258 -145q-96 0 -170 60q-85 69 -85 196q0 161 102 317 q121 183 338 263q141 52 290 52q163 0 235 -84q49 -57 49 -128q0 -102 -91 -171q-100 -75 -221 -75q-79 0 -276 48q-110 27 -162 27q-36 0 -77 -14q51 59 66 80q37 19 54 19q21 0 98 -19.5t160 -46.5q137 -43 215 -43q80 0 135.5 46.5t55.5 112.5q0 85 -89 135 q-91 51 -214 51q-120 0 -234 -44t-192 -121q-165 -160 -165 -365q0 -146 103 -202q58 -32 126 -32q159 0 227 178q25 63 26 166z"/>
<glyph horiz-adv-x="768" unicode="" glyph-name="ordfeminine" d="M865 921l16 -17q-75 -52 -223 -81l-1 6q0 63 77 221q-93 -97 -186 -157q-115 -73 -181 -73t-66 71q0 132 153 264q112 96 263.5 153t295.5 57q27 0 27 -17q0 -15 -22 -55q-57 8 -116 8q-213 0 -372 -131q-135 -111 -135 -230q0 -66 51 -66q32 0 86 38t106 97 q104 119 130 255q50 -16 50 -61q0 -58 -70 -135q39 4 99 24q-69 -154 -69 -179q0 -18 18 -18q14 0 69 26zM252 729h482q64 1 83 4.5t48 21.5q-23 -57 -56 -83q-19 -15 -35 -17.5t-82 -3.5h-419q-27 0 -36.5 -6.5t-25.5 -34.5h-13z"/>
<glyph horiz-adv-x="886" unicode="" glyph-name="guillemotleft" d="M959 848q-69 -80 -143 -140.5t-213 -150.5q-44 -29 -56.5 -43.5t-12.5 -37.5q0 -35 52 -118q46 -72 88.5 -156.5t59.5 -137.5q-17 -11 -54 -32q-31 -17 -51 -30q-46 122 -83.5 196.5t-142.5 248.5l-8 15q171 105 260 183q144 132 182 181q13 1 58 9q50 10 64 13zM674 849 q-68 -93 -337 -266q-80 -52 -94.5 -66.5t-14.5 -40.5q0 -35 41 -103q133 -225 159 -316l-12 -7q-73 -38 -96 -54q-5 12 -35 88q-28 74 -88.5 189.5t-106.5 186.5q11 7 59 38q98 62 168.5 120t211.5 194l9 8q9 3 43 10q23 4 77 16z"/>
<glyph unicode="" glyph-name="logicalnot" d="M779 0v471h-704v75h874v-546h-170z"/>
<glyph horiz-adv-x="311" unicode="" glyph-name="sfthyphen" d="M61 466h136q86 1 111 5t66 24q-3 -5 -10 -22q-33 -71 -99 -87q-23 -6 -118 -6h-50q-38 0 -50 -7t-31 -39h-18z"/>
<glyph horiz-adv-x="1648" unicode="" glyph-name="registered" d="M1192 1398q224 0 369 -146q139 -140 139 -357q0 -147 -92 -316.5t-256 -323.5q-109 -102 -216 -166q-159 -95 -320 -95q-101 0 -209 38.5t-191 104.5q-85 68 -132 171q-43 95 -43 208q0 220 155 429q169 228 445 364q179 88 351 89zM1179 1362q-188 0 -380 -112 q-127 -73 -227 -177q-235 -243 -235 -538q0 -241 118 -365q55 -57 140 -95q109 -48 220 -48q256 0 500 242q285 282 285 618q0 279 -162 397q-102 75 -259 78zM1360 391l10 -24q-115 -70 -149 -87q-36 94 -53 142q-44 120 -74 165q-60 -124 -142 -194q-130 -111 -258 -111 q-126 0 -208 80q-79 77 -79 202q0 148 111 271q133 148 364 213q176 49 364 49q152 0 222 -55q51 -39 51 -105q0 -106 -137 -159q-67 -25 -84 -77q-48 2 -86 2q-31 0 -58 -2l-19 -46q43 -52 114 -210q21 -45 32 -57.5t31 -12.5q19 0 48 16zM1060 919q89 16 168 43 q-28 -118 -56 -196q30 -1 45 -1q94 0 148 35q67 43 67 126q0 141 -238 141q-317 0 -507 -135q-201 -143 -201 -347q0 -111 64 -177q80 -83 199 -83q62 0 107.5 27.5t92.5 95.5q56 80 101 191q-55 49 -120 49t-110.5 -44t-57.5 -118q-23 25 -23 52q0 53 71 94q85 49 188 49 q43 0 79 -18q7 20 23 68q25 72 25 101q0 31 -26 31q-9 0 -34 -4z"/>
<glyph unicode="" glyph-name="overscore" d="M51 1721h922v-77h-922v77z"/>
<glyph horiz-adv-x="546" unicode="" glyph-name="degree" d="M650 1353q64 0 106 -42.5t42 -108.5q0 -79 -80 -168q-90 -100 -176 -100q-71 0 -119 45.5t-48 111.5q0 102 97 185q89 77 178 77zM612 1294q-70 0 -123 -49t-53 -113q0 -58 36 -94.5t93 -36.5q68 0 117 47t49 113q0 61 -32 96.5t-87 36.5z"/>
<glyph horiz-adv-x="874" unicode="" glyph-name="plusminus" d="M883 615l-23 -56h-313l-121 -314h-55l119 314h-314l23 56h313l120 314h56l-120 -314h315zM724 178l-23 -56h-684l23 56h684z"/>
<glyph horiz-adv-x="563" unicode="" glyph-name="twosuperior" d="M622 546h-482l29 50q77 41 176.5 118t178.5 158q88 89 146 183.5t58 147.5q0 50 -33.5 83t-83.5 33q-62 0 -108 -48.5t-56 -124.5q-43 17 -43 60q0 56 84.5 99t193.5 43q65 0 105 -38t40 -100q0 -85 -122 -218q-178 -193 -430 -382h221q85 1 104.5 9.5t62.5 59.5h32 q-54 -80 -73 -133z"/>
<glyph horiz-adv-x="563" unicode="" glyph-name="threesuperior" d="M381 928q38 46 68 105q21 -1 29 -1q121 0 196 61q68 56 68 123q0 38 -27 62t-69 24q-62 0 -109 -42.5t-61 -111.5q-34 14 -34 47q0 62 99 102q93 38 181 38q52 0 83 -27t31 -71q0 -90 -102 -161q-57 -39 -147 -55q-38 -6 -53 -19q-31 -28 -31 -43q0 -1 1 -4 q199 -22 199 -167q0 -100 -80 -171q-92 -82 -219 -82q-80 0 -131.5 31.5t-51.5 79.5q0 20 9 50q17 -37 69.5 -58.5t128.5 -21.5q113 0 177 56q61 53 61 129q0 133 -232 133q-14 0 -53 -6z"/>
<glyph unicode="" glyph-name="acute" d="M948 1204l38 -87q-87 -30 -161 -96t-128 -160q22 138 86.5 226t164.5 117z"/>
<glyph horiz-adv-x="980" unicode="" glyph-name="mu" d="M870 105l-11 -31l-185 -94q-5 -2 -10 -2q-21 0 -38.5 21.5t-17.5 48.5q0 22 19 106q-124 -87 -183 -120q-114 -64 -211 -64q-75 0 -116 39q-42 40 -42 109q0 16 1 35q-57 -157 -80 -250q-31 -130 -44 -171q-16 -51 -46 -84.5t-59 -33.5q-20 0 -34.5 16t-14.5 38 q0 19 8 38.5t58 119.5q129 263 194.5 412t136.5 344l129 355h126l-214 -587q-45 -123 -45 -174q0 -54 34 -85t94 -31q80 0 156.5 39.5t173.5 131.5l257 706h124l-255 -702q-29 -80 -29 -110q0 -45 52 -45q28 0 72 25z"/>
<glyph horiz-adv-x="819" unicode="" glyph-name="paragraph" d="M1191 1429q-77 6 -127 6q-83 0 -139 -10t-154 -42q25 -13 33.5 -30.5t8.5 -53.5q0 -164 -235 -375q-72 -65 -135.5 -102.5t-100.5 -37.5q-39 0 -64.5 29.5t-25.5 75.5q0 100 96 226.5t245 222.5q136 88 287.5 136t290.5 48q46 0 46 -27q0 -15 -26 -66zM563 94 q6 -20 6 -31q0 -63 -94 -63q-87 0 -139.5 68.5t-52.5 181.5q0 152 130 316q31 39 70 78t245 233q68 65 115.5 155t47.5 155q0 78 -53 191l32 7q103 -156 103 -352q0 -359 -440 -667q-97 -68 -135 -112t-38 -88t34 -71t88 -27q38 0 81 26zM324 206q19 63 53.5 103t167.5 151 q200 165 289.5 305.5t89.5 286.5q0 12 -2 41q-25 -103 -101.5 -204.5t-251.5 -262.5q-61 -55 -126.5 -134t-91.5 -126q-30 -55 -30 -123q0 -14 3 -37z"/>
<glyph horiz-adv-x="341" unicode="" glyph-name="middot" d="M220 487q19 0 32 -13.5t13 -33.5q0 -25 -20.5 -46t-45.5 -21q-20 0 -34 13.5t-14 33.5q0 26 21 46.5t48 20.5z"/>
<glyph unicode="" glyph-name="cedilla" d="M345 0l-46 -103q46 14 80 14q102 0 102 -85q0 -105 -102 -189q-37 -31 -85 -51.5t-84 -20.5q-34 0 -55 21.5t-21 55.5q0 82 85 112q-19 -47 -19 -72q0 -29 14 -47t37 -18q56 0 104.5 56t48.5 121q0 68 -80 68q-55 0 -105 -43l81 181h45z"/>
<glyph horiz-adv-x="563" unicode="" glyph-name="onesuperior" d="M516 1254l-4 19q14 2 87 19q102 23 145 45q-18 -41 -59 -156q-160 -439 -248 -603q-69 -33 -105 -38q76 134 193 452q91 249 91 265q0 12 -10 12q-7 0 -45 -7q-37 -7 -45 -8z"/>
<glyph horiz-adv-x="768" unicode="" glyph-name="ordmasculine" d="M940 1297q-40 3 -74 3q-185 0 -285 -110q-41 -46 -70 -115t-29 -121q0 -36 22.5 -58t59.5 -22q75 0 162 99.5t87 186.5q0 24 -12.5 39t-32.5 15q-64 0 -110 -93q-6 16 -6 27q0 42 56 83.5t112 41.5q39 0 67 -27t28 -65q0 -111 -143 -227q-162 -132 -275 -132 q-50 0 -82 30t-32 77q0 90 67.5 183t182.5 161q64 37 143.5 62.5t132.5 25.5q43 0 43 -33q0 -14 -12 -31zM252 729h482q64 1 83 4.5t48 21.5q-23 -57 -56 -83q-19 -15 -35 -17.5t-82 -3.5h-419q-27 0 -36.5 -6.5t-25.5 -34.5h-13z"/>
<glyph horiz-adv-x="886" unicode="" glyph-name="guillemotright" d="M-5 -3q71 83 145.5 144t209.5 148q44 28 56.5 43t12.5 38q0 35 -52 118q-45 71 -87.5 156t-59.5 137q17 12 54 32q30 18 51 31q46 -122 83.5 -196.5t141.5 -248.5l9 -15q-173 -107 -260 -183q-144 -133 -182 -181q-13 -2 -58 -10q-50 -9 -64 -13zM280 -4q68 94 337 267 q80 52 94.5 66t14.5 41q0 35 -41 103q-135 228 -159 316l12 6q71 38 96 54q5 -11 35 -88q29 -74 90 -192t105 -183q-9 -7 -59 -38q-102 -64 -170.5 -121t-209.5 -193l-9 -9q-9 -2 -43 -9q-23 -4 -77 -16z"/>
<glyph horiz-adv-x="1425" unicode="" glyph-name="onequarter" d="M516 1254l-4 19q14 2 87 19q102 23 145 45q-18 -41 -59 -156q-160 -439 -248 -603q-69 -33 -105 -38q76 134 193 452q91 249 91 265q0 12 -10 12q-9 0 -45 -7q-33 -6 -45 -8zM1292 1341l-837 -1341l-43 20l839 1339zM1180 772v20q13 -2 28 -2q61 0 112 5q2 -72 -68 -190 q-49 -83 -94 -134t-140 -131h15l144 -1h39l33 89q33 95 55.5 127.5t76.5 66.5q81 52 124 52q20 0 20 -26q0 -3 -1 -11q-17 6 -39 6q-50 0 -84 -44t-79 -168l-32 -91q74 -1 108.5 16t43.5 59q23 -10 23 -25q0 -28 -62.5 -65.5t-139.5 -55.5l-94 -257q-31 -3 -78 -12l99 269 q-184 1 -202 1q-16 0 -81 -1q27 34 40 67q102 36 191 185q35 58 61 125t26 98q0 25 -45 28z"/>
<glyph horiz-adv-x="1425" unicode="" glyph-name="onehalf" d="M516 1254l-4 19q14 2 87 19q102 23 145 45q-18 -41 -59 -156q-160 -439 -248 -603q-69 -33 -105 -38q76 134 193 452q91 249 91 265q0 12 -10 12q-9 0 -45 -7q-33 -6 -45 -8zM1292 1341l-837 -1341l-43 20l839 1339zM1287 0h-482l29 50q77 41 176.5 118t178.5 158 q88 89 146 183.5t58 147.5q0 50 -33.5 83t-83.5 33q-62 0 -108 -48.5t-56 -124.5q-43 18 -43 60q0 56 84.5 99t193.5 43q65 0 105 -38t40 -100q0 -85 -122 -218q-177 -192 -430 -382h221q85 1 104.5 9.5t62.5 59.5h32q-54 -80 -73 -133z"/>
<glyph horiz-adv-x="1426" unicode="" glyph-name="threequarters" d="M381 928q38 47 68 105q21 -1 29 -1q121 0 196 61q68 56 68 123q0 38 -27 62t-69 24q-62 0 -109 -42.5t-61 -111.5q-34 14 -34 47q0 62 99 102q94 38 181 38q51 0 82.5 -27t31.5 -71q0 -90 -102 -161q-57 -39 -147 -55q-38 -6 -53 -19q-31 -28 -31 -43q0 -1 1 -4 q199 -22 199 -167q0 -100 -80 -171q-92 -82 -219 -82q-80 0 -131.5 31.5t-51.5 79.5q0 21 9 50q17 -37 70 -58.5t128 -21.5q113 0 177 56q61 53 61 129q0 133 -232 133q-14 0 -53 -6zM1291 1341l-836 -1341l-43 20l839 1339zM1180 772v20q13 -2 28 -2q61 0 112 5 q2 -72 -68 -190q-49 -83 -94 -134t-140 -131h15l144 -1h39l33 89q33 95 55.5 127.5t76.5 66.5q81 52 124 52q20 0 20 -26q0 -3 -1 -11q-17 6 -39 6q-50 0 -84 -44t-79 -168l-32 -91q74 -1 108.5 16t43.5 59q23 -10 23 -25q0 -28 -62.5 -65.5t-139.5 -55.5l-94 -257 q-31 -3 -78 -12l99 269q-184 1 -202 1q-16 0 -81 -1q27 34 40 67q102 36 191 185q35 58 61 125t26 98q0 25 -45 28z"/>
<glyph horiz-adv-x="797" unicode="" glyph-name="questiondown" d="M488 -266h35q-56 -129 -91 -251q-138 -45 -248 -45q-153 0 -237 68t-84 192q0 177 129 344q55 72 133 122.5t214 102.5q95 36 137.5 57.5t76.5 50.5q42 36 42 71q0 27 -25 45t-64 18q-5 0 -18 -1q25 57 75 57q31 0 51.5 -23.5t20.5 -59.5q0 -48 -30.5 -111.5 t-78.5 -112.5q-58 -61 -144 -95q-14 -6 -184 -62q-161 -52 -223 -143q-53 -78 -53 -174q0 -112 83 -167q78 -52 216 -52q166 0 221 76q12 17 46 93zM612 787q48 0 48 -46q0 -28 -20 -48t-48 -20q-46 0 -46 44q0 28 20 49t46 21z"/>
<glyph horiz-adv-x="1683" unicode="" glyph-name="Agrave" d="M1326 1485l28 -26q-42 -47 -55 -86.5t-13 -118.5q0 -345 152 -821q45 -141 76.5 -202.5t56.5 -61.5q23 0 74 53l25 -24q-98 -105 -189 -216q-91 188 -165 422q-72 229 -102.5 378t-30.5 278q0 83 15 215q-66 -67 -245 -290q-114 -143 -209 -249q55 4 123 4q166 0 332 -7 q-33 -86 -70 -248h-38q14 54 14 85q0 50 -54 57q-35 4 -231 4q-65 0 -176 -4q-252 -246 -321.5 -304.5t-245.5 -175.5q71 6 154 6q131 0 203 -5t273 -28q75 -9 139 -9q111 0 185.5 38.5t117.5 117.5q44 79 55 158q37 -22 37 -59q0 -95 -140 -218q-171 -149 -364 -149 q-70 0 -192 13q-292 31 -492 31l-185 -5h-18l63 101q226 80 419 243q161 135 304.5 292.5t400.5 477.5q206 256 289 333zM1252 1818q110 -30 174.5 -118t77.5 -225q-56 93 -134.5 159.5t-169.5 96.5z"/>
<glyph horiz-adv-x="1683" unicode="" glyph-name="Aacute" d="M1326 1485l28 -26q-42 -47 -55 -86.5t-13 -118.5q0 -345 152 -821q45 -141 76.5 -202.5t56.5 -61.5q23 0 74 53l25 -24q-98 -105 -189 -216q-91 188 -165 422q-72 229 -102.5 378t-30.5 278q0 83 15 215q-66 -67 -245 -290q-114 -143 -209 -249q55 4 123 4q166 0 332 -7 q-33 -86 -70 -248h-38q14 54 14 85q0 50 -54 57q-35 4 -231 4q-65 0 -176 -4q-252 -246 -321.5 -304.5t-245.5 -175.5q71 6 154 6q131 0 203 -5t273 -28q75 -9 139 -9q111 0 185.5 38.5t117.5 117.5q44 79 55 158q37 -22 37 -59q0 -95 -140 -218q-171 -149 -364 -149 q-70 0 -192 13q-292 31 -492 31l-185 -5h-18l63 101q226 80 419 243q161 135 304.5 292.5t400.5 477.5q206 256 289 333zM1464 1818l52 -87q-91 -30 -169.5 -96.5t-134.5 -159.5q14 137 78.5 225t173.5 118z"/>
<glyph horiz-adv-x="1683" unicode="" glyph-name="Acircumflex" d="M1326 1485l28 -26q-42 -47 -55 -86.5t-13 -118.5q0 -345 152 -821q45 -141 76.5 -202.5t56.5 -61.5q23 0 74 53l25 -24q-98 -105 -189 -216q-91 188 -165 422q-72 229 -102.5 378t-30.5 278q0 83 15 215q-66 -67 -245 -290q-114 -143 -209 -249q55 4 123 4q166 0 332 -7 q-33 -86 -70 -248h-38q14 54 14 85q0 50 -54 57q-35 4 -231 4q-65 0 -176 -4q-252 -246 -321.5 -304.5t-245.5 -175.5q71 6 154 6q131 0 203 -5t273 -28q75 -9 139 -9q111 0 185.5 38.5t117.5 117.5q44 79 55 158q37 -22 37 -59q0 -95 -140 -218q-171 -149 -364 -149 q-70 0 -192 13q-292 31 -492 31l-185 -5h-18l63 101q226 80 419 243q161 135 304.5 292.5t400.5 477.5q206 256 289 333zM1491 1851v-22q2 -201 9 -276q-13 -9 -59 -42q-25 -18 -42 -36q2 25 2 57q0 76 -4.5 101t-19.5 25q-17 0 -85 -70q-46 -48 -69.5 -64t-47.5 -16 q-13 0 -26 7q9 8 82 66q129 107 260 270z"/>
<glyph horiz-adv-x="1683" unicode="" glyph-name="Atilde" d="M1326 1485l28 -26q-42 -47 -55 -86.5t-13 -118.5q0 -345 152 -821q45 -141 76.5 -202.5t56.5 -61.5q23 0 74 53l25 -24q-98 -105 -189 -216q-91 188 -165 422q-72 229 -102.5 378t-30.5 278q0 83 15 215q-66 -67 -245 -290q-114 -143 -209 -249q55 4 123 4q166 0 332 -7 q-33 -86 -70 -248h-38q14 54 14 85q0 50 -54 57q-35 4 -231 4q-65 0 -176 -4q-252 -246 -321.5 -304.5t-245.5 -175.5q71 6 154 6q131 0 203 -5t273 -28q75 -9 139 -9q111 0 185.5 38.5t117.5 117.5q44 79 55 158q37 -22 37 -59q0 -95 -140 -218q-171 -149 -364 -149 q-70 0 -192 13q-292 31 -492 31l-185 -5h-18l63 101q226 80 419 243q161 135 304.5 292.5t400.5 477.5q206 256 289 333zM1148 1533q31 97 63.5 134t87.5 37q34 0 110 -20q64 -16 95 -16q60 0 80 62l22 -4q-27 -90 -60.5 -127t-89.5 -37q-24 0 -111 22q-67 16 -98 16 q-42 0 -59 -27q-3 -5 -15 -32q-1 -4 -5 -12z"/>
<glyph horiz-adv-x="1683" unicode="" glyph-name="Adieresis" d="M1326 1485l28 -26q-42 -47 -55 -86.5t-13 -118.5q0 -345 152 -821q45 -141 76.5 -202.5t56.5 -61.5q23 0 74 53l25 -24q-98 -105 -189 -216q-91 188 -165 422q-72 229 -102.5 378t-30.5 278q0 83 15 215q-66 -67 -245 -290q-114 -143 -209 -249q55 4 123 4q166 0 332 -7 q-33 -86 -70 -248h-38q14 54 14 85q0 50 -54 57q-35 4 -231 4q-65 0 -176 -4q-252 -246 -321.5 -304.5t-245.5 -175.5q71 6 154 6q131 0 203 -5t273 -28q75 -9 139 -9q111 0 185.5 38.5t117.5 117.5q44 79 55 158q37 -22 37 -59q0 -95 -140 -218q-171 -149 -364 -149 q-70 0 -192 13q-292 31 -492 31l-185 -5h-18l63 101q226 80 419 243q161 135 304.5 292.5t400.5 477.5q206 256 289 333zM1471 1684q19 0 32 -13.5t13 -33.5q0 -25 -20.5 -46t-45.5 -21q-20 0 -34 13.5t-14 33.5q0 26 21 46.5t48 20.5zM1263 1684q19 0 32 -13.5t13 -33.5 q0 -25 -20.5 -46t-45.5 -21q-20 0 -34 13.5t-14 33.5q0 26 21 46.5t48 20.5z"/>
<glyph horiz-adv-x="1683" unicode="" glyph-name="Aring" d="M1326 1485l28 -26q-42 -47 -55 -86.5t-13 -118.5q0 -345 152 -821q45 -141 76.5 -202.5t56.5 -61.5q23 0 74 53l25 -24q-98 -105 -189 -216q-91 188 -165 422q-72 229 -102.5 378t-30.5 278q0 83 15 215q-66 -67 -245 -290q-114 -143 -209 -249q55 4 123 4q166 0 332 -7 q-33 -86 -70 -248h-38q14 54 14 85q0 50 -54 57q-35 4 -231 4q-65 0 -176 -4q-252 -246 -321.5 -304.5t-245.5 -175.5q71 6 154 6q131 0 203 -5t273 -28q75 -9 139 -9q111 0 185.5 38.5t117.5 117.5q44 79 55 158q37 -22 37 -59q0 -95 -140 -218q-171 -149 -364 -149 q-70 0 -192 13q-292 31 -492 31l-185 -5h-18l63 101q226 80 419 243q161 135 304.5 292.5t400.5 477.5q206 256 289 333zM1472 1781q28 0 45.5 -18.5t17.5 -47.5q0 -61 -63 -119.5t-128 -58.5q-28 0 -45 18t-17 48q0 70 75 129q64 50 115 49zM1444 1741q-31 3 -68.5 -40.5 t-37.5 -82.5q0 -37 36 -37t68.5 36t34.5 79q2 42 -33 45z"/>
<glyph horiz-adv-x="2310" unicode="" glyph-name="AE" d="M2063 1365q-27 -82 -64 -227l-6 -23h-39q18 54 18 94q0 44 -50 53q-20 3 -292 4h-322h-28q-3 -39 -3 -52q0 -135 44 -361h494l-27 -107h-199q112 -82 112 -217q0 -69 -29 -141.5t-78 -124.5q64 -55 173 -99t182 -44q84 0 156 44t116 124q36 62 52 169q42 -21 42 -81 q0 -111 -176 -236q-72 -51 -147.5 -94t-93.5 -43t-90.5 24.5t-117.5 45.5q-111 52 -187 111q-117 -86 -322.5 -135.5t-450.5 -49.5q-99 0 -250 13q-310 27 -492 27q-95 0 -141 -8q11 13 29 46q25 45 31 60q64 19 154.5 66.5t171.5 103.5q315 225 724 754q130 166 153 187 q79 88 98 113q80 -1 465 -2h160q153 0 230 6zM1344 746q22 -131 76 -249t122 -186q31 40 50 95.5t19 108.5q0 73 -43 134.5t-108 81.5q-45 14 -116 15zM1197 853q-15 107 -15 207q0 161 8 212q-14 -16 -98 -115q-20 -23 -115 -142q-55 -70 -131 -162h351zM1213 746h-457 q-165 -174 -281 -287q-101 -99 -157 -143.5t-229 -162.5l-18 -12q98 10 171 10q116 0 240.5 -11.5t431.5 -51.5q60 -8 128 -8q129 0 240 39t173 107q-90 86 -151.5 218.5t-90.5 301.5z"/>
<glyph horiz-adv-x="1566" unicode="" glyph-name="Ccedilla" d="M543 -19l-41 -89q47 15 84 15q108 0 108 -89q0 -111 -107 -199q-39 -33 -90 -54.5t-88 -21.5q-36 0 -58 22.5t-22 58.5q0 86 89 117q-19 -47 -19 -76q0 -30 15 -48.5t39 -18.5q58 0 109 59t51 127q0 72 -84 72q-58 0 -111 -46l78 173q-55 7 -96 23q-130 47 -198 153 q-68 105 -68 245q0 263 167 509q198 291 553 419q230 83 478 83q127 0 228 -31.5t160 -89.5q82 -81 82 -195q0 -161 -152 -276q-165 -126 -369 -126q-132 0 -460 81q-182 45 -269 45q-63 0 -129 -24q80 91 110 134q47 4 66 4q76 0 158 -16.5t298 -74.5q235 -64 354 -64 q154 0 250 96q72 72 72 169q0 141 -149 225q-151 85 -358 85q-227 0 -449 -98q-260 -114 -413 -367q-123 -202 -123 -417q0 -243 172 -337q97 -53 211 -53q167 0 277 125q78 90 112 193.5t33 253.5q50 -31 50 -111q0 -112 -82 -247q-93 -151 -229 -242q-110 -73 -240 -76z "/>
<glyph horiz-adv-x="2361" unicode="" glyph-name="Egrave" d="M2118 1365q-28 -87 -73 -251h-38q18 68 18 97q0 32 -23.5 42.5t-96.5 10.5l-30 -1h-224q-55 -233 -92 -312q-53 -127 -124 -196t-213 -133q-83 -37 -129 -51q115 -36 320 -166q135 -86 171 -106q57 72 80.5 132t23.5 136q0 210 -173 285h353l-28 -108h-166 q89 -87 89 -211q0 -127 -114 -272q151 -87 218.5 -113.5t136.5 -26.5q133 0 222.5 93.5t101.5 243.5q39 -27 39 -83t-59 -129.5t-147 -128.5q-138 -86 -163.5 -100t-39.5 -14q-49 0 -177 54t-232 118q-84 -60 -205 -100q-211 -70 -428 -70q-294 0 -502 119q-131 74 -189 209 q-40 91 -40 205q0 260 209 458q176 167 419 270q123 52 235.5 72t277.5 20l178 -1q402 0 614 8zM1545 1262h-215q-252 0 -367 -18q-201 -32 -359 -128q-163 -99 -243 -273q-63 -136 -63 -268q0 -175 105 -312q167 -217 538 -217q319 0 553 165q-23 13 -243 151 q-115 73 -258 118.5t-255 45.5q-55 0 -118 -15q48 53 77 112q26 7 61 7q46 0 169 -17q42 -6 75 -6q113 0 217 59q118 66 192 201t134 395zM1769 1818q110 -30 174.5 -118t77.5 -225q-56 93 -134.5 159.5t-169.5 96.5z"/>
<glyph horiz-adv-x="2361" unicode="" glyph-name="Eacute" d="M2118 1365q-28 -87 -73 -251h-38q18 68 18 97q0 32 -23.5 42.5t-96.5 10.5l-30 -1h-224q-55 -233 -92 -312q-53 -127 -124 -196t-213 -133q-83 -37 -129 -51q115 -36 320 -166q135 -86 171 -106q57 72 80.5 132t23.5 136q0 210 -173 285h353l-28 -108h-166 q89 -87 89 -211q0 -127 -114 -272q151 -87 218.5 -113.5t136.5 -26.5q133 0 222.5 93.5t101.5 243.5q39 -27 39 -83t-59 -129.5t-147 -128.5q-138 -86 -163.5 -100t-39.5 -14q-49 0 -177 54t-232 118q-84 -60 -205 -100q-211 -70 -428 -70q-294 0 -502 119q-131 74 -189 209 q-40 91 -40 205q0 260 209 458q176 167 419 270q123 52 235.5 72t277.5 20l178 -1q402 0 614 8zM1545 1262h-215q-252 0 -367 -18q-201 -32 -359 -128q-163 -99 -243 -273q-63 -136 -63 -268q0 -175 105 -312q167 -217 538 -217q319 0 553 165q-23 13 -243 151 q-115 73 -258 118.5t-255 45.5q-55 0 -118 -15q48 53 77 112q26 7 61 7q46 0 169 -17q42 -6 75 -6q113 0 217 59q118 66 192 201t134 395zM1898 1818l52 -87q-91 -30 -169.5 -96.5t-134.5 -159.5q14 137 78.5 225t173.5 118z"/>
<glyph horiz-adv-x="2361" unicode="" glyph-name="Ecircumflex" d="M2118 1365q-28 -87 -73 -251h-38q18 68 18 97q0 32 -23.5 42.5t-96.5 10.5l-30 -1h-224q-55 -233 -92 -312q-53 -127 -124 -196t-213 -133q-83 -37 -129 -51q115 -36 320 -166q135 -86 171 -106q57 72 80.5 132t23.5 136q0 210 -173 285h353l-28 -108h-166 q89 -87 89 -211q0 -127 -114 -272q151 -87 218.5 -113.5t136.5 -26.5q133 0 222.5 93.5t101.5 243.5q39 -27 39 -83t-59 -129.5t-147 -128.5q-138 -86 -163.5 -100t-39.5 -14q-49 0 -177 54t-232 118q-84 -60 -205 -100q-211 -70 -428 -70q-294 0 -502 119q-131 74 -189 209 q-40 91 -40 205q0 260 209 458q176 167 419 270q123 52 235.5 72t277.5 20l178 -1q402 0 614 8zM1545 1262h-215q-252 0 -367 -18q-201 -32 -359 -128q-163 -99 -243 -273q-63 -136 -63 -268q0 -175 105 -312q167 -217 538 -217q319 0 553 165q-23 13 -243 151 q-115 73 -258 118.5t-255 45.5q-55 0 -118 -15q48 53 77 112q26 7 61 7q46 0 169 -17q42 -6 75 -6q113 0 217 59q118 66 192 201t134 395zM1994 1851v-22q2 -201 9 -276q-13 -9 -59 -42q-25 -18 -42 -36q2 25 2 57q0 76 -4.5 101t-19.5 25q-17 0 -85 -70q-46 -48 -69.5 -64 t-47.5 -16q-13 0 -26 7q9 8 82 66q129 107 260 270z"/>
<glyph horiz-adv-x="2361" unicode="" glyph-name="Edieresis" d="M2118 1365q-28 -87 -73 -251h-38q18 68 18 97q0 32 -23.5 42.5t-96.5 10.5l-30 -1h-224q-55 -233 -92 -312q-53 -127 -124 -196t-213 -133q-83 -37 -129 -51q115 -36 320 -166q135 -86 171 -106q57 72 80.5 132t23.5 136q0 210 -173 285h353l-28 -108h-166 q89 -87 89 -211q0 -127 -114 -272q151 -87 218.5 -113.5t136.5 -26.5q133 0 222.5 93.5t101.5 243.5q39 -27 39 -83t-59 -129.5t-147 -128.5q-138 -86 -163.5 -100t-39.5 -14q-49 0 -177 54t-232 118q-84 -60 -205 -100q-211 -70 -428 -70q-294 0 -502 119q-131 74 -189 209 q-40 91 -40 205q0 260 209 458q176 167 419 270q123 52 235.5 72t277.5 20l178 -1q402 0 614 8zM1545 1262h-215q-252 0 -367 -18q-201 -32 -359 -128q-163 -99 -243 -273q-63 -136 -63 -268q0 -175 105 -312q167 -217 538 -217q319 0 553 165q-23 13 -243 151 q-115 73 -258 118.5t-255 45.5q-55 0 -118 -15q48 53 77 112q26 7 61 7q46 0 169 -17q42 -6 75 -6q113 0 217 59q118 66 192 201t134 395zM1954 1684q19 0 32 -13.5t13 -33.5q0 -25 -20.5 -46t-45.5 -21q-20 0 -34 13.5t-14 33.5q0 26 21 46.5t48 20.5zM1746 1684 q19 0 32 -13.5t13 -33.5q0 -25 -20.5 -46t-45.5 -21q-20 0 -34 13.5t-14 33.5q0 26 21 46.5t48 20.5z"/>
<glyph horiz-adv-x="1898" unicode="" glyph-name="Igrave" d="M1148 1365h1038q-78 -245 -133 -375q-225 -529 -543 -765q-301 -223 -644 -223q-277 0 -458 138q-100 77 -162 196q-66 128 -66 268q0 99 38 188t106 150q134 119 336 119q200 0 386 -126q98 52 203 52q139 0 227 -99q81 -90 81 -238q0 -79 -21 -145.5t-77 -169.5 q-212 299 -490 507q-138 -129 -138 -334q0 -85 26 -183q-91 67 -91 187q0 186 172 352q-184 138 -348 138q-124 0 -221 -72q-136 -101 -136 -289q0 -144 92 -275q101 -145 310 -215q153 -52 329 -52q316 0 563 191q180 140 310 365.5t237 586.5h-703q-164 0 -202.5 -14.5 t-70.5 -90.5l-37 8q40 101 87 220zM1489 490q26 75 26 137q0 145 -106 242q-80 74 -188 74q-64 0 -139 -31q201 -142 407 -422zM1578 1818q110 -30 174.5 -118t77.5 -225q-56 93 -134.5 159.5t-169.5 96.5z"/>
<glyph horiz-adv-x="1898" unicode="" glyph-name="Iacute" d="M1148 1365h1038q-78 -245 -133 -375q-225 -529 -543 -765q-301 -223 -644 -223q-277 0 -458 138q-100 77 -162 196q-66 128 -66 268q0 99 38 188t106 150q134 119 336 119q200 0 386 -126q98 52 203 52q139 0 227 -99q81 -90 81 -238q0 -79 -21 -145.5t-77 -169.5 q-212 299 -490 507q-138 -129 -138 -334q0 -85 26 -183q-91 67 -91 187q0 186 172 352q-184 138 -348 138q-124 0 -221 -72q-136 -101 -136 -289q0 -144 92 -275q101 -145 310 -215q153 -52 329 -52q316 0 563 191q180 140 310 365.5t237 586.5h-703q-164 0 -202.5 -14.5 t-70.5 -90.5l-37 8q40 101 87 220zM1489 490q26 75 26 137q0 145 -106 242q-80 74 -188 74q-64 0 -139 -31q201 -142 407 -422zM1844 1818l52 -87q-91 -30 -169.5 -96.5t-134.5 -159.5q14 137 78.5 225t173.5 118z"/>
<glyph horiz-adv-x="1898" unicode="" glyph-name="Icircumflex" d="M1148 1365h1038q-78 -245 -133 -375q-225 -529 -543 -765q-301 -223 -644 -223q-277 0 -458 138q-100 77 -162 196q-66 128 -66 268q0 99 38 188t106 150q134 119 336 119q200 0 386 -126q98 52 203 52q139 0 227 -99q81 -90 81 -238q0 -79 -21 -145.5t-77 -169.5 q-212 299 -490 507q-138 -129 -138 -334q0 -85 26 -183q-91 67 -91 187q0 186 172 352q-184 138 -348 138q-124 0 -221 -72q-136 -101 -136 -289q0 -144 92 -275q101 -145 310 -215q153 -52 329 -52q316 0 563 191q180 140 310 365.5t237 586.5h-703q-164 0 -202.5 -14.5 t-70.5 -90.5l-37 8q40 101 87 220zM1489 490q26 75 26 137q0 145 -106 242q-80 74 -188 74q-64 0 -139 -31q201 -142 407 -422zM1831 1851v-22q2 -201 9 -276q-13 -9 -59 -42q-25 -18 -42 -36q2 25 2 57q0 76 -4.5 101t-19.5 25q-17 0 -85 -70q-46 -48 -69.5 -64t-47.5 -16 q-13 0 -26 7q9 8 82 66q129 107 260 270z"/>
<glyph horiz-adv-x="1898" unicode="" glyph-name="Idieresis" d="M1148 1365h1038q-78 -245 -133 -375q-225 -529 -543 -765q-301 -223 -644 -223q-277 0 -458 138q-100 77 -162 196q-66 128 -66 268q0 99 38 188t106 150q134 119 336 119q200 0 386 -126q98 52 203 52q139 0 227 -99q81 -90 81 -238q0 -79 -21 -145.5t-77 -169.5 q-212 299 -490 507q-138 -129 -138 -334q0 -85 26 -183q-91 67 -91 187q0 186 172 352q-184 138 -348 138q-124 0 -221 -72q-136 -101 -136 -289q0 -144 92 -275q101 -145 310 -215q153 -52 329 -52q316 0 563 191q180 140 310 365.5t237 586.5h-703q-164 0 -202.5 -14.5 t-70.5 -90.5l-37 8q40 101 87 220zM1489 490q26 75 26 137q0 145 -106 242q-80 74 -188 74q-64 0 -139 -31q201 -142 407 -422zM1805 1684q19 0 32 -13.5t13 -33.5q0 -25 -20.5 -46t-45.5 -21q-20 0 -34 13.5t-14 33.5q0 26 21 46.5t48 20.5zM1624 1684q19 0 32 -13.5 t13 -33.5q0 -25 -20.5 -46t-45.5 -21q-20 0 -34 13.5t-14 33.5q0 26 21 46.5t48 20.5z"/>
<glyph horiz-adv-x="2270" unicode="" glyph-name="Eth" d="M1741 625h220v-31h-231q-61 -174 -61 -205q0 -29 38 -29q20 0 54 11l10 -36q-102 -37 -244 -83q14 99 100 342h-142v31h152q33 99 33 117q0 38 -31 38q-10 0 -33 -9.5t-151 -65.5q-134 -63 -175 -80t-197 -73q61 -107 126 -198q195 -274 442 -274q150 0 287 84.5 t222 229.5q128 219 128 434q0 146 -84 256q-133 173 -470 173q-100 0 -577 -46q-88 -8 -194 -8q-103 0 -181 29q22 79 54 227l3 16l37 -5q-10 -58 -10 -84q0 -29 37 -39.5t139 -10.5q69 0 448 32q133 12 244 12q288 0 452 -109q91 -60 140 -157.5t49 -219.5 q0 -209 -115 -423q-138 -255 -365 -382q-149 -83 -314 -83q-216 0 -367 148q-62 61 -239 343l-9 14q-302 -99 -440 -99q-140 0 -229 75q-95 81 -95 215q0 171 139 274q120 89 254 89q133 0 243 -130q51 -61 78 -102.5t136 -228.5l12 -20q342 128 589 250q98 47 151 71 q5 -13 5 -25q0 -44 -8.5 -75.5t-59.5 -179.5zM945 544q-98 161 -149 234q-142 204 -301 204q-94 0 -166 -65q-78 -70 -78 -175q0 -120 90.5 -197.5t229.5 -77.5q156 0 374 77z"/>
<glyph horiz-adv-x="2487" unicode="" glyph-name="Ntilde" d="M2921 1380l-78 -263l-37 7q13 63 13 90q0 31 -15.5 46t-57.5 24q-46 11 -111 11q-134 0 -242.5 -57t-179.5 -164q-131 -200 -184 -474q33 -22 36 -25q97 -65 119.5 -82.5t42.5 -41.5q50 -63 50 -137q0 -98 -62 -204q-61 -103 -129 -103q-36 0 -69.5 23.5t-53.5 63.5 q-32 65 -32 175q0 114 22 227l-29 20q-168 116 -209.5 146.5t-194.5 151.5q-44 -139 -78.5 -216.5t-89.5 -157.5q-138 -202 -311 -315q-197 -128 -391 -128q-142 0 -270 68q-116 62 -177.5 168.5t-61.5 246.5q0 237 166 361q149 112 351 112q123 0 232.5 -44t230.5 -142 q64 -51 98 -51q18 0 32.5 7t78.5 46l19 -29q-53 -38 -186 -124l-23 -16q-116 118 -231 183q-177 100 -347 100q-153 0 -261 -98q-104 -94 -104 -241q0 -101 41.5 -190.5t115.5 -150.5q149 -123 378 -123q167 0 319 100q141 93 231 246t174 440q-198 171 -295 282 q-113 130 -113 177q0 30 57 141l47 93l36 -14q-38 -81 -38 -116q0 -38 31.5 -84.5t119.5 -139.5q117 -123 196 -193q17 74 52.5 124t89.5 75q-24 -64 -78 -256q136 -118 421 -324q109 369 259 546q109 130 267 187q113 41 227 41q79 0 186 -25zM2002 466q-8 -58 -8 -118 q0 -264 112 -264q41 0 69 36t28 90q0 67 -39.5 117.5t-161.5 138.5zM1823 1533q31 97 63.5 134t87.5 37q34 0 110 -20q64 -16 95 -16q60 0 80 62l22 -4q-27 -90 -60.5 -127t-89.5 -37q-24 0 -111 22q-67 16 -98 16q-42 0 -59 -27q-3 -5 -15 -32q-1 -4 -5 -12z"/>
<glyph horiz-adv-x="1848" unicode="" glyph-name="Ograve" d="M1685 1367l-90 -249q99 -28 166 -69q155 -94 155 -290q0 -192 -130 -373q-163 -226 -461 -334q-193 -70 -407 -70q-359 0 -567 181q-160 138 -160 379q0 243 164 442q91 111 248.5 201t351.5 143q219 59 476 59q138 0 254 -20zM1577 1073q-96 -235 -252 -381 q-235 -219 -528 -219l-95 1q-44 0 -94 -24q9 17 37 74q27 53 57 62t187 9q250 0 391.5 110t240.5 382q-98 22 -183 22q-211 0 -356.5 -102t-191.5 -283q-23 35 -23 77q0 105 91 193q88 85 263 126q118 28 234 28q63 0 183 -15l45 149q-182 26 -319 26q-235 0 -430 -59 q-273 -84 -408 -324q-97 -172 -97 -367q0 -271 203 -405q189 -125 460 -125q235 0 425 107q214 121 309 339q56 129 56 266q0 127 -56.5 218.5t-148.5 114.5zM1280 1818q110 -30 174.5 -118t77.5 -225q-56 93 -134.5 159.5t-169.5 96.5z"/>
<glyph horiz-adv-x="1848" unicode="" glyph-name="Oacute" d="M1685 1367l-90 -249q99 -28 166 -69q155 -94 155 -290q0 -192 -130 -373q-163 -226 -461 -334q-193 -70 -407 -70q-359 0 -567 181q-160 138 -160 379q0 243 164 442q91 111 248.5 201t351.5 143q219 59 476 59q138 0 254 -20zM1577 1073q-96 -235 -252 -381 q-235 -219 -528 -219l-95 1q-44 0 -94 -24q9 17 37 74q27 53 57 62t187 9q250 0 391.5 110t240.5 382q-98 22 -183 22q-211 0 -356.5 -102t-191.5 -283q-23 35 -23 77q0 105 91 193q88 85 263 126q118 28 234 28q63 0 183 -15l45 149q-182 26 -319 26q-235 0 -430 -59 q-273 -84 -408 -324q-97 -172 -97 -367q0 -271 203 -405q189 -125 460 -125q235 0 425 107q214 121 309 339q56 129 56 266q0 127 -56.5 218.5t-148.5 114.5zM1546 1818l52 -87q-91 -30 -169.5 -96.5t-134.5 -159.5q14 137 78.5 225t173.5 118z"/>
<glyph horiz-adv-x="1848" unicode="" glyph-name="Ocircumflex" d="M1685 1367l-90 -249q99 -28 166 -69q155 -94 155 -290q0 -192 -130 -373q-163 -226 -461 -334q-193 -70 -407 -70q-359 0 -567 181q-160 138 -160 379q0 243 164 442q91 111 248.5 201t351.5 143q219 59 476 59q138 0 254 -20zM1577 1073q-96 -235 -252 -381 q-235 -219 -528 -219l-95 1q-44 0 -94 -24q9 17 37 74q27 53 57 62t187 9q250 0 391.5 110t240.5 382q-98 22 -183 22q-211 0 -356.5 -102t-191.5 -283q-23 35 -23 77q0 105 91 193q88 85 263 126q118 28 234 28q63 0 183 -15l45 149q-182 26 -319 26q-235 0 -430 -59 q-273 -84 -408 -324q-97 -172 -97 -367q0 -271 203 -405q189 -125 460 -125q235 0 425 107q214 121 309 339q56 129 56 266q0 127 -56.5 218.5t-148.5 114.5zM1601 1851v-22q2 -201 9 -276q-13 -9 -59 -42q-25 -18 -42 -36q2 25 2 57q0 76 -4.5 101t-19.5 25q-17 0 -85 -70 q-46 -48 -69.5 -64t-47.5 -16q-13 0 -26 7q9 8 82 66q129 107 260 270z"/>
<glyph horiz-adv-x="1848" unicode="" glyph-name="Otilde" d="M1685 1367l-90 -249q99 -28 166 -69q155 -94 155 -290q0 -192 -130 -373q-163 -226 -461 -334q-193 -70 -407 -70q-359 0 -567 181q-160 138 -160 379q0 243 164 442q91 111 248.5 201t351.5 143q219 59 476 59q138 0 254 -20zM1577 1073q-96 -235 -252 -381 q-235 -219 -528 -219l-95 1q-44 0 -94 -24q9 17 37 74q27 53 57 62t187 9q250 0 391.5 110t240.5 382q-98 22 -183 22q-211 0 -356.5 -102t-191.5 -283q-23 35 -23 77q0 105 91 193q88 85 263 126q118 28 234 28q63 0 183 -15l45 149q-182 26 -319 26q-235 0 -430 -59 q-273 -84 -408 -324q-97 -172 -97 -367q0 -271 203 -405q189 -125 460 -125q235 0 425 107q214 121 309 339q56 129 56 266q0 127 -56.5 218.5t-148.5 114.5zM1271 1533q31 97 63.5 134t87.5 37q34 0 110 -20q64 -16 95 -16q60 0 80 62l22 -4q-27 -90 -60.5 -127t-89.5 -37 q-24 0 -111 22q-67 16 -98 16q-42 0 -59 -27q-3 -5 -15 -32q-1 -4 -5 -12z"/>
<glyph horiz-adv-x="1848" unicode="" glyph-name="Odieresis" d="M1685 1367l-90 -249q99 -28 166 -69q155 -94 155 -290q0 -192 -130 -373q-163 -226 -461 -334q-193 -70 -407 -70q-359 0 -567 181q-160 138 -160 379q0 243 164 442q91 111 248.5 201t351.5 143q219 59 476 59q138 0 254 -20zM1577 1073q-96 -235 -252 -381 q-235 -219 -528 -219l-95 1q-44 0 -94 -24q9 17 37 74q27 53 57 62t187 9q250 0 391.5 110t240.5 382q-98 22 -183 22q-211 0 -356.5 -102t-191.5 -283q-23 35 -23 77q0 105 91 193q88 85 263 126q118 28 234 28q63 0 183 -15l45 149q-182 26 -319 26q-235 0 -430 -59 q-273 -84 -408 -324q-97 -172 -97 -367q0 -271 203 -405q189 -125 460 -125q235 0 425 107q214 121 309 339q56 129 56 266q0 127 -56.5 218.5t-148.5 114.5zM1429 1684q19 0 32 -13.5t13 -33.5q0 -25 -20.5 -46t-45.5 -21q-20 0 -34 13.5t-14 33.5q0 26 21 46.5t48 20.5z M1221 1684q19 0 32 -13.5t13 -33.5q0 -25 -20.5 -46t-45.5 -21q-20 0 -34 13.5t-14 33.5q0 26 21 46.5t48 20.5z"/>
<glyph horiz-adv-x="874" unicode="" glyph-name="multiply" d="M359 818l46 32l135 -225l285 209l24 -42l-285 -208l136 -226l-46 -33l-135 226l-286 -210l-23 42l284 208z"/>
<glyph horiz-adv-x="1848" unicode="" glyph-name="Oslash" d="M1520 1385q97 -6 165 -17l-90 -250q99 -28 166 -69q155 -94 155 -289q0 -193 -130 -374q-162 -225 -461 -334q-193 -70 -400 -70q-121 0 -254 27l-97 -157h-36l101 165q-180 48 -290 146q-73 64 -115.5 168.5t-42.5 217.5q0 235 164 435q156 190 470 303q280 100 616 100 q22 0 42 -1l105 171h38zM1466 1297l-92 -149q57 -1 164 -15l45 149q-34 5 -117 15zM1350 1109l-311 -504q170 24 284 138t198 344q-88 20 -171 22zM970 493l-262 -423q136 -42 284 -42q235 0 425 107q214 121 309 339q56 129 56 266q0 127 -56.5 218.5t-148.5 114.5 q-94 -230 -249 -378t-358 -202zM679 81l248 403q-66 -11 -130 -11l-95 1q-43 0 -94 -24q9 17 37 74q27 53 57 62t187 9q59 0 110 5l313 508q-202 -8 -340 -109.5t-182 -274.5q-23 36 -23 77q0 104 82 185t231 123q125 36 256 39l94 152q-7 0 -16 1q-72 6 -152 6 q-234 0 -428 -59q-273 -84 -408 -323q-97 -173 -97 -367q0 -351 350 -477z"/>
<glyph horiz-adv-x="2529" unicode="" glyph-name="Ugrave" d="M1912 434q-54 -165 -132 -302q25 2 33 2q18 0 176 -6l134 -6q146 0 250 113q105 114 105 289q0 26 -3 64q47 -38 47 -109q0 -102 -78 -215q-77 -113 -188 -177.5t-228 -64.5q-52 0 -129 9q-173 20 -236 20q76 183 95 262q-53 -37 -112 -79q-138 -98 -323 -175 q-131 -55 -211 -55q-71 0 -114.5 36.5t-43.5 95.5q0 57 22.5 125t153.5 400q180 456 180 556q0 48 -45.5 70.5t-145.5 22.5q-198 0 -394 -75q-119 -45 -216 -129.5t-152 -190.5q-80 -153 -80 -324q0 -71 23 -188q-102 86 -102 260q0 207 161 381q87 93 224.5 166.5 t300.5 114.5q163 40 406 40q119 0 207 -8q-23 -106 -95.5 -320.5t-156.5 -420.5q-112 -275 -136 -343t-24 -111t28.5 -69t74.5 -26q106 0 353 151q161 98 241 161q32 95 87 304q74 280 152 411q108 182 247 264q89 53 156 53q45 0 72 -34.5t27 -92.5q0 -199 -242 -488 q-83 -99 -151 -165.5t-218 -196.5zM1936 507q181 144 311 326q80 111 129 228t49 197q0 43 -17 68.5t-45 25.5q-50 0 -110.5 -67.5t-118.5 -188.5q-43 -89 -78.5 -194t-119.5 -395zM1757 1818q110 -30 174.5 -118t77.5 -225q-56 93 -134.5 159.5t-169.5 96.5z"/>
<glyph horiz-adv-x="2529" unicode="" glyph-name="Uacute" d="M1912 434q-54 -165 -132 -302q25 2 33 2q18 0 176 -6l134 -6q146 0 250 113q105 114 105 289q0 26 -3 64q47 -38 47 -109q0 -102 -78 -215q-77 -113 -188 -177.5t-228 -64.5q-52 0 -129 9q-173 20 -236 20q76 183 95 262q-53 -37 -112 -79q-138 -98 -323 -175 q-131 -55 -211 -55q-71 0 -114.5 36.5t-43.5 95.5q0 57 22.5 125t153.5 400q180 456 180 556q0 48 -45.5 70.5t-145.5 22.5q-198 0 -394 -75q-119 -45 -216 -129.5t-152 -190.5q-80 -153 -80 -324q0 -71 23 -188q-102 86 -102 260q0 207 161 381q87 93 224.5 166.5 t300.5 114.5q163 40 406 40q119 0 207 -8q-23 -106 -95.5 -320.5t-156.5 -420.5q-112 -275 -136 -343t-24 -111t28.5 -69t74.5 -26q106 0 353 151q161 98 241 161q32 95 87 304q74 280 152 411q108 182 247 264q89 53 156 53q45 0 72 -34.5t27 -92.5q0 -199 -242 -488 q-83 -99 -151 -165.5t-218 -196.5zM1936 507q181 144 311 326q80 111 129 228t49 197q0 43 -17 68.5t-45 25.5q-50 0 -110.5 -67.5t-118.5 -188.5q-43 -89 -78.5 -194t-119.5 -395zM1955 1818l52 -87q-91 -30 -169.5 -96.5t-134.5 -159.5q14 137 78.5 225t173.5 118z"/>
<glyph horiz-adv-x="2529" unicode="" glyph-name="Ucircumflex" d="M1912 434q-54 -165 -132 -302q25 2 33 2q18 0 176 -6l134 -6q146 0 250 113q105 114 105 289q0 26 -3 64q47 -38 47 -109q0 -102 -78 -215q-77 -113 -188 -177.5t-228 -64.5q-52 0 -129 9q-173 20 -236 20q76 183 95 262q-53 -37 -112 -79q-138 -98 -323 -175 q-131 -55 -211 -55q-71 0 -114.5 36.5t-43.5 95.5q0 57 22.5 125t153.5 400q180 456 180 556q0 48 -45.5 70.5t-145.5 22.5q-198 0 -394 -75q-119 -45 -216 -129.5t-152 -190.5q-80 -153 -80 -324q0 -71 23 -188q-102 86 -102 260q0 207 161 381q87 93 224.5 166.5 t300.5 114.5q163 40 406 40q119 0 207 -8q-23 -106 -95.5 -320.5t-156.5 -420.5q-112 -275 -136 -343t-24 -111t28.5 -69t74.5 -26q106 0 353 151q161 98 241 161q32 95 87 304q74 280 152 411q108 182 247 264q89 53 156 53q45 0 72 -34.5t27 -92.5q0 -199 -242 -488 q-83 -99 -151 -165.5t-218 -196.5zM1936 507q181 144 311 326q80 111 129 228t49 197q0 43 -17 68.5t-45 25.5q-50 0 -110.5 -67.5t-118.5 -188.5q-43 -89 -78.5 -194t-119.5 -395zM2010 1851v-22q2 -201 9 -276q-13 -9 -59 -42q-25 -18 -42 -36q2 25 2 57q0 76 -4.5 101 t-19.5 25q-17 0 -85 -70q-46 -48 -69.5 -64t-47.5 -16q-13 0 -26 7q9 8 82 66q129 107 260 270z"/>
<glyph horiz-adv-x="2529" unicode="" glyph-name="Udieresis" d="M1912 434q-54 -165 -132 -302q25 2 33 2q18 0 176 -6l134 -6q146 0 250 113q105 114 105 289q0 26 -3 64q47 -38 47 -109q0 -102 -78 -215q-77 -113 -188 -177.5t-228 -64.5q-52 0 -129 9q-173 20 -236 20q76 183 95 262q-53 -37 -112 -79q-138 -98 -323 -175 q-131 -55 -211 -55q-71 0 -114.5 36.5t-43.5 95.5q0 57 22.5 125t153.5 400q180 456 180 556q0 48 -45.5 70.5t-145.5 22.5q-198 0 -394 -75q-119 -45 -216 -129.5t-152 -190.5q-80 -153 -80 -324q0 -71 23 -188q-102 86 -102 260q0 207 161 381q87 93 224.5 166.5 t300.5 114.5q163 40 406 40q119 0 207 -8q-23 -106 -95.5 -320.5t-156.5 -420.5q-112 -275 -136 -343t-24 -111t28.5 -69t74.5 -26q106 0 353 151q161 98 241 161q32 95 87 304q74 280 152 411q108 182 247 264q89 53 156 53q45 0 72 -34.5t27 -92.5q0 -199 -242 -488 q-83 -99 -151 -165.5t-218 -196.5zM1936 507q181 144 311 326q80 111 129 228t49 197q0 43 -17 68.5t-45 25.5q-50 0 -110.5 -67.5t-118.5 -188.5q-43 -89 -78.5 -194t-119.5 -395zM2009 1684q19 0 32 -13.5t13 -33.5q0 -25 -20.5 -46t-45.5 -21q-20 0 -34 13.5t-14 33.5 q0 26 21 46.5t48 20.5zM1801 1684q19 0 32 -13.5t13 -33.5q0 -25 -20.5 -46t-45.5 -21q-20 0 -34 13.5t-14 33.5q0 26 21 46.5t48 20.5z"/>
<glyph horiz-adv-x="2661" unicode="" glyph-name="Yacute" d="M1724 591q-148 -240 -230 -388q-2 -13 -7 -73q-6 -56 -7 -75q-59 -23 -78.5 -36.5t-40.5 -43.5q-33 -49 -55 -126t-22 -145q0 -63 23.5 -96t83.5 -54l-51 -140q-128 47 -128 218q0 74 24.5 153.5t87.5 205.5q23 46 29.5 66.5t11.5 59.5q15 121 15 227l-1 223v22 q-116 -26 -198 -95q-140 -118 -140 -301q0 -83 26 -142.5t90 -121.5q-22 -4 -31 -4q-59 0 -102 55q-45 57 -45 151q0 154 91 295q98 152 303 240q-21 211 -76 331q-74 161 -214 244q-122 73 -260 73q-149 0 -278 -82q-118 -74 -174 -204q-42 -99 -42 -217q0 -261 191 -456 q120 -123 268 -159v-19q-176 2 -300 87q-120 82 -181 222q-52 121 -52 254q0 250 161 434q182 206 468 206q242 0 400 -146q182 -167 216 -537q59 5 100 5q49 0 143 -10q207 308 359 456q276 267 576 267q143 0 215 -73q59 -60 59 -148q0 -130 -101 -267 q-138 -188 -410 -289q-183 -69 -423 -69q-90 0 -222 14q-50 5 -72 8zM1785 688q200 -22 342 -22q296 0 476 96q122 65 193.5 159t71.5 191q0 95 -64 152q-73 67 -198 67q-404 0 -821 -643zM1680 595q-100 11 -130 11q-18 0 -44 -3v-53q0 -133 -10 -261q14 22 93 154 q80 133 91 152zM1952 1818l52 -87q-91 -30 -169.5 -96.5t-134.5 -159.5q14 137 78.5 225t173.5 118z"/>
<glyph horiz-adv-x="1919" unicode="" glyph-name="Thorn" d="M1327 1036l-141 -10l-141 -10q-388 -30 -480 -30q-203 0 -269 47l98 280l34 -8q-24 -85 -24 -113q0 -42 42 -59.5t145 -17.5q165 0 489 25q263 21 342 24q78 118 78 159q0 16 -10 31q18 2 74 4q18 0 74 7q-26 -30 -96 -128q-23 -33 -51 -70q77 2 105 2q212 0 309 -75 q87 -67 87 -193q0 -129 -91 -270q-81 -128 -195.5 -195t-248.5 -67q-122 0 -200 51t-183 199l-305 -407q164 109 305 109q88 0 165 -25t351 -142q80 -34 111 -34q55 0 138 111l31 -19q-11 -14 -86 -111q-73 -102 -86 -120q-80 18 -230 88q-189 89 -296 122t-207 33 q-108 0 -187 -48t-162 -165l-29 21zM1395 1040l-12 -16q-108 -139 -219 -285q15 -22 70 -106q130 -201 312 -201q140 0 245 140q98 131 98 264q0 210 -313 210q-55 0 -181 -6z"/>
<glyph horiz-adv-x="751" unicode="" glyph-name="germandbls" d="M901 1130h-33q10 58 10 88q0 57 -77 57q-96 0 -182 -55q-83 -54 -137 -159t-152 -400q45 63 78 87.5t105 47.5q49 15 64 28.5t36 63.5q37 -5 82 -5q18 0 56 1q-8 -12 -45 -118q-52 6 -84 6q-117 0 -185 -45q-28 -18 -47 -51.5t-19 -63.5q0 -50 57 -102q16 -14 166 -117 q39 -27 63 -69t24 -84q0 -98 -92 -178.5t-203 -80.5q-62 0 -98 29t-36 79q0 33 12 60q39 -55 79 -77.5t100 -22.5q69 0 118.5 35.5t49.5 85.5q0 57 -98 126q-134 94 -174.5 139.5t-40.5 102.5q0 8 1 22l-178 -565q-10 1 -20 1q-43 0 -60.5 -24.5t-80.5 -172.5 q-73 -170 -186 -278q-93 -90 -185 -90q-46 0 -75.5 28.5t-29.5 71.5q0 4 1 13q40 -18 105 -18q95 0 171 58t138 178q85 166 179 455l130 400q58 183 83.5 247.5t70.5 138.5q126 210 366 318q99 44 175 44q60 0 60 -25q0 -7 -4 -17q-8 -24 -15 -47z"/>
<glyph horiz-adv-x="768" unicode="" glyph-name="agrave" d="M680 153l18 -26q-49 -37 -125.5 -70t-161.5 -54q-4 79 118 348q-122 -146 -248 -239q-151 -113 -233 -113q-70 0 -70 89q0 96 58 208t159 212q247 245 563 307q84 17 150 17q33 0 33 -24q0 -22 -29 -76q-69 12 -142 12q-168 0 -307 -75q-207 -111 -315 -309 q-55 -100 -55 -194q0 -84 59 -84q40 0 114 61t146 153q144 186 191 401q43 -26 43 -94q0 -99 -98 -224q46 3 118 27q-103 -230 -103 -266q0 -27 27 -27q20 0 90 40zM510 1204q100 -28 178 -125.5t97 -217.5q-56 93 -134.5 159.5t-169.5 96.5z"/>
<glyph horiz-adv-x="768" unicode="" glyph-name="aacute" d="M680 153l18 -26q-49 -37 -125.5 -70t-161.5 -54q-4 79 118 348q-122 -146 -248 -239q-151 -113 -233 -113q-70 0 -70 89q0 96 58 208t159 212q247 245 563 307q84 17 150 17q33 0 33 -24q0 -22 -29 -76q-69 12 -142 12q-168 0 -307 -75q-207 -111 -315 -309 q-55 -100 -55 -194q0 -84 59 -84q40 0 114 61t146 153q144 186 191 401q43 -26 43 -94q0 -99 -98 -224q46 3 118 27q-103 -230 -103 -266q0 -27 27 -27q20 0 90 40zM820 1204l38 -87q-87 -30 -161 -96t-128 -160q22 138 86.5 226t164.5 117z"/>
<glyph horiz-adv-x="768" unicode="" glyph-name="acircumflex" d="M680 153l18 -26q-49 -37 -125.5 -70t-161.5 -54q-4 79 118 348q-122 -146 -248 -239q-151 -113 -233 -113q-70 0 -70 89q0 96 58 208t159 212q247 245 563 307q84 17 150 17q33 0 33 -24q0 -22 -29 -76q-69 12 -142 12q-168 0 -307 -75q-207 -111 -315 -309 q-55 -100 -55 -194q0 -84 59 -84q40 0 114 61t146 153q144 186 191 401q43 -26 43 -94q0 -99 -98 -224q46 3 118 27q-103 -230 -103 -266q0 -27 27 -27q20 0 90 40zM769 1250v-22q2 -198 8 -276q-7 -5 -56 -42q-24 -18 -40 -36q2 27 2 61q0 73 -4.5 97.5t-18.5 24.5 q-16 0 -80 -70q-43 -47 -66 -63.5t-45 -16.5q-12 0 -25 7q9 8 78 66q122 107 247 270z"/>
<glyph horiz-adv-x="768" unicode="" glyph-name="atilde" d="M680 153l18 -26q-49 -37 -125.5 -70t-161.5 -54q-4 79 118 348q-122 -146 -248 -239q-151 -113 -233 -113q-70 0 -70 89q0 96 58 208t159 212q247 245 563 307q84 17 150 17q33 0 33 -24q0 -22 -29 -76q-69 12 -142 12q-168 0 -307 -75q-207 -111 -315 -309 q-55 -100 -55 -194q0 -84 59 -84q40 0 114 61t146 153q144 186 191 401q43 -26 43 -94q0 -99 -98 -224q46 3 118 27q-103 -230 -103 -266q0 -27 27 -27q20 0 90 40zM458 932q29 91 56.5 122t77.5 31q30 0 99 -17q58 -14 86 -14q47 0 71 51l19 -4q-25 -84 -54 -115.5 t-80 -31.5q-21 0 -99 19q-60 14 -88 14t-39.5 -9.5t-31.5 -49.5z"/>
<glyph horiz-adv-x="768" unicode="" glyph-name="adieresis" d="M680 153l18 -26q-49 -37 -125.5 -70t-161.5 -54q-4 79 118 348q-122 -146 -248 -239q-151 -113 -233 -113q-70 0 -70 89q0 96 58 208t159 212q247 245 563 307q84 17 150 17q33 0 33 -24q0 -22 -29 -76q-69 12 -142 12q-168 0 -307 -75q-207 -111 -315 -309 q-55 -100 -55 -194q0 -84 59 -84q40 0 114 61t146 153q144 186 191 401q43 -26 43 -94q0 -99 -98 -224q46 3 118 27q-103 -230 -103 -266q0 -27 27 -27q20 0 90 40zM756 1083q19 0 32 -13.5t13 -33.5q0 -25 -20.5 -46t-45.5 -21q-20 0 -34 13.5t-14 33.5q0 26 21 46.5 t48 20.5zM548 1083q19 0 32 -13.5t13 -33.5q0 -25 -20.5 -46t-45.5 -21q-20 0 -34 13.5t-14 33.5q0 26 21 46.5t48 20.5z"/>
<glyph horiz-adv-x="768" unicode="" glyph-name="aring" d="M680 153l18 -26q-49 -37 -125.5 -70t-161.5 -54q-4 79 118 348q-122 -146 -248 -239q-151 -113 -233 -113q-70 0 -70 89q0 96 58 208t159 212q247 245 563 307q84 17 150 17q33 0 33 -24q0 -22 -29 -76q-69 12 -142 12q-168 0 -307 -75q-207 -111 -315 -309 q-55 -100 -55 -194q0 -84 59 -84q40 0 114 61t146 153q144 186 191 401q43 -26 43 -94q0 -99 -98 -224q46 3 118 27q-103 -230 -103 -266q0 -27 27 -27q20 0 90 40zM704 1145q28 0 45.5 -18.5t17.5 -47.5q0 -61 -63 -119.5t-128 -58.5q-28 0 -45 18t-17 48q0 71 75 129 q64 50 115 49zM676 1105q-31 3 -68.5 -40.5t-37.5 -82.5q0 -37 36 -37t68.5 36t34.5 79q2 42 -33 45z"/>
<glyph horiz-adv-x="1181" unicode="" glyph-name="ae" d="M1152 443q15 -20 15 -48q0 -99 -142 -231q-90 -83 -176 -130.5t-148 -47.5q-52 0 -84 38t-32 99q0 86 47 213q-100 -177 -100 -242q0 -17 15 -34q-73 -41 -175 -60q7 46 24 90.5t98 220.5q-122 -138 -249.5 -227t-203.5 -89q-66 0 -66 87q0 148 128 320q190 257 505 371 q161 58 283 58q45 0 45 -23t-29 -77q-73 9 -135 9q-330 0 -556 -278q-128 -157 -128 -300q0 -82 60 -82q44 0 120.5 66t153.5 170q68 90 106 175t67 208q47 -35 47 -95q0 -96 -95 -226q64 5 116 30q98 195 269 314q168 116 290 116q82 0 82 -59q0 -41 -43.5 -98t-111.5 -103 q-56 -39 -125 -65.5t-113 -26.5q-56 0 -68 55q37 -6 63 -6q122 0 212 74q62 51 62 102q0 49 -64 49q-62 0 -138 -54.5t-138 -144.5q-59 -85 -98.5 -194t-39.5 -186q0 -107 87 -107q108 0 223 129q75 84 140 240z"/>
<glyph horiz-adv-x="606" unicode="" glyph-name="ccedilla" d="M140 -11l-41 -92q45 15 80 15q102 0 102 -85q0 -105 -102 -189q-37 -31 -85 -51.5t-84 -20.5q-34 0 -55 21t-21 56q0 81 85 111q-19 -47 -19 -71q0 -29 14 -47t37 -18q56 0 104.5 56t48.5 121q0 68 -80 68q-54 0 -105 -44l78 173q-97 25 -97 145q0 149 108 314 q116 175 278 283.5t309 108.5q12 0 42 -2l-142 -263h-35q44 92 44 123q0 35 -72 35q-70 0 -121.5 -27t-99.5 -90q-80 -104 -131 -222t-51 -201q0 -52 26 -82t72 -30q151 0 284 189q23 32 84 146q11 -20 11 -39q0 -55 -56.5 -130.5t-151.5 -147.5q-140 -107 -258 -113z"/>
<glyph horiz-adv-x="594" unicode="" glyph-name="egrave" d="M567 442q15 -27 15 -48q0 -106 -153 -240q-188 -165 -311 -165q-54 0 -85 35.5t-31 97.5q0 79 37.5 188.5t93.5 194.5q126 191 339 290q94 44 169 44q76 0 76 -58q0 -42 -45 -100.5t-108 -101.5q-53 -34 -127 -62.5t-113 -28.5q-47 0 -66 52q43 -6 68 -6q106 0 185 58 q38 27 61 61.5t23 63.5q0 21 -17.5 34t-44.5 13q-124 0 -246 -161q-77 -100 -123 -216.5t-46 -211.5q0 -102 86 -102q94 0 195.5 103.5t167.5 265.5zM423 1204q100 -28 178 -125.5t97 -217.5q-56 93 -134.5 159.5t-169.5 96.5z"/>
<glyph horiz-adv-x="594" unicode="" glyph-name="eacute" d="M567 442q15 -27 15 -48q0 -106 -153 -240q-188 -165 -311 -165q-54 0 -85 35.5t-31 97.5q0 79 37.5 188.5t93.5 194.5q126 191 339 290q94 44 169 44q76 0 76 -58q0 -42 -45 -100.5t-108 -101.5q-53 -34 -127 -62.5t-113 -28.5q-47 0 -66 52q43 -6 68 -6q106 0 185 58 q38 27 61 61.5t23 63.5q0 21 -17.5 34t-44.5 13q-124 0 -246 -161q-77 -100 -123 -216.5t-46 -211.5q0 -102 86 -102q94 0 195.5 103.5t167.5 265.5zM693 1204l38 -87q-87 -30 -161 -96t-128 -160q22 138 86.5 226t164.5 117z"/>
<glyph horiz-adv-x="594" unicode="" glyph-name="ecircumflex" d="M567 442q15 -27 15 -48q0 -106 -153 -240q-188 -165 -311 -165q-54 0 -85 35.5t-31 97.5q0 79 37.5 188.5t93.5 194.5q126 191 339 290q94 44 169 44q76 0 76 -58q0 -42 -45 -100.5t-108 -101.5q-53 -34 -127 -62.5t-113 -28.5q-47 0 -66 52q43 -6 68 -6q106 0 185 58 q38 27 61 61.5t23 63.5q0 21 -17.5 34t-44.5 13q-124 0 -246 -161q-77 -100 -123 -216.5t-46 -211.5q0 -102 86 -102q94 0 195.5 103.5t167.5 265.5zM724 1250v-22q2 -198 8 -276q-7 -5 -56 -42q-24 -18 -40 -36q2 27 2 61q0 73 -4.5 97.5t-18.5 24.5q-16 0 -80 -70 q-43 -47 -66 -63.5t-45 -16.5q-12 0 -25 7q9 8 78 66q122 107 247 270z"/>
<glyph horiz-adv-x="594" unicode="" glyph-name="edieresis" d="M567 442q15 -27 15 -48q0 -106 -153 -240q-188 -165 -311 -165q-54 0 -85 35.5t-31 97.5q0 79 37.5 188.5t93.5 194.5q126 191 339 290q94 44 169 44q76 0 76 -58q0 -42 -45 -100.5t-108 -101.5q-53 -34 -127 -62.5t-113 -28.5q-47 0 -66 52q43 -6 68 -6q106 0 185 58 q38 27 61 61.5t23 63.5q0 21 -17.5 34t-44.5 13q-124 0 -246 -161q-77 -100 -123 -216.5t-46 -211.5q0 -102 86 -102q94 0 195.5 103.5t167.5 265.5zM678 1083q19 0 32 -13.5t13 -33.5q0 -25 -20.5 -46t-45.5 -21q-20 0 -34 13.5t-14 33.5q0 26 21 46.5t48 20.5zM470 1083 q19 0 32 -13.5t13 -33.5q0 -25 -20.5 -46t-45.5 -21q-20 0 -34 13.5t-14 33.5q0 26 21 46.5t48 20.5z"/>
<glyph horiz-adv-x="365" unicode="" glyph-name="igrave" d="M418 855v-11q0 -61 -34.5 -155.5t-163.5 -384.5q-61 -138 -61 -166t32 -28q19 0 68 21l13 -29q-188 -88 -251 -107q5 94 30 172t111 265q110 242 110 277q0 30 -26 30q-23 0 -95 -29l-10 32q133 48 277 113zM336 1204q100 -28 178 -125.5t97 -217.5q-56 93 -134.5 159.5 t-169.5 96.5z"/>
<glyph horiz-adv-x="365" unicode="" glyph-name="iacute" d="M418 855v-11q0 -61 -34.5 -155.5t-163.5 -384.5q-61 -138 -61 -166t32 -28q19 0 68 21l13 -29q-188 -88 -251 -107q5 94 30 172t111 265q110 242 110 277q0 30 -26 30q-23 0 -95 -29l-10 32q133 48 277 113zM551 1204l38 -87q-87 -30 -161 -96t-128 -160q22 138 86.5 226 t164.5 117z"/>
<glyph horiz-adv-x="365" unicode="" glyph-name="icircumflex" d="M418 855v-11q0 -61 -34.5 -155.5t-163.5 -384.5q-61 -138 -61 -166t32 -28q19 0 68 21l13 -29q-188 -88 -251 -107q5 94 30 172t111 265q110 242 110 277q0 30 -26 30q-23 0 -95 -29l-10 32q133 48 277 113zM541 1250v-22q2 -198 8 -276q-7 -5 -56 -42q-24 -18 -40 -36 q2 27 2 61q0 73 -4.5 97.5t-18.5 24.5q-16 0 -80 -70q-43 -47 -66 -63.5t-45 -16.5q-12 0 -25 7q9 8 78 66q122 107 247 270z"/>
<glyph horiz-adv-x="365" unicode="" glyph-name="idieresis" d="M418 855v-11q0 -61 -34.5 -155.5t-163.5 -384.5q-61 -138 -61 -166t32 -28q19 0 68 21l13 -29q-188 -88 -251 -107q5 94 30 172t111 265q110 242 110 277q0 30 -26 30q-23 0 -95 -29l-10 32q133 48 277 113zM523 1083q19 0 32 -13.5t13 -33.5q0 -25 -20.5 -46t-45.5 -21 q-20 0 -34 13.5t-14 33.5q0 26 21 46.5t48 20.5zM342 1083q19 0 32 -13.5t13 -33.5q0 -25 -20.5 -46t-45.5 -21q-20 0 -34 13.5t-14 33.5q0 26 21 46.5t48 20.5z"/>
<glyph horiz-adv-x="713" unicode="" glyph-name="eth" d="M846 1173l147 47l9 -30l-144 -47q25 -77 25 -164q0 -235 -150 -478q-147 -236 -401 -415q-141 -99 -225 -99q-45 0 -74 31.5t-29 80.5q0 79 41 179.5t108 185.5q71 89 187 178.5t227 139.5q42 19 97 35.5t76 16.5q16 0 16 -12q0 -18 -42 -47q-44 -31 -111 -43 q-100 -19 -173 -66t-145 -140q-65 -84 -108 -185.5t-43 -171.5q0 -78 68 -78q102 0 236 120q168 150 264 374q69 159 69 305q0 106 -47 210l-175 -57l-10 30l170 55q-91 149 -241 149q-120 0 -174 -86q-29 -46 -29 -93q0 -35 23 -103q-85 -1 -85 77q0 80 91 172 q122 124 266 124q93 0 167 -50.5t119 -144.5z"/>
<glyph horiz-adv-x="797" unicode="" glyph-name="ntilde" d="M685 145l16 -27q-119 -88 -284 -120q19 171 259 625q33 64 33 82q0 27 -22 27q-35 0 -133.5 -83t-182.5 -183q-150 -179 -255 -422q-44 -10 -133 -48q94 192 186.5 425t92.5 277q0 34 -29 34q-14 0 -76 -18l-6 32q144 41 266 96q2 -12 2 -18q0 -90 -145 -409 q145 166 263 268q179 153 274 153q48 0 48 -52q0 -32 -24.5 -88.5t-106.5 -216.5q-157 -304 -157 -342q0 -29 27 -29q35 0 87 37zM472 932q29 91 56.5 122t77.5 31q30 0 99 -17q58 -14 86 -14q47 0 71 51l19 -4q-25 -84 -54 -115.5t-80 -31.5q-21 0 -99 19q-60 14 -88 14 t-39.5 -9.5t-31.5 -49.5z"/>
<glyph horiz-adv-x="679" unicode="" glyph-name="ograve" d="M743 738q-54 5 -93 5q-243 0 -377 -173q-63 -82 -107.5 -195t-44.5 -191q0 -50 28.5 -81t72.5 -31q51 0 115.5 49.5t126.5 134.5q114 159 114 286q0 34 -16 55.5t-40 21.5q-80 0 -153 -160q-5 21 -5 35q0 53 49 102q94 96 172 96q48 0 80 -37t32 -92q0 -82 -52.5 -175 t-150.5 -184q-215 -201 -357 -201q-57 0 -94.5 41t-37.5 103q0 85 43.5 188t115.5 187q160 187 376 266q103 38 169 38q47 0 47 -39q0 -15 -13 -49zM424 1204q100 -28 178 -125.5t97 -217.5q-56 93 -134.5 159.5t-169.5 96.5z"/>
<glyph horiz-adv-x="679" unicode="" glyph-name="oacute" d="M743 738q-54 5 -93 5q-243 0 -377 -173q-63 -82 -107.5 -195t-44.5 -191q0 -50 28.5 -81t72.5 -31q51 0 115.5 49.5t126.5 134.5q114 159 114 286q0 34 -16 55.5t-40 21.5q-80 0 -153 -160q-5 21 -5 35q0 53 49 102q94 96 172 96q48 0 80 -37t32 -92q0 -82 -52.5 -175 t-150.5 -184q-215 -201 -357 -201q-57 0 -94.5 41t-37.5 103q0 85 43.5 188t115.5 187q160 187 376 266q103 38 169 38q47 0 47 -39q0 -15 -13 -49zM776 1204l38 -87q-87 -30 -161 -96t-128 -160q22 138 86.5 226t164.5 117z"/>
<glyph horiz-adv-x="679" unicode="" glyph-name="ocircumflex" d="M743 738q-54 5 -93 5q-243 0 -377 -173q-63 -82 -107.5 -195t-44.5 -191q0 -50 28.5 -81t72.5 -31q51 0 115.5 49.5t126.5 134.5q114 159 114 286q0 34 -16 55.5t-40 21.5q-80 0 -153 -160q-5 21 -5 35q0 53 49 102q94 96 172 96q48 0 80 -37t32 -92q0 -82 -52.5 -175 t-150.5 -184q-215 -201 -357 -201q-57 0 -94.5 41t-37.5 103q0 85 43.5 188t115.5 187q160 187 376 266q103 38 169 38q47 0 47 -39q0 -15 -13 -49zM766 1250v-22q2 -198 8 -276q-7 -5 -56 -42q-24 -18 -40 -36q2 27 2 61q0 73 -4.5 97.5t-18.5 24.5q-16 0 -80 -70 q-43 -47 -66 -63.5t-45 -16.5q-12 0 -25 7q9 8 78 66q122 107 247 270z"/>
<glyph horiz-adv-x="679" unicode="" glyph-name="otilde" d="M743 738q-54 5 -93 5q-243 0 -377 -173q-63 -82 -107.5 -195t-44.5 -191q0 -50 28.5 -81t72.5 -31q51 0 115.5 49.5t126.5 134.5q114 159 114 286q0 34 -16 55.5t-40 21.5q-80 0 -153 -160q-5 21 -5 35q0 53 49 102q94 96 172 96q48 0 80 -37t32 -92q0 -82 -52.5 -175 t-150.5 -184q-215 -201 -357 -201q-57 0 -94.5 41t-37.5 103q0 85 43.5 188t115.5 187q160 187 376 266q103 38 169 38q47 0 47 -39q0 -15 -13 -49zM413 932q29 91 56.5 122t77.5 31q30 0 99 -17q58 -14 86 -14q47 0 71 51l19 -4q-25 -84 -54 -115.5t-80 -31.5q-21 0 -99 19 q-60 14 -88 14t-39.5 -9.5t-31.5 -49.5z"/>
<glyph horiz-adv-x="679" unicode="" glyph-name="odieresis" d="M743 738q-54 5 -93 5q-243 0 -377 -173q-63 -82 -107.5 -195t-44.5 -191q0 -50 28.5 -81t72.5 -31q51 0 115.5 49.5t126.5 134.5q114 159 114 286q0 34 -16 55.5t-40 21.5q-80 0 -153 -160q-5 21 -5 35q0 53 49 102q94 96 172 96q48 0 80 -37t32 -92q0 -82 -52.5 -175 t-150.5 -184q-215 -201 -357 -201q-57 0 -94.5 41t-37.5 103q0 85 43.5 188t115.5 187q160 187 376 266q103 38 169 38q47 0 47 -39q0 -15 -13 -49zM752 1083q19 0 32 -13.5t13 -33.5q0 -25 -20.5 -46t-45.5 -21q-20 0 -34 13.5t-14 33.5q0 26 21 46.5t48 20.5zM544 1083 q19 0 32 -13.5t13 -33.5q0 -25 -20.5 -46t-45.5 -21q-20 0 -34 13.5t-14 33.5q0 26 21 46.5t48 20.5z"/>
<glyph horiz-adv-x="874" unicode="" glyph-name="divide" d="M883 615l-23 -56h-684l23 56h684zM646 906q19 0 32 -13.5t13 -33.5q0 -25 -20.5 -46t-45.5 -21q-20 0 -34 13.5t-14 33.5q0 26 21 46.5t48 20.5zM455 387q19 0 32 -13.5t13 -32.5q0 -26 -20.5 -47t-45.5 -21q-20 0 -34 13.5t-14 33.5q0 26 21 46.5t48 20.5z"/>
<glyph horiz-adv-x="676" unicode="" glyph-name="oslash" d="M715 953l-163 -256h9q57 0 94 -38t37 -96q0 -93 -64 -198t-182 -204q-192 -161 -310 -161q-8 0 -28 2l-96 -152h-36l103 163q-78 40 -78 133q0 82 41.5 181t110.5 184q66 82 138.5 137t198.5 122q77 40 103 65t88 118h34zM506 624l-341 -537q25 -18 52 -18q48 0 109 44.5 t119 121.5q57 75 92.5 159.5t35.5 143.5q0 70 -67 86zM469 622q-104 -16 -160 -173q-7 24 -7 38q0 62 60 120t151 84l42 69q-131 -57 -200 -107.5t-117 -125.5q-52 -80 -86 -179.5t-34 -169.5q0 -41 22 -70z"/>
<glyph horiz-adv-x="747" unicode="" glyph-name="ugrave" d="M835 825q-72 -138 -172 -381t-100 -280q0 -30 33 -30q29 0 80 20l13 -27q-59 -33 -268 -112q23 158 100 348q-76 -96 -150 -170q-80 -81 -157.5 -129.5t-127.5 -48.5q-30 0 -48 19.5t-18 52.5q0 56 30.5 132t173.5 374q39 82 39 112q0 33 -34 33q-17 0 -57 -12l-8 30 q161 47 249 86q-2 -62 -27 -125t-149 -316q-100 -205 -100 -253q0 -41 38 -41q95 0 265 216q92 116 145 211.5t115 253.5q58 6 135 37zM459 1204q100 -28 178 -125.5t97 -217.5q-56 93 -134.5 159.5t-169.5 96.5z"/>
<glyph horiz-adv-x="747" unicode="" glyph-name="uacute" d="M835 825q-72 -138 -172 -381t-100 -280q0 -30 33 -30q29 0 80 20l13 -27q-59 -33 -268 -112q23 158 100 348q-76 -96 -150 -170q-80 -81 -157.5 -129.5t-127.5 -48.5q-30 0 -48 19.5t-18 52.5q0 56 30.5 132t173.5 374q39 82 39 112q0 33 -34 33q-17 0 -57 -12l-8 30 q161 47 249 86q-2 -62 -27 -125t-149 -316q-100 -205 -100 -253q0 -41 38 -41q95 0 265 216q92 116 145 211.5t115 253.5q58 6 135 37zM810 1204l38 -87q-87 -30 -161 -96t-128 -160q22 138 86.5 226t164.5 117z"/>
<glyph horiz-adv-x="747" unicode="" glyph-name="ucircumflex" d="M835 825q-72 -138 -172 -381t-100 -280q0 -30 33 -30q29 0 80 20l13 -27q-59 -33 -268 -112q23 158 100 348q-76 -96 -150 -170q-80 -81 -157.5 -129.5t-127.5 -48.5q-30 0 -48 19.5t-18 52.5q0 56 30.5 132t173.5 374q39 82 39 112q0 33 -34 33q-17 0 -57 -12l-8 30 q161 47 249 86q-2 -62 -27 -125t-149 -316q-100 -205 -100 -253q0 -41 38 -41q95 0 265 216q92 116 145 211.5t115 253.5q58 6 135 37zM773 1250v-22q2 -198 8 -276q-7 -5 -56 -42q-24 -18 -40 -36q2 27 2 61q0 73 -4.5 97.5t-18.5 24.5q-16 0 -80 -70q-43 -47 -66 -63.5 t-45 -16.5q-12 0 -25 7q9 8 78 66q122 107 247 270z"/>
<glyph horiz-adv-x="747" unicode="" glyph-name="udieresis" d="M835 825q-72 -138 -172 -381t-100 -280q0 -30 33 -30q29 0 80 20l13 -27q-59 -33 -268 -112q23 158 100 348q-76 -96 -150 -170q-80 -81 -157.5 -129.5t-127.5 -48.5q-30 0 -48 19.5t-18 52.5q0 56 30.5 132t173.5 374q39 82 39 112q0 33 -34 33q-17 0 -57 -12l-8 30 q161 47 249 86q-2 -62 -27 -125t-149 -316q-100 -205 -100 -253q0 -41 38 -41q95 0 265 216q92 116 145 211.5t115 253.5q58 6 135 37zM714 1083q19 0 32 -13.5t13 -33.5q0 -25 -20.5 -46t-45.5 -21q-20 0 -34 13.5t-14 33.5q0 26 21 46.5t48 20.5zM506 1083q19 0 32 -13.5 t13 -33.5q0 -25 -20.5 -46t-45.5 -21q-20 0 -34 13.5t-14 33.5q0 26 21 46.5t48 20.5z"/>
<glyph horiz-adv-x="782" unicode="" glyph-name="yacute" d="M333 810q16 -41 16 -101q0 -123 -58 -350q196 255 335 357q116 86 175 86q28 0 44.5 -26.5t16.5 -70.5q0 -150 -115 -331q-90 -142 -210.5 -260.5t-238.5 -182.5q-96 -53 -235 -74q-120 -19 -171 -51q-72 -45 -72 -120q0 -54 55 -87.5t142 -33.5q105 0 195 53 q-8 -42 -26 -62q-55 -63 -169 -63q-102 0 -167.5 49t-65.5 126q0 109 114 224q38 39 92.5 56t191.5 31q94 10 145.5 30t116.5 70q170 131 249 324q47 114 47 193q0 78 -55 78q-96 0 -261 -202t-290 -472h-35q124 440 124 620q0 60 -40 60q-17 0 -61 -16l-9 30q13 7 109 54 q106 59 111 62zM759 1204l38 -87q-87 -30 -161 -96t-128 -160q22 138 86.5 226t164.5 117z"/>
<glyph horiz-adv-x="645" unicode="" glyph-name="thorn" d="M608 1365l-191 -537q256 0 256 -202q0 -105 -50 -223t-134 -211q-145 -161 -258 -161q-61 0 -61 54q0 19 13 43q51 -33 87 -33q102 0 191 127q52 74 85.5 167.5t33.5 165.5q0 162 -202 170q-160 -417 -461 -1186l-17 -45q-49 -21 -117 -38q89 194 375 992q39 9 54.5 18 t31.5 30q25 36 100 229q-20 1 -26 1q-76 0 -147 -10l-54 -138l-28 11l86 228l17 1l82 6q93 4 108 5l193 536h33z"/>
<glyph horiz-adv-x="365" unicode="" glyph-name="dotlessi" d="M418 855v-11q0 -61 -34.5 -155.5t-163.5 -384.5q-61 -138 -61 -166t32 -28q19 0 68 21l13 -29q-188 -88 -251 -107q5 94 30 172t111 265q110 242 110 277q0 30 -26 30q-23 0 -95 -29l-10 32q133 48 277 113z"/>
<glyph unicode="" glyph-name="circumflex" d="M938 1250v-22q2 -198 8 -276q-7 -5 -56 -42q-24 -18 -40 -36q2 27 2 61q0 73 -4.5 97.5t-18.5 24.5q-16 0 -80 -70q-43 -47 -66 -63.5t-45 -16.5q-12 0 -25 7q9 8 78 66q122 107 247 270z"/>
<glyph unicode="" glyph-name="ring" d="M853 1145q28 0 45.5 -18.5t17.5 -47.5q0 -61 -63 -119.5t-128 -58.5q-28 0 -45 18t-17 48q0 71 75 129q64 50 115 49zM825 1105q-31 3 -68.5 -40.5t-37.5 -82.5q0 -37 36 -37t68.5 36t34.5 79q2 42 -33 45z"/>
<glyph unicode="" glyph-name="tilde" d="M586 932q29 91 56.5 122t77.5 31q30 0 99 -17q58 -14 86 -14q47 0 71 51l19 -4q-25 -84 -54 -115.5t-80 -31.5q-21 0 -99 19q-60 14 -88 14t-39.5 -9.5t-31.5 -49.5z"/>
<glyph glyph-name="glyph295" d="M1136 1684q19 0 32 -13.5t13 -33.5q0 -25 -20.5 -46t-45.5 -21q-20 0 -34 13.5t-14 33.5q0 26 21 46.5t48 20.5zM955 1684q19 0 32 -13.5t13 -33.5q0 -25 -20.5 -46t-45.5 -21q-20 0 -34 13.5t-14 33.5q0 26 21 46.5t48 20.5z"/>
<glyph glyph-name="glyph297" d="M860 1533q31 97 63.5 134t87.5 37q34 0 110 -20q64 -16 95 -16q60 0 80 62l22 -4q-27 -90 -60.5 -127t-89.5 -37q-24 0 -111 22q-67 16 -98 16q-42 0 -59 -27q-3 -5 -15 -32q-1 -4 -5 -12z"/>
<glyph glyph-name="glyph298" d="M1189 1851v-22q2 -201 9 -276q-13 -9 -59 -42q-25 -18 -42 -36q2 25 2 57q0 76 -4.5 101t-19.5 25q-17 0 -85 -70q-46 -48 -69.5 -64t-47.5 -16q-13 0 -26 7q9 8 82 66q129 107 260 270z"/>
<glyph glyph-name="glyph299" d="M868 1818q110 -30 174.5 -118t77.5 -225q-56 93 -134.5 159.5t-169.5 96.5z"/>
<glyph glyph-name="glyph300" d="M1110 1781q28 0 45.5 -18.5t17.5 -47.5q0 -61 -63 -119.5t-128 -58.5q-28 0 -45 18t-17 48q0 70 75 129q64 50 115 49zM1082 1741q-31 3 -68.5 -40.5t-37.5 -82.5q0 -37 36 -37t68.5 36t34.5 79q2 42 -33 45z"/>
<glyph glyph-name="glyph301" d="M1134 1818l52 -87q-91 -30 -169.5 -96.5t-134.5 -159.5q14 137 78.5 225t173.5 118z"/>
<glyph glyph-name="glyph302" d="M921 1083q19 0 32 -13.5t13 -33.5q0 -25 -20.5 -46t-45.5 -21q-20 0 -34 13.5t-14 33.5q0 26 21 46.5t48 20.5zM740 1083q19 0 32 -13.5t13 -33.5q0 -25 -20.5 -46t-45.5 -21q-20 0 -34 13.5t-14 33.5q0 26 21 46.5t48 20.5z"/>
<glyph glyph-name="glyph303" d="M1149 1684q19 0 32 -13.5t13 -33.5q0 -25 -20.5 -46t-45.5 -21q-20 0 -34 13.5t-14 33.5q0 26 21 46.5t48 20.5zM941 1684q19 0 32 -13.5t13 -33.5q0 -25 -20.5 -46t-45.5 -21q-20 0 -34 13.5t-14 33.5q0 26 21 46.5t48 20.5z"/>
</font>
</defs>
</svg>
